<?xml version="1.0" encoding="utf-8" standalone="no"?>
<!DOCTYPE svg PUBLIC "-//W3C//DTD SVG 1.1//EN"
  "http://www.w3.org/Graphics/SVG/1.1/DTD/svg11.dtd">
<svg xmlns:xlink="http://www.w3.org/1999/xlink" width="1088.850878pt" height="820.91625pt" viewBox="0 0 1088.850878 820.91625" xmlns="http://www.w3.org/2000/svg" version="1.1">
 <metadata>
  <rdf:RDF xmlns:dc="http://purl.org/dc/elements/1.1/" xmlns:cc="http://creativecommons.org/ns#" xmlns:rdf="http://www.w3.org/1999/02/22-rdf-syntax-ns#">
   <cc:Work>
    <dc:type rdf:resource="http://purl.org/dc/dcmitype/StillImage"/>
    <dc:date>2022-10-10T15:48:14.862871</dc:date>
    <dc:format>image/svg+xml</dc:format>
    <dc:creator>
     <cc:Agent>
      <dc:title>Matplotlib v3.6.0, https://matplotlib.org/</dc:title>
     </cc:Agent>
    </dc:creator>
   </cc:Work>
  </rdf:RDF>
 </metadata>
 <defs>
  <style type="text/css">*{stroke-linejoin: round; stroke-linecap: butt}</style>
 </defs>
 <g id="figure_1">
  <g id="patch_1">
   <path d="M 0 820.91625 
L 1088.850878 820.91625 
L 1088.850878 0 
L 0 0 
z
" style="fill: #ffffff"/>
  </g>
  <g id="axes_1">
   <g id="patch_2">
    <path d="M 50.14375 783.36 
L 1054.54375 783.36 
L 1054.54375 7.2 
L 50.14375 7.2 
z
" style="fill: #dcdcdc"/>
   </g>
   <g id="matplotlib.axis_1">
    <g id="xtick_1">
     <g id="line2d_1">
      <path d="M 70.215548 783.36 
L 70.215548 7.2 
" clip-path="url(#p26f393fa64)" style="fill: none; stroke: #b0b0b0; stroke-width: 0.8; stroke-linecap: square"/>
     </g>
     <g id="line2d_2">
      <defs>
       <path id="ma5a874c0fd" d="M 0 0 
L 0 3.5 
" style="stroke: #000000; stroke-width: 0.8"/>
      </defs>
      <g>
       <use xlink:href="#ma5a874c0fd" x="70.215548" y="783.36" style="stroke: #000000; stroke-width: 0.8"/>
      </g>
     </g>
     <g id="text_1">
      <!-- 2022-05-09 -->
      <g transform="translate(41.157735 797.958437) scale(0.1 -0.1)">
       <defs>
        <path id="DejaVuSans-32" d="M 1228 531 
L 3431 531 
L 3431 0 
L 469 0 
L 469 531 
Q 828 903 1448 1529 
Q 2069 2156 2228 2338 
Q 2531 2678 2651 2914 
Q 2772 3150 2772 3378 
Q 2772 3750 2511 3984 
Q 2250 4219 1831 4219 
Q 1534 4219 1204 4116 
Q 875 4013 500 3803 
L 500 4441 
Q 881 4594 1212 4672 
Q 1544 4750 1819 4750 
Q 2544 4750 2975 4387 
Q 3406 4025 3406 3419 
Q 3406 3131 3298 2873 
Q 3191 2616 2906 2266 
Q 2828 2175 2409 1742 
Q 1991 1309 1228 531 
z
" transform="scale(0.015625)"/>
        <path id="DejaVuSans-30" d="M 2034 4250 
Q 1547 4250 1301 3770 
Q 1056 3291 1056 2328 
Q 1056 1369 1301 889 
Q 1547 409 2034 409 
Q 2525 409 2770 889 
Q 3016 1369 3016 2328 
Q 3016 3291 2770 3770 
Q 2525 4250 2034 4250 
z
M 2034 4750 
Q 2819 4750 3233 4129 
Q 3647 3509 3647 2328 
Q 3647 1150 3233 529 
Q 2819 -91 2034 -91 
Q 1250 -91 836 529 
Q 422 1150 422 2328 
Q 422 3509 836 4129 
Q 1250 4750 2034 4750 
z
" transform="scale(0.015625)"/>
        <path id="DejaVuSans-2d" d="M 313 2009 
L 1997 2009 
L 1997 1497 
L 313 1497 
L 313 2009 
z
" transform="scale(0.015625)"/>
        <path id="DejaVuSans-35" d="M 691 4666 
L 3169 4666 
L 3169 4134 
L 1269 4134 
L 1269 2991 
Q 1406 3038 1543 3061 
Q 1681 3084 1819 3084 
Q 2600 3084 3056 2656 
Q 3513 2228 3513 1497 
Q 3513 744 3044 326 
Q 2575 -91 1722 -91 
Q 1428 -91 1123 -41 
Q 819 9 494 109 
L 494 744 
Q 775 591 1075 516 
Q 1375 441 1709 441 
Q 2250 441 2565 725 
Q 2881 1009 2881 1497 
Q 2881 1984 2565 2268 
Q 2250 2553 1709 2553 
Q 1456 2553 1204 2497 
Q 953 2441 691 2322 
L 691 4666 
z
" transform="scale(0.015625)"/>
        <path id="DejaVuSans-39" d="M 703 97 
L 703 672 
Q 941 559 1184 500 
Q 1428 441 1663 441 
Q 2288 441 2617 861 
Q 2947 1281 2994 2138 
Q 2813 1869 2534 1725 
Q 2256 1581 1919 1581 
Q 1219 1581 811 2004 
Q 403 2428 403 3163 
Q 403 3881 828 4315 
Q 1253 4750 1959 4750 
Q 2769 4750 3195 4129 
Q 3622 3509 3622 2328 
Q 3622 1225 3098 567 
Q 2575 -91 1691 -91 
Q 1453 -91 1209 -44 
Q 966 3 703 97 
z
M 1959 2075 
Q 2384 2075 2632 2365 
Q 2881 2656 2881 3163 
Q 2881 3666 2632 3958 
Q 2384 4250 1959 4250 
Q 1534 4250 1286 3958 
Q 1038 3666 1038 3163 
Q 1038 2656 1286 2365 
Q 1534 2075 1959 2075 
z
" transform="scale(0.015625)"/>
       </defs>
       <use xlink:href="#DejaVuSans-32"/>
       <use xlink:href="#DejaVuSans-30" x="63.623047"/>
       <use xlink:href="#DejaVuSans-32" x="127.246094"/>
       <use xlink:href="#DejaVuSans-32" x="190.869141"/>
       <use xlink:href="#DejaVuSans-2d" x="254.492188"/>
       <use xlink:href="#DejaVuSans-30" x="290.576172"/>
       <use xlink:href="#DejaVuSans-35" x="354.199219"/>
       <use xlink:href="#DejaVuSans-2d" x="417.822266"/>
       <use xlink:href="#DejaVuSans-30" x="453.90625"/>
       <use xlink:href="#DejaVuSans-39" x="517.529297"/>
      </g>
     </g>
    </g>
    <g id="xtick_2">
     <g id="line2d_3">
      <path d="M 193.012737 783.36 
L 193.012737 7.2 
" clip-path="url(#p26f393fa64)" style="fill: none; stroke: #b0b0b0; stroke-width: 0.8; stroke-linecap: square"/>
     </g>
     <g id="line2d_4">
      <g>
       <use xlink:href="#ma5a874c0fd" x="193.012737" y="783.36" style="stroke: #000000; stroke-width: 0.8"/>
      </g>
     </g>
     <g id="text_2">
      <!-- 2022-05-11 -->
      <g transform="translate(163.954925 797.958437) scale(0.1 -0.1)">
       <defs>
        <path id="DejaVuSans-31" d="M 794 531 
L 1825 531 
L 1825 4091 
L 703 3866 
L 703 4441 
L 1819 4666 
L 2450 4666 
L 2450 531 
L 3481 531 
L 3481 0 
L 794 0 
L 794 531 
z
" transform="scale(0.015625)"/>
       </defs>
       <use xlink:href="#DejaVuSans-32"/>
       <use xlink:href="#DejaVuSans-30" x="63.623047"/>
       <use xlink:href="#DejaVuSans-32" x="127.246094"/>
       <use xlink:href="#DejaVuSans-32" x="190.869141"/>
       <use xlink:href="#DejaVuSans-2d" x="254.492188"/>
       <use xlink:href="#DejaVuSans-30" x="290.576172"/>
       <use xlink:href="#DejaVuSans-35" x="354.199219"/>
       <use xlink:href="#DejaVuSans-2d" x="417.822266"/>
       <use xlink:href="#DejaVuSans-31" x="453.90625"/>
       <use xlink:href="#DejaVuSans-31" x="517.529297"/>
      </g>
     </g>
    </g>
    <g id="xtick_3">
     <g id="line2d_5">
      <path d="M 315.809927 783.36 
L 315.809927 7.2 
" clip-path="url(#p26f393fa64)" style="fill: none; stroke: #b0b0b0; stroke-width: 0.8; stroke-linecap: square"/>
     </g>
     <g id="line2d_6">
      <g>
       <use xlink:href="#ma5a874c0fd" x="315.809927" y="783.36" style="stroke: #000000; stroke-width: 0.8"/>
      </g>
     </g>
     <g id="text_3">
      <!-- 2022-05-13 -->
      <g transform="translate(286.752115 797.958437) scale(0.1 -0.1)">
       <defs>
        <path id="DejaVuSans-33" d="M 2597 2516 
Q 3050 2419 3304 2112 
Q 3559 1806 3559 1356 
Q 3559 666 3084 287 
Q 2609 -91 1734 -91 
Q 1441 -91 1130 -33 
Q 819 25 488 141 
L 488 750 
Q 750 597 1062 519 
Q 1375 441 1716 441 
Q 2309 441 2620 675 
Q 2931 909 2931 1356 
Q 2931 1769 2642 2001 
Q 2353 2234 1838 2234 
L 1294 2234 
L 1294 2753 
L 1863 2753 
Q 2328 2753 2575 2939 
Q 2822 3125 2822 3475 
Q 2822 3834 2567 4026 
Q 2313 4219 1838 4219 
Q 1578 4219 1281 4162 
Q 984 4106 628 3988 
L 628 4550 
Q 988 4650 1302 4700 
Q 1616 4750 1894 4750 
Q 2613 4750 3031 4423 
Q 3450 4097 3450 3541 
Q 3450 3153 3228 2886 
Q 3006 2619 2597 2516 
z
" transform="scale(0.015625)"/>
       </defs>
       <use xlink:href="#DejaVuSans-32"/>
       <use xlink:href="#DejaVuSans-30" x="63.623047"/>
       <use xlink:href="#DejaVuSans-32" x="127.246094"/>
       <use xlink:href="#DejaVuSans-32" x="190.869141"/>
       <use xlink:href="#DejaVuSans-2d" x="254.492188"/>
       <use xlink:href="#DejaVuSans-30" x="290.576172"/>
       <use xlink:href="#DejaVuSans-35" x="354.199219"/>
       <use xlink:href="#DejaVuSans-2d" x="417.822266"/>
       <use xlink:href="#DejaVuSans-31" x="453.90625"/>
       <use xlink:href="#DejaVuSans-33" x="517.529297"/>
      </g>
     </g>
    </g>
    <g id="xtick_4">
     <g id="line2d_7">
      <path d="M 438.607117 783.36 
L 438.607117 7.2 
" clip-path="url(#p26f393fa64)" style="fill: none; stroke: #b0b0b0; stroke-width: 0.8; stroke-linecap: square"/>
     </g>
     <g id="line2d_8">
      <g>
       <use xlink:href="#ma5a874c0fd" x="438.607117" y="783.36" style="stroke: #000000; stroke-width: 0.8"/>
      </g>
     </g>
     <g id="text_4">
      <!-- 2022-05-15 -->
      <g transform="translate(409.549304 797.958437) scale(0.1 -0.1)">
       <use xlink:href="#DejaVuSans-32"/>
       <use xlink:href="#DejaVuSans-30" x="63.623047"/>
       <use xlink:href="#DejaVuSans-32" x="127.246094"/>
       <use xlink:href="#DejaVuSans-32" x="190.869141"/>
       <use xlink:href="#DejaVuSans-2d" x="254.492188"/>
       <use xlink:href="#DejaVuSans-30" x="290.576172"/>
       <use xlink:href="#DejaVuSans-35" x="354.199219"/>
       <use xlink:href="#DejaVuSans-2d" x="417.822266"/>
       <use xlink:href="#DejaVuSans-31" x="453.90625"/>
       <use xlink:href="#DejaVuSans-35" x="517.529297"/>
      </g>
     </g>
    </g>
    <g id="xtick_5">
     <g id="line2d_9">
      <path d="M 561.404307 783.36 
L 561.404307 7.2 
" clip-path="url(#p26f393fa64)" style="fill: none; stroke: #b0b0b0; stroke-width: 0.8; stroke-linecap: square"/>
     </g>
     <g id="line2d_10">
      <g>
       <use xlink:href="#ma5a874c0fd" x="561.404307" y="783.36" style="stroke: #000000; stroke-width: 0.8"/>
      </g>
     </g>
     <g id="text_5">
      <!-- 2022-05-17 -->
      <g transform="translate(532.346494 797.958437) scale(0.1 -0.1)">
       <defs>
        <path id="DejaVuSans-37" d="M 525 4666 
L 3525 4666 
L 3525 4397 
L 1831 0 
L 1172 0 
L 2766 4134 
L 525 4134 
L 525 4666 
z
" transform="scale(0.015625)"/>
       </defs>
       <use xlink:href="#DejaVuSans-32"/>
       <use xlink:href="#DejaVuSans-30" x="63.623047"/>
       <use xlink:href="#DejaVuSans-32" x="127.246094"/>
       <use xlink:href="#DejaVuSans-32" x="190.869141"/>
       <use xlink:href="#DejaVuSans-2d" x="254.492188"/>
       <use xlink:href="#DejaVuSans-30" x="290.576172"/>
       <use xlink:href="#DejaVuSans-35" x="354.199219"/>
       <use xlink:href="#DejaVuSans-2d" x="417.822266"/>
       <use xlink:href="#DejaVuSans-31" x="453.90625"/>
       <use xlink:href="#DejaVuSans-37" x="517.529297"/>
      </g>
     </g>
    </g>
    <g id="xtick_6">
     <g id="line2d_11">
      <path d="M 684.201496 783.36 
L 684.201496 7.2 
" clip-path="url(#p26f393fa64)" style="fill: none; stroke: #b0b0b0; stroke-width: 0.8; stroke-linecap: square"/>
     </g>
     <g id="line2d_12">
      <g>
       <use xlink:href="#ma5a874c0fd" x="684.201496" y="783.36" style="stroke: #000000; stroke-width: 0.8"/>
      </g>
     </g>
     <g id="text_6">
      <!-- 2022-05-19 -->
      <g transform="translate(655.143684 797.958437) scale(0.1 -0.1)">
       <use xlink:href="#DejaVuSans-32"/>
       <use xlink:href="#DejaVuSans-30" x="63.623047"/>
       <use xlink:href="#DejaVuSans-32" x="127.246094"/>
       <use xlink:href="#DejaVuSans-32" x="190.869141"/>
       <use xlink:href="#DejaVuSans-2d" x="254.492188"/>
       <use xlink:href="#DejaVuSans-30" x="290.576172"/>
       <use xlink:href="#DejaVuSans-35" x="354.199219"/>
       <use xlink:href="#DejaVuSans-2d" x="417.822266"/>
       <use xlink:href="#DejaVuSans-31" x="453.90625"/>
       <use xlink:href="#DejaVuSans-39" x="517.529297"/>
      </g>
     </g>
    </g>
    <g id="xtick_7">
     <g id="line2d_13">
      <path d="M 806.998686 783.36 
L 806.998686 7.2 
" clip-path="url(#p26f393fa64)" style="fill: none; stroke: #b0b0b0; stroke-width: 0.8; stroke-linecap: square"/>
     </g>
     <g id="line2d_14">
      <g>
       <use xlink:href="#ma5a874c0fd" x="806.998686" y="783.36" style="stroke: #000000; stroke-width: 0.8"/>
      </g>
     </g>
     <g id="text_7">
      <!-- 2022-05-21 -->
      <g transform="translate(777.940874 797.958437) scale(0.1 -0.1)">
       <use xlink:href="#DejaVuSans-32"/>
       <use xlink:href="#DejaVuSans-30" x="63.623047"/>
       <use xlink:href="#DejaVuSans-32" x="127.246094"/>
       <use xlink:href="#DejaVuSans-32" x="190.869141"/>
       <use xlink:href="#DejaVuSans-2d" x="254.492188"/>
       <use xlink:href="#DejaVuSans-30" x="290.576172"/>
       <use xlink:href="#DejaVuSans-35" x="354.199219"/>
       <use xlink:href="#DejaVuSans-2d" x="417.822266"/>
       <use xlink:href="#DejaVuSans-32" x="453.90625"/>
       <use xlink:href="#DejaVuSans-31" x="517.529297"/>
      </g>
     </g>
    </g>
    <g id="xtick_8">
     <g id="line2d_15">
      <path d="M 929.795876 783.36 
L 929.795876 7.2 
" clip-path="url(#p26f393fa64)" style="fill: none; stroke: #b0b0b0; stroke-width: 0.8; stroke-linecap: square"/>
     </g>
     <g id="line2d_16">
      <g>
       <use xlink:href="#ma5a874c0fd" x="929.795876" y="783.36" style="stroke: #000000; stroke-width: 0.8"/>
      </g>
     </g>
     <g id="text_8">
      <!-- 2022-05-23 -->
      <g transform="translate(900.738063 797.958437) scale(0.1 -0.1)">
       <use xlink:href="#DejaVuSans-32"/>
       <use xlink:href="#DejaVuSans-30" x="63.623047"/>
       <use xlink:href="#DejaVuSans-32" x="127.246094"/>
       <use xlink:href="#DejaVuSans-32" x="190.869141"/>
       <use xlink:href="#DejaVuSans-2d" x="254.492188"/>
       <use xlink:href="#DejaVuSans-30" x="290.576172"/>
       <use xlink:href="#DejaVuSans-35" x="354.199219"/>
       <use xlink:href="#DejaVuSans-2d" x="417.822266"/>
       <use xlink:href="#DejaVuSans-32" x="453.90625"/>
       <use xlink:href="#DejaVuSans-33" x="517.529297"/>
      </g>
     </g>
    </g>
    <g id="xtick_9">
     <g id="line2d_17">
      <path d="M 1052.593065 783.36 
L 1052.593065 7.2 
" clip-path="url(#p26f393fa64)" style="fill: none; stroke: #b0b0b0; stroke-width: 0.8; stroke-linecap: square"/>
     </g>
     <g id="line2d_18">
      <g>
       <use xlink:href="#ma5a874c0fd" x="1052.593065" y="783.36" style="stroke: #000000; stroke-width: 0.8"/>
      </g>
     </g>
     <g id="text_9">
      <!-- 2022-05-25 -->
      <g transform="translate(1023.535253 797.958437) scale(0.1 -0.1)">
       <use xlink:href="#DejaVuSans-32"/>
       <use xlink:href="#DejaVuSans-30" x="63.623047"/>
       <use xlink:href="#DejaVuSans-32" x="127.246094"/>
       <use xlink:href="#DejaVuSans-32" x="190.869141"/>
       <use xlink:href="#DejaVuSans-2d" x="254.492188"/>
       <use xlink:href="#DejaVuSans-30" x="290.576172"/>
       <use xlink:href="#DejaVuSans-35" x="354.199219"/>
       <use xlink:href="#DejaVuSans-2d" x="417.822266"/>
       <use xlink:href="#DejaVuSans-32" x="453.90625"/>
       <use xlink:href="#DejaVuSans-35" x="517.529297"/>
      </g>
     </g>
    </g>
    <g id="text_10">
     <!-- Date -->
     <g transform="translate(540.392969 811.636562) scale(0.1 -0.1)">
      <defs>
       <path id="DejaVuSans-44" d="M 1259 4147 
L 1259 519 
L 2022 519 
Q 2988 519 3436 956 
Q 3884 1394 3884 2338 
Q 3884 3275 3436 3711 
Q 2988 4147 2022 4147 
L 1259 4147 
z
M 628 4666 
L 1925 4666 
Q 3281 4666 3915 4102 
Q 4550 3538 4550 2338 
Q 4550 1131 3912 565 
Q 3275 0 1925 0 
L 628 0 
L 628 4666 
z
" transform="scale(0.015625)"/>
       <path id="DejaVuSans-61" d="M 2194 1759 
Q 1497 1759 1228 1600 
Q 959 1441 959 1056 
Q 959 750 1161 570 
Q 1363 391 1709 391 
Q 2188 391 2477 730 
Q 2766 1069 2766 1631 
L 2766 1759 
L 2194 1759 
z
M 3341 1997 
L 3341 0 
L 2766 0 
L 2766 531 
Q 2569 213 2275 61 
Q 1981 -91 1556 -91 
Q 1019 -91 701 211 
Q 384 513 384 1019 
Q 384 1609 779 1909 
Q 1175 2209 1959 2209 
L 2766 2209 
L 2766 2266 
Q 2766 2663 2505 2880 
Q 2244 3097 1772 3097 
Q 1472 3097 1187 3025 
Q 903 2953 641 2809 
L 641 3341 
Q 956 3463 1253 3523 
Q 1550 3584 1831 3584 
Q 2591 3584 2966 3190 
Q 3341 2797 3341 1997 
z
" transform="scale(0.015625)"/>
       <path id="DejaVuSans-74" d="M 1172 4494 
L 1172 3500 
L 2356 3500 
L 2356 3053 
L 1172 3053 
L 1172 1153 
Q 1172 725 1289 603 
Q 1406 481 1766 481 
L 2356 481 
L 2356 0 
L 1766 0 
Q 1100 0 847 248 
Q 594 497 594 1153 
L 594 3053 
L 172 3053 
L 172 3500 
L 594 3500 
L 594 4494 
L 1172 4494 
z
" transform="scale(0.015625)"/>
       <path id="DejaVuSans-65" d="M 3597 1894 
L 3597 1613 
L 953 1613 
Q 991 1019 1311 708 
Q 1631 397 2203 397 
Q 2534 397 2845 478 
Q 3156 559 3463 722 
L 3463 178 
Q 3153 47 2828 -22 
Q 2503 -91 2169 -91 
Q 1331 -91 842 396 
Q 353 884 353 1716 
Q 353 2575 817 3079 
Q 1281 3584 2069 3584 
Q 2775 3584 3186 3129 
Q 3597 2675 3597 1894 
z
M 3022 2063 
Q 3016 2534 2758 2815 
Q 2500 3097 2075 3097 
Q 1594 3097 1305 2825 
Q 1016 2553 972 2059 
L 3022 2063 
z
" transform="scale(0.015625)"/>
      </defs>
      <use xlink:href="#DejaVuSans-44"/>
      <use xlink:href="#DejaVuSans-61" x="77.001953"/>
      <use xlink:href="#DejaVuSans-74" x="138.28125"/>
      <use xlink:href="#DejaVuSans-65" x="177.490234"/>
     </g>
    </g>
   </g>
   <g id="matplotlib.axis_2">
    <g id="ytick_1">
     <g id="line2d_19">
      <path d="M 50.14375 748.08 
L 1054.54375 748.08 
" clip-path="url(#p26f393fa64)" style="fill: none; stroke: #b0b0b0; stroke-width: 0.8; stroke-linecap: square"/>
     </g>
     <g id="line2d_20">
      <defs>
       <path id="m5a4dd7a71a" d="M 0 0 
L -3.5 0 
" style="stroke: #000000; stroke-width: 0.8"/>
      </defs>
      <g>
       <use xlink:href="#m5a4dd7a71a" x="50.14375" y="748.08" style="stroke: #000000; stroke-width: 0.8"/>
      </g>
     </g>
     <g id="text_11">
      <!-- 0.0 -->
      <g transform="translate(27.240625 751.879219) scale(0.1 -0.1)">
       <defs>
        <path id="DejaVuSans-2e" d="M 684 794 
L 1344 794 
L 1344 0 
L 684 0 
L 684 794 
z
" transform="scale(0.015625)"/>
       </defs>
       <use xlink:href="#DejaVuSans-30"/>
       <use xlink:href="#DejaVuSans-2e" x="63.623047"/>
       <use xlink:href="#DejaVuSans-30" x="95.410156"/>
      </g>
     </g>
    </g>
    <g id="ytick_2">
     <g id="line2d_21">
      <path d="M 50.14375 644.315294 
L 1054.54375 644.315294 
" clip-path="url(#p26f393fa64)" style="fill: none; stroke: #b0b0b0; stroke-width: 0.8; stroke-linecap: square"/>
     </g>
     <g id="line2d_22">
      <g>
       <use xlink:href="#m5a4dd7a71a" x="50.14375" y="644.315294" style="stroke: #000000; stroke-width: 0.8"/>
      </g>
     </g>
     <g id="text_12">
      <!-- 2.5 -->
      <g transform="translate(27.240625 648.114513) scale(0.1 -0.1)">
       <use xlink:href="#DejaVuSans-32"/>
       <use xlink:href="#DejaVuSans-2e" x="63.623047"/>
       <use xlink:href="#DejaVuSans-35" x="95.410156"/>
      </g>
     </g>
    </g>
    <g id="ytick_3">
     <g id="line2d_23">
      <path d="M 50.14375 540.550588 
L 1054.54375 540.550588 
" clip-path="url(#p26f393fa64)" style="fill: none; stroke: #b0b0b0; stroke-width: 0.8; stroke-linecap: square"/>
     </g>
     <g id="line2d_24">
      <g>
       <use xlink:href="#m5a4dd7a71a" x="50.14375" y="540.550588" style="stroke: #000000; stroke-width: 0.8"/>
      </g>
     </g>
     <g id="text_13">
      <!-- 5.0 -->
      <g transform="translate(27.240625 544.349807) scale(0.1 -0.1)">
       <use xlink:href="#DejaVuSans-35"/>
       <use xlink:href="#DejaVuSans-2e" x="63.623047"/>
       <use xlink:href="#DejaVuSans-30" x="95.410156"/>
      </g>
     </g>
    </g>
    <g id="ytick_4">
     <g id="line2d_25">
      <path d="M 50.14375 436.785882 
L 1054.54375 436.785882 
" clip-path="url(#p26f393fa64)" style="fill: none; stroke: #b0b0b0; stroke-width: 0.8; stroke-linecap: square"/>
     </g>
     <g id="line2d_26">
      <g>
       <use xlink:href="#m5a4dd7a71a" x="50.14375" y="436.785882" style="stroke: #000000; stroke-width: 0.8"/>
      </g>
     </g>
     <g id="text_14">
      <!-- 7.5 -->
      <g transform="translate(27.240625 440.585101) scale(0.1 -0.1)">
       <use xlink:href="#DejaVuSans-37"/>
       <use xlink:href="#DejaVuSans-2e" x="63.623047"/>
       <use xlink:href="#DejaVuSans-35" x="95.410156"/>
      </g>
     </g>
    </g>
    <g id="ytick_5">
     <g id="line2d_27">
      <path d="M 50.14375 333.021176 
L 1054.54375 333.021176 
" clip-path="url(#p26f393fa64)" style="fill: none; stroke: #b0b0b0; stroke-width: 0.8; stroke-linecap: square"/>
     </g>
     <g id="line2d_28">
      <g>
       <use xlink:href="#m5a4dd7a71a" x="50.14375" y="333.021176" style="stroke: #000000; stroke-width: 0.8"/>
      </g>
     </g>
     <g id="text_15">
      <!-- 10.0 -->
      <g transform="translate(20.878125 336.820395) scale(0.1 -0.1)">
       <use xlink:href="#DejaVuSans-31"/>
       <use xlink:href="#DejaVuSans-30" x="63.623047"/>
       <use xlink:href="#DejaVuSans-2e" x="127.246094"/>
       <use xlink:href="#DejaVuSans-30" x="159.033203"/>
      </g>
     </g>
    </g>
    <g id="ytick_6">
     <g id="line2d_29">
      <path d="M 50.14375 229.256471 
L 1054.54375 229.256471 
" clip-path="url(#p26f393fa64)" style="fill: none; stroke: #b0b0b0; stroke-width: 0.8; stroke-linecap: square"/>
     </g>
     <g id="line2d_30">
      <g>
       <use xlink:href="#m5a4dd7a71a" x="50.14375" y="229.256471" style="stroke: #000000; stroke-width: 0.8"/>
      </g>
     </g>
     <g id="text_16">
      <!-- 12.5 -->
      <g transform="translate(20.878125 233.055689) scale(0.1 -0.1)">
       <use xlink:href="#DejaVuSans-31"/>
       <use xlink:href="#DejaVuSans-32" x="63.623047"/>
       <use xlink:href="#DejaVuSans-2e" x="127.246094"/>
       <use xlink:href="#DejaVuSans-35" x="159.033203"/>
      </g>
     </g>
    </g>
    <g id="ytick_7">
     <g id="line2d_31">
      <path d="M 50.14375 125.491765 
L 1054.54375 125.491765 
" clip-path="url(#p26f393fa64)" style="fill: none; stroke: #b0b0b0; stroke-width: 0.8; stroke-linecap: square"/>
     </g>
     <g id="line2d_32">
      <g>
       <use xlink:href="#m5a4dd7a71a" x="50.14375" y="125.491765" style="stroke: #000000; stroke-width: 0.8"/>
      </g>
     </g>
     <g id="text_17">
      <!-- 15.0 -->
      <g transform="translate(20.878125 129.290983) scale(0.1 -0.1)">
       <use xlink:href="#DejaVuSans-31"/>
       <use xlink:href="#DejaVuSans-35" x="63.623047"/>
       <use xlink:href="#DejaVuSans-2e" x="127.246094"/>
       <use xlink:href="#DejaVuSans-30" x="159.033203"/>
      </g>
     </g>
    </g>
    <g id="ytick_8">
     <g id="line2d_33">
      <path d="M 50.14375 21.727059 
L 1054.54375 21.727059 
" clip-path="url(#p26f393fa64)" style="fill: none; stroke: #b0b0b0; stroke-width: 0.8; stroke-linecap: square"/>
     </g>
     <g id="line2d_34">
      <g>
       <use xlink:href="#m5a4dd7a71a" x="50.14375" y="21.727059" style="stroke: #000000; stroke-width: 0.8"/>
      </g>
     </g>
     <g id="text_18">
      <!-- 17.5 -->
      <g transform="translate(20.878125 25.526278) scale(0.1 -0.1)">
       <use xlink:href="#DejaVuSans-31"/>
       <use xlink:href="#DejaVuSans-37" x="63.623047"/>
       <use xlink:href="#DejaVuSans-2e" x="127.246094"/>
       <use xlink:href="#DejaVuSans-35" x="159.033203"/>
      </g>
     </g>
    </g>
    <g id="text_19">
     <!-- Vehicles -->
     <g transform="translate(14.798438 415.766719) rotate(-90) scale(0.1 -0.1)">
      <defs>
       <path id="DejaVuSans-56" d="M 1831 0 
L 50 4666 
L 709 4666 
L 2188 738 
L 3669 4666 
L 4325 4666 
L 2547 0 
L 1831 0 
z
" transform="scale(0.015625)"/>
       <path id="DejaVuSans-68" d="M 3513 2113 
L 3513 0 
L 2938 0 
L 2938 2094 
Q 2938 2591 2744 2837 
Q 2550 3084 2163 3084 
Q 1697 3084 1428 2787 
Q 1159 2491 1159 1978 
L 1159 0 
L 581 0 
L 581 4863 
L 1159 4863 
L 1159 2956 
Q 1366 3272 1645 3428 
Q 1925 3584 2291 3584 
Q 2894 3584 3203 3211 
Q 3513 2838 3513 2113 
z
" transform="scale(0.015625)"/>
       <path id="DejaVuSans-69" d="M 603 3500 
L 1178 3500 
L 1178 0 
L 603 0 
L 603 3500 
z
M 603 4863 
L 1178 4863 
L 1178 4134 
L 603 4134 
L 603 4863 
z
" transform="scale(0.015625)"/>
       <path id="DejaVuSans-63" d="M 3122 3366 
L 3122 2828 
Q 2878 2963 2633 3030 
Q 2388 3097 2138 3097 
Q 1578 3097 1268 2742 
Q 959 2388 959 1747 
Q 959 1106 1268 751 
Q 1578 397 2138 397 
Q 2388 397 2633 464 
Q 2878 531 3122 666 
L 3122 134 
Q 2881 22 2623 -34 
Q 2366 -91 2075 -91 
Q 1284 -91 818 406 
Q 353 903 353 1747 
Q 353 2603 823 3093 
Q 1294 3584 2113 3584 
Q 2378 3584 2631 3529 
Q 2884 3475 3122 3366 
z
" transform="scale(0.015625)"/>
       <path id="DejaVuSans-6c" d="M 603 4863 
L 1178 4863 
L 1178 0 
L 603 0 
L 603 4863 
z
" transform="scale(0.015625)"/>
       <path id="DejaVuSans-73" d="M 2834 3397 
L 2834 2853 
Q 2591 2978 2328 3040 
Q 2066 3103 1784 3103 
Q 1356 3103 1142 2972 
Q 928 2841 928 2578 
Q 928 2378 1081 2264 
Q 1234 2150 1697 2047 
L 1894 2003 
Q 2506 1872 2764 1633 
Q 3022 1394 3022 966 
Q 3022 478 2636 193 
Q 2250 -91 1575 -91 
Q 1294 -91 989 -36 
Q 684 19 347 128 
L 347 722 
Q 666 556 975 473 
Q 1284 391 1588 391 
Q 1994 391 2212 530 
Q 2431 669 2431 922 
Q 2431 1156 2273 1281 
Q 2116 1406 1581 1522 
L 1381 1569 
Q 847 1681 609 1914 
Q 372 2147 372 2553 
Q 372 3047 722 3315 
Q 1072 3584 1716 3584 
Q 2034 3584 2315 3537 
Q 2597 3491 2834 3397 
z
" transform="scale(0.015625)"/>
      </defs>
      <use xlink:href="#DejaVuSans-56"/>
      <use xlink:href="#DejaVuSans-65" x="60.658203"/>
      <use xlink:href="#DejaVuSans-68" x="122.181641"/>
      <use xlink:href="#DejaVuSans-69" x="185.560547"/>
      <use xlink:href="#DejaVuSans-63" x="213.34375"/>
      <use xlink:href="#DejaVuSans-6c" x="268.324219"/>
      <use xlink:href="#DejaVuSans-65" x="296.107422"/>
      <use xlink:href="#DejaVuSans-73" x="357.630859"/>
     </g>
    </g>
   </g>
   <g id="line2d_35">
    <path d="M 95.798295 291.515294 
L 96.011485 374.527059 
L 96.437864 374.527059 
L 96.651054 416.032941 
L 96.864243 374.527059 
L 97.077433 416.032941 
L 97.290622 374.527059 
L 97.503812 457.538824 
L 97.717002 333.021176 
L 98.143381 333.021176 
L 98.35657 374.527059 
L 98.56976 374.527059 
L 98.782949 333.021176 
L 99.209329 333.021176 
L 99.635708 250.009412 
L 100.062087 416.032941 
L 100.275276 374.527059 
L 100.488466 291.515294 
L 100.701655 416.032941 
L 100.914845 333.021176 
L 101.128035 374.527059 
L 101.767603 374.527059 
L 101.980793 333.021176 
L 102.193982 374.527059 
L 102.407172 374.527059 
L 102.620362 333.021176 
L 102.833551 333.021176 
L 103.046741 457.538824 
L 103.47312 457.538824 
L 103.686309 374.527059 
L 104.112689 374.527059 
L 104.325878 416.032941 
L 104.965447 416.032941 
L 105.178636 374.527059 
L 105.605015 208.503529 
L 106.031395 208.503529 
L 106.244584 333.021176 
L 106.884153 208.503529 
L 107.097342 291.515294 
L 107.310532 291.515294 
L 107.523722 250.009412 
L 107.736911 166.997647 
L 108.16329 416.032941 
L 108.589669 416.032941 
L 108.802859 457.538824 
L 109.229238 374.527059 
L 109.442428 374.527059 
L 109.655617 416.032941 
L 109.868807 416.032941 
L 110.081996 457.538824 
L 110.295186 416.032941 
L 110.508375 457.538824 
L 110.721565 374.527059 
L 110.934755 457.538824 
L 111.147944 457.538824 
L 111.361134 416.032941 
L 111.574323 250.009412 
L 112.213892 457.538824 
L 112.640271 457.538824 
L 112.853461 499.044706 
L 113.06665 457.538824 
L 113.27984 540.550588 
L 113.493029 540.550588 
L 113.706219 582.056471 
L 113.919409 499.044706 
L 114.132598 499.044706 
L 114.345788 540.550588 
L 114.558977 499.044706 
L 114.772167 582.056471 
L 114.985356 499.044706 
L 115.198546 582.056471 
L 115.411735 582.056471 
L 115.624925 540.550588 
L 115.838115 623.562353 
L 116.264494 623.562353 
L 116.690873 540.550588 
L 116.904062 540.550588 
L 117.117252 582.056471 
L 117.330442 540.550588 
L 117.543631 457.538824 
L 117.756821 457.538824 
L 117.97001 416.032941 
L 118.1832 457.538824 
L 118.396389 457.538824 
L 118.609579 416.032941 
L 118.822769 416.032941 
L 119.035958 457.538824 
L 119.249148 457.538824 
L 119.462337 416.032941 
L 119.675527 457.538824 
L 119.888716 540.550588 
L 120.101906 540.550588 
L 120.315095 582.056471 
L 120.741475 582.056471 
L 120.954664 623.562353 
L 121.167854 623.562353 
L 121.381043 582.056471 
L 121.594233 623.562353 
L 121.807422 623.562353 
L 122.020612 665.068235 
L 122.233802 665.068235 
L 122.446991 623.562353 
L 122.660181 665.068235 
L 122.87337 623.562353 
L 123.08656 665.068235 
L 123.939318 665.068235 
L 124.152508 706.574118 
L 124.792076 706.574118 
L 125.005266 665.068235 
L 125.218455 706.574118 
L 125.431645 706.574118 
L 125.644835 665.068235 
L 125.858024 665.068235 
L 126.071214 706.574118 
L 127.77673 706.574118 
L 127.98992 748.08 
L 128.203109 706.574118 
L 129.055868 706.574118 
L 129.269057 748.08 
L 129.482247 706.574118 
L 129.695436 748.08 
L 129.908626 706.574118 
L 130.121816 748.08 
L 132.040522 748.08 
L 132.253711 706.574118 
L 132.466901 748.08 
L 136.091123 748.08 
L 136.304313 706.574118 
L 136.517502 748.08 
L 137.157071 748.08 
L 137.370261 706.574118 
L 137.58345 748.08 
L 137.79664 748.08 
L 138.009829 706.574118 
L 138.223019 706.574118 
L 138.436209 748.08 
L 139.715346 748.08 
L 139.928536 706.574118 
L 140.994483 706.574118 
L 141.207673 665.068235 
L 141.847242 665.068235 
L 142.060431 706.574118 
L 143.339569 706.574118 
L 143.765948 623.562353 
L 144.405516 623.562353 
L 144.618706 582.056471 
L 144.831896 582.056471 
L 145.258275 457.538824 
L 145.471464 416.032941 
L 145.684654 457.538824 
L 145.897843 374.527059 
L 146.111033 416.032941 
L 146.537412 333.021176 
L 146.750602 374.527059 
L 146.963791 333.021176 
L 147.176981 416.032941 
L 147.39017 416.032941 
L 147.60336 333.021176 
L 147.816549 374.527059 
L 148.242929 540.550588 
L 148.669308 457.538824 
L 149.095687 457.538824 
L 149.308876 499.044706 
L 149.522066 499.044706 
L 149.735256 416.032941 
L 150.161635 416.032941 
L 150.374824 208.503529 
L 150.588014 166.997647 
L 150.801203 166.997647 
L 151.227582 416.032941 
L 151.653962 416.032941 
L 151.867151 333.021176 
L 152.29353 416.032941 
L 152.719909 333.021176 
L 152.933099 374.527059 
L 153.146289 374.527059 
L 153.359478 416.032941 
L 153.572668 291.515294 
L 153.785857 374.527059 
L 153.999047 333.021176 
L 154.212236 333.021176 
L 154.425426 374.527059 
L 154.638616 333.021176 
L 154.851805 374.527059 
L 155.064995 333.021176 
L 155.278184 374.527059 
L 155.491374 333.021176 
L 155.704563 333.021176 
L 155.917753 374.527059 
L 156.130942 291.515294 
L 156.344132 333.021176 
L 156.557322 333.021176 
L 156.770511 291.515294 
L 156.983701 333.021176 
L 157.19689 333.021176 
L 157.41008 416.032941 
L 157.623269 374.527059 
L 157.836459 250.009412 
L 158.049649 291.515294 
L 158.262838 291.515294 
L 158.476028 333.021176 
L 158.689217 250.009412 
L 158.902407 291.515294 
L 159.328786 291.515294 
L 159.541976 374.527059 
L 159.755165 291.515294 
L 159.968355 374.527059 
L 160.181544 374.527059 
L 160.394734 333.021176 
L 160.607923 374.527059 
L 160.821113 374.527059 
L 161.034303 250.009412 
L 161.247492 416.032941 
L 161.460682 250.009412 
L 161.887061 333.021176 
L 162.10025 125.491765 
L 162.31344 42.48 
L 162.526629 83.985882 
L 162.739819 291.515294 
L 162.953009 250.009412 
L 163.166198 291.515294 
L 163.379388 208.503529 
L 163.592577 333.021176 
L 163.805767 333.021176 
L 164.445336 208.503529 
L 164.658525 333.021176 
L 164.871715 333.021176 
L 165.084904 250.009412 
L 165.724473 374.527059 
L 166.150852 374.527059 
L 166.364042 333.021176 
L 166.577231 333.021176 
L 166.790421 291.515294 
L 167.00361 208.503529 
L 167.2168 333.021176 
L 167.429989 374.527059 
L 167.643179 333.021176 
L 167.856369 333.021176 
L 168.069558 250.009412 
L 168.282748 333.021176 
L 168.495937 291.515294 
L 168.709127 333.021176 
L 168.922316 291.515294 
L 169.135506 291.515294 
L 169.348696 208.503529 
L 169.561885 291.515294 
L 169.775075 250.009412 
L 170.201454 333.021176 
L 170.414643 333.021176 
L 170.627833 291.515294 
L 170.841023 333.021176 
L 171.054212 291.515294 
L 171.267402 333.021176 
L 171.90697 333.021176 
L 172.12016 416.032941 
L 172.546539 333.021176 
L 172.759729 333.021176 
L 172.972918 374.527059 
L 173.186108 457.538824 
L 173.399297 374.527059 
L 173.825676 374.527059 
L 174.038866 416.032941 
L 174.465245 333.021176 
L 174.678435 333.021176 
L 174.891624 416.032941 
L 175.104814 374.527059 
L 175.531193 457.538824 
L 175.744383 416.032941 
L 175.957572 499.044706 
L 176.170762 499.044706 
L 176.383951 540.550588 
L 176.597141 499.044706 
L 176.81033 623.562353 
L 177.02352 665.068235 
L 177.236709 665.068235 
L 177.449899 457.538824 
L 177.663089 540.550588 
L 177.876278 499.044706 
L 178.089468 499.044706 
L 178.302657 540.550588 
L 178.515847 499.044706 
L 178.729036 499.044706 
L 179.155416 250.009412 
L 179.368605 333.021176 
L 179.581795 291.515294 
L 180.221363 416.032941 
L 180.647743 416.032941 
L 180.860932 457.538824 
L 181.074122 457.538824 
L 181.287311 499.044706 
L 181.500501 582.056471 
L 181.71369 540.550588 
L 181.92688 623.562353 
L 182.140069 582.056471 
L 182.353259 582.056471 
L 182.566449 623.562353 
L 182.779638 623.562353 
L 182.992828 582.056471 
L 183.206017 582.056471 
L 183.419207 623.562353 
L 183.632396 582.056471 
L 183.845586 623.562353 
L 184.058776 582.056471 
L 184.271965 623.562353 
L 184.911534 623.562353 
L 185.124723 665.068235 
L 185.337913 665.068235 
L 185.551103 623.562353 
L 186.190671 623.562353 
L 186.403861 665.068235 
L 186.61705 623.562353 
L 186.83024 623.562353 
L 187.043429 665.068235 
L 187.256619 623.562353 
L 187.469809 706.574118 
L 187.682998 665.068235 
L 187.896188 706.574118 
L 188.109377 706.574118 
L 188.322567 665.068235 
L 188.535756 706.574118 
L 188.748946 706.574118 
L 188.962136 665.068235 
L 189.175325 665.068235 
L 189.388515 706.574118 
L 189.601704 665.068235 
L 189.814894 706.574118 
L 190.028083 706.574118 
L 190.241273 748.08 
L 190.454463 665.068235 
L 190.880842 748.08 
L 191.094031 665.068235 
L 191.307221 706.574118 
L 192.159979 706.574118 
L 192.373169 748.08 
L 192.799548 748.08 
L 193.012737 706.574118 
L 193.225927 748.08 
L 193.439116 748.08 
L 193.652306 706.574118 
L 193.865496 706.574118 
L 194.078685 748.08 
L 194.291875 706.574118 
L 194.505064 748.08 
L 194.718254 706.574118 
L 194.931443 748.08 
L 196.42377 748.08 
L 196.63696 706.574118 
L 196.85015 706.574118 
L 197.063339 748.08 
L 197.489718 748.08 
L 197.702908 706.574118 
L 197.916097 748.08 
L 198.129287 748.08 
L 198.342476 706.574118 
L 198.555666 706.574118 
L 198.768856 748.08 
L 200.047993 748.08 
L 200.261183 706.574118 
L 201.32713 706.574118 
L 201.54032 748.08 
L 201.966699 665.068235 
L 202.179889 706.574118 
L 202.393078 706.574118 
L 202.606268 748.08 
L 203.032647 748.08 
L 203.245836 706.574118 
L 203.672216 706.574118 
L 203.885405 665.068235 
L 204.098595 706.574118 
L 204.311784 665.068235 
L 204.738163 665.068235 
L 205.164543 540.550588 
L 205.377732 623.562353 
L 205.590922 540.550588 
L 205.804111 582.056471 
L 206.017301 540.550588 
L 206.44368 416.032941 
L 206.65687 457.538824 
L 207.083249 333.021176 
L 207.296438 333.021176 
L 207.509628 250.009412 
L 207.722817 250.009412 
L 207.936007 208.503529 
L 208.149196 83.985882 
L 208.362386 166.997647 
L 208.788765 416.032941 
L 209.001955 291.515294 
L 209.428334 416.032941 
L 209.641523 457.538824 
L 210.067903 374.527059 
L 210.281092 457.538824 
L 210.707471 374.527059 
L 211.34704 374.527059 
L 211.56023 416.032941 
L 211.986609 333.021176 
L 212.199798 374.527059 
L 212.412988 291.515294 
L 212.626177 416.032941 
L 213.052556 333.021176 
L 213.265746 374.527059 
L 213.478936 291.515294 
L 213.692125 416.032941 
L 213.905315 374.527059 
L 214.118504 416.032941 
L 214.331694 374.527059 
L 214.544883 416.032941 
L 214.758073 333.021176 
L 214.971263 374.527059 
L 215.184452 374.527059 
L 215.610831 291.515294 
L 215.824021 333.021176 
L 216.03721 291.515294 
L 216.2504 333.021176 
L 216.46359 291.515294 
L 217.103158 291.515294 
L 217.316348 416.032941 
L 217.529537 333.021176 
L 217.742727 416.032941 
L 217.955916 374.527059 
L 218.169106 125.491765 
L 218.595485 333.021176 
L 218.808675 291.515294 
L 219.021864 374.527059 
L 219.235054 374.527059 
L 219.448243 333.021176 
L 219.661433 374.527059 
L 219.874623 291.515294 
L 220.301002 416.032941 
L 220.514191 374.527059 
L 220.727381 374.527059 
L 220.94057 333.021176 
L 221.15376 374.527059 
L 221.580139 291.515294 
L 221.793329 333.021176 
L 222.006518 291.515294 
L 222.219708 333.021176 
L 222.432897 291.515294 
L 222.646087 291.515294 
L 222.859277 374.527059 
L 223.072466 291.515294 
L 223.285656 457.538824 
L 223.712035 250.009412 
L 223.925224 291.515294 
L 224.138414 291.515294 
L 224.351603 250.009412 
L 224.777983 250.009412 
L 224.991172 166.997647 
L 225.417551 291.515294 
L 225.630741 291.515294 
L 226.05712 374.527059 
L 226.27031 374.527059 
L 226.483499 291.515294 
L 226.696689 374.527059 
L 226.909878 291.515294 
L 227.123068 374.527059 
L 227.336257 374.527059 
L 227.549447 250.009412 
L 227.762637 416.032941 
L 227.975826 416.032941 
L 228.189016 333.021176 
L 228.402205 416.032941 
L 228.828584 333.021176 
L 229.041774 457.538824 
L 229.468153 291.515294 
L 229.681343 333.021176 
L 229.894532 416.032941 
L 230.107722 416.032941 
L 230.320911 333.021176 
L 230.534101 374.527059 
L 230.74729 291.515294 
L 230.96048 333.021176 
L 231.17367 416.032941 
L 231.600049 416.032941 
L 231.813238 291.515294 
L 232.026428 457.538824 
L 232.239617 416.032941 
L 232.665997 416.032941 
L 232.879186 374.527059 
L 233.092376 374.527059 
L 233.305565 333.021176 
L 233.731944 416.032941 
L 233.945134 374.527059 
L 234.158323 416.032941 
L 234.371513 374.527059 
L 234.584703 374.527059 
L 234.797892 499.044706 
L 235.011082 416.032941 
L 235.224271 457.538824 
L 235.86384 457.538824 
L 236.07703 416.032941 
L 236.290219 416.032941 
L 236.503409 457.538824 
L 236.716598 416.032941 
L 236.929788 499.044706 
L 237.142977 499.044706 
L 237.356167 457.538824 
L 237.569357 499.044706 
L 237.782546 499.044706 
L 238.208925 582.056471 
L 238.422115 582.056471 
L 238.635304 540.550588 
L 239.274873 540.550588 
L 239.488063 582.056471 
L 239.701252 540.550588 
L 239.914442 540.550588 
L 240.127631 416.032941 
L 240.340821 499.044706 
L 240.55401 374.527059 
L 240.7672 416.032941 
L 240.98039 416.032941 
L 241.193579 333.021176 
L 241.406769 457.538824 
L 241.833148 374.527059 
L 242.046337 457.538824 
L 242.259527 457.538824 
L 242.472717 499.044706 
L 242.899096 499.044706 
L 243.112285 540.550588 
L 243.325475 540.550588 
L 243.538664 582.056471 
L 243.751854 540.550588 
L 243.965043 582.056471 
L 244.817802 582.056471 
L 245.030991 623.562353 
L 245.244181 623.562353 
L 245.45737 665.068235 
L 245.67056 582.056471 
L 245.88375 665.068235 
L 246.096939 582.056471 
L 246.523318 665.068235 
L 246.736508 623.562353 
L 246.949697 665.068235 
L 247.162887 623.562353 
L 247.376077 623.562353 
L 247.589266 665.068235 
L 247.802456 623.562353 
L 248.015645 706.574118 
L 248.228835 665.068235 
L 249.081593 665.068235 
L 249.294783 623.562353 
L 249.934351 623.562353 
L 250.147541 706.574118 
L 250.36073 665.068235 
L 250.78711 665.068235 
L 251.000299 706.574118 
L 251.213489 665.068235 
L 251.426678 665.068235 
L 251.639868 706.574118 
L 252.279437 706.574118 
L 252.492626 665.068235 
L 252.705816 706.574118 
L 253.984953 706.574118 
L 254.198143 748.08 
L 254.411332 748.08 
L 254.624522 706.574118 
L 255.47728 706.574118 
L 255.69047 748.08 
L 255.903659 706.574118 
L 256.116849 706.574118 
L 256.330038 748.08 
L 256.543228 706.574118 
L 256.756417 706.574118 
L 256.969607 748.08 
L 257.395986 748.08 
L 257.609176 706.574118 
L 257.822365 706.574118 
L 258.035555 748.08 
L 258.461934 748.08 
L 258.675124 706.574118 
L 258.888313 706.574118 
L 259.101503 748.08 
L 259.741071 748.08 
L 259.954261 706.574118 
L 260.16745 706.574118 
L 260.38064 748.08 
L 260.59383 748.08 
L 260.807019 706.574118 
L 261.020209 706.574118 
L 261.233398 665.068235 
L 261.659777 748.08 
L 261.872967 706.574118 
L 262.086157 706.574118 
L 262.299346 748.08 
L 262.512536 706.574118 
L 262.725725 748.08 
L 262.938915 706.574118 
L 263.152104 748.08 
L 263.365294 706.574118 
L 263.578484 706.574118 
L 263.791673 748.08 
L 264.004863 706.574118 
L 265.710379 706.574118 
L 265.923569 665.068235 
L 266.349948 665.068235 
L 266.563137 582.056471 
L 267.415896 582.056471 
L 267.629085 499.044706 
L 267.842275 499.044706 
L 268.055464 374.527059 
L 268.268654 457.538824 
L 268.481844 333.021176 
L 268.695033 374.527059 
L 269.121412 250.009412 
L 269.334602 250.009412 
L 269.760981 333.021176 
L 269.97417 250.009412 
L 270.18736 250.009412 
L 270.40055 291.515294 
L 270.613739 374.527059 
L 271.040118 374.527059 
L 271.253308 291.515294 
L 271.892877 416.032941 
L 272.106066 374.527059 
L 272.319256 374.527059 
L 272.532445 333.021176 
L 272.958824 416.032941 
L 273.385204 416.032941 
L 273.598393 374.527059 
L 273.811583 374.527059 
L 274.024772 416.032941 
L 274.451151 333.021176 
L 274.664341 333.021176 
L 274.87753 374.527059 
L 275.09072 374.527059 
L 275.30391 333.021176 
L 275.517099 416.032941 
L 275.943478 333.021176 
L 276.156668 374.527059 
L 276.369857 291.515294 
L 276.583047 333.021176 
L 276.796237 333.021176 
L 277.009426 291.515294 
L 277.222616 291.515294 
L 277.435805 333.021176 
L 277.648995 250.009412 
L 277.862184 333.021176 
L 278.075374 333.021176 
L 278.288564 291.515294 
L 278.714943 374.527059 
L 278.928132 374.527059 
L 279.141322 291.515294 
L 279.78089 291.515294 
L 279.99408 416.032941 
L 280.20727 291.515294 
L 280.420459 374.527059 
L 280.846838 291.515294 
L 281.273217 374.527059 
L 281.486407 250.009412 
L 281.699597 333.021176 
L 281.912786 291.515294 
L 282.339165 291.515294 
L 282.552355 250.009412 
L 282.765544 333.021176 
L 282.978734 291.515294 
L 283.191924 333.021176 
L 283.618303 250.009412 
L 283.831492 374.527059 
L 284.044682 250.009412 
L 284.257871 333.021176 
L 284.68425 333.021176 
L 284.89744 374.527059 
L 285.11063 250.009412 
L 285.537009 333.021176 
L 285.750198 291.515294 
L 286.389767 291.515294 
L 286.602957 374.527059 
L 286.816146 291.515294 
L 287.455715 291.515294 
L 287.668904 333.021176 
L 287.882094 333.021176 
L 288.095284 291.515294 
L 288.521663 291.515294 
L 288.734852 374.527059 
L 288.948042 333.021176 
L 289.587611 333.021176 
L 289.8008 374.527059 
L 290.01399 333.021176 
L 290.227179 333.021176 
L 290.440369 374.527059 
L 290.653558 333.021176 
L 290.866748 374.527059 
L 291.079937 374.527059 
L 291.293127 250.009412 
L 291.506317 333.021176 
L 291.719506 333.021176 
L 291.932696 374.527059 
L 292.145885 374.527059 
L 292.359075 333.021176 
L 292.572264 374.527059 
L 292.785454 250.009412 
L 292.998644 374.527059 
L 293.638212 374.527059 
L 293.851402 333.021176 
L 294.277781 416.032941 
L 294.490971 291.515294 
L 294.70416 416.032941 
L 295.983297 416.032941 
L 296.196487 457.538824 
L 296.622866 457.538824 
L 296.836056 499.044706 
L 297.049245 457.538824 
L 297.475624 333.021176 
L 297.688814 457.538824 
L 297.902004 374.527059 
L 298.115193 416.032941 
L 298.328383 374.527059 
L 298.541572 250.009412 
L 298.754762 374.527059 
L 298.967951 374.527059 
L 299.181141 333.021176 
L 299.394331 374.527059 
L 299.60752 374.527059 
L 299.82071 333.021176 
L 300.033899 250.009412 
L 300.247089 374.527059 
L 300.460278 374.527059 
L 300.673468 416.032941 
L 300.886657 416.032941 
L 301.313037 333.021176 
L 301.739416 333.021176 
L 301.952605 374.527059 
L 302.165795 333.021176 
L 302.592174 416.032941 
L 302.805364 374.527059 
L 303.018553 457.538824 
L 303.444932 374.527059 
L 303.658122 457.538824 
L 303.871311 457.538824 
L 304.084501 499.044706 
L 304.297691 582.056471 
L 304.937259 582.056471 
L 305.150449 623.562353 
L 305.576828 623.562353 
L 305.790017 582.056471 
L 306.216397 665.068235 
L 306.429586 623.562353 
L 307.069155 623.562353 
L 307.282344 665.068235 
L 307.495534 623.562353 
L 307.708724 665.068235 
L 307.921913 665.068235 
L 308.135103 623.562353 
L 308.348292 665.068235 
L 310.053809 665.068235 
L 310.266998 706.574118 
L 310.480188 665.068235 
L 310.693377 706.574118 
L 310.906567 665.068235 
L 311.119757 706.574118 
L 311.332946 665.068235 
L 311.759325 665.068235 
L 311.972515 706.574118 
L 314.104411 706.574118 
L 314.3176 748.08 
L 314.53079 706.574118 
L 315.170358 706.574118 
L 315.383548 748.08 
L 315.596737 706.574118 
L 316.023117 706.574118 
L 316.236306 748.08 
L 316.875875 748.08 
L 317.089064 706.574118 
L 317.728633 706.574118 
L 317.941823 748.08 
L 319.22096 748.08 
L 319.43415 706.574118 
L 319.647339 748.08 
L 319.860529 748.08 
L 320.073718 706.574118 
L 320.500098 706.574118 
L 320.713287 748.08 
L 321.779235 748.08 
L 321.992424 706.574118 
L 322.205614 748.08 
L 322.418804 748.08 
L 322.631993 706.574118 
L 322.845183 706.574118 
L 323.058372 748.08 
L 323.271562 706.574118 
L 323.484751 748.08 
L 323.911131 748.08 
L 324.12432 706.574118 
L 324.33751 748.08 
L 324.550699 748.08 
L 324.763889 706.574118 
L 324.977078 706.574118 
L 325.190268 748.08 
L 325.403458 706.574118 
L 326.043026 706.574118 
L 326.256216 748.08 
L 326.469405 706.574118 
L 326.682595 706.574118 
L 326.895784 665.068235 
L 327.108974 706.574118 
L 327.322164 665.068235 
L 327.748543 665.068235 
L 328.174922 582.056471 
L 328.388111 623.562353 
L 328.601301 582.056471 
L 328.814491 582.056471 
L 329.24087 416.032941 
L 329.454059 457.538824 
L 329.667249 416.032941 
L 330.306818 416.032941 
L 330.520007 333.021176 
L 330.946386 333.021176 
L 331.159576 291.515294 
L 331.372765 374.527059 
L 331.799144 374.527059 
L 332.012334 416.032941 
L 332.438713 416.032941 
L 332.865092 333.021176 
L 333.078282 333.021176 
L 333.291471 291.515294 
L 333.504661 374.527059 
L 333.717851 333.021176 
L 333.93104 416.032941 
L 334.14423 416.032941 
L 334.357419 374.527059 
L 334.570609 457.538824 
L 334.783798 416.032941 
L 334.996988 416.032941 
L 335.210178 457.538824 
L 335.423367 374.527059 
L 335.636557 457.538824 
L 335.849746 374.527059 
L 336.062936 374.527059 
L 336.276125 83.985882 
L 336.702504 499.044706 
L 336.915694 416.032941 
L 337.342073 499.044706 
L 337.555263 457.538824 
L 337.768452 457.538824 
L 337.981642 333.021176 
L 338.194831 333.021176 
L 338.408021 374.527059 
L 338.621211 333.021176 
L 338.8344 374.527059 
L 339.04759 291.515294 
L 339.473969 291.515294 
L 339.687158 208.503529 
L 339.900348 333.021176 
L 340.113538 374.527059 
L 340.326727 250.009412 
L 340.539917 291.515294 
L 340.753106 374.527059 
L 340.966296 291.515294 
L 341.179485 291.515294 
L 341.392675 250.009412 
L 341.605864 291.515294 
L 341.819054 250.009412 
L 342.032244 291.515294 
L 342.458623 291.515294 
L 342.671812 333.021176 
L 342.885002 333.021176 
L 343.098191 374.527059 
L 343.311381 333.021176 
L 343.524571 374.527059 
L 343.73776 374.527059 
L 343.95095 291.515294 
L 344.164139 291.515294 
L 344.377329 333.021176 
L 344.590518 333.021176 
L 344.803708 250.009412 
L 345.016898 291.515294 
L 345.230087 208.503529 
L 345.443277 208.503529 
L 345.869656 291.515294 
L 346.082845 291.515294 
L 346.296035 250.009412 
L 346.509224 250.009412 
L 346.722414 291.515294 
L 346.935604 250.009412 
L 347.148793 291.515294 
L 347.788362 166.997647 
L 348.001551 208.503529 
L 348.214741 208.503529 
L 348.427931 333.021176 
L 348.64112 250.009412 
L 348.85431 250.009412 
L 349.067499 333.021176 
L 349.280689 291.515294 
L 349.493878 333.021176 
L 349.707068 208.503529 
L 349.920258 291.515294 
L 350.133447 291.515294 
L 350.346637 333.021176 
L 350.559826 291.515294 
L 350.986205 374.527059 
L 351.199395 291.515294 
L 351.412585 333.021176 
L 352.478532 333.021176 
L 352.691722 291.515294 
L 353.118101 374.527059 
L 353.54448 291.515294 
L 353.75767 291.515294 
L 353.970859 333.021176 
L 354.397238 333.021176 
L 354.823618 416.032941 
L 355.036807 374.527059 
L 355.463186 374.527059 
L 355.676376 333.021176 
L 355.889565 374.527059 
L 356.102755 291.515294 
L 356.315945 416.032941 
L 356.529134 374.527059 
L 356.742324 457.538824 
L 356.955513 457.538824 
L 357.168703 374.527059 
L 357.381892 416.032941 
L 357.808271 333.021176 
L 358.021461 416.032941 
L 358.234651 374.527059 
L 358.66103 457.538824 
L 358.874219 457.538824 
L 359.087409 416.032941 
L 359.513788 416.032941 
L 359.726978 374.527059 
L 359.940167 374.527059 
L 360.153357 416.032941 
L 360.366546 416.032941 
L 360.579736 374.527059 
L 360.792925 416.032941 
L 361.006115 333.021176 
L 361.219305 416.032941 
L 361.432494 374.527059 
L 361.645684 374.527059 
L 361.858873 333.021176 
L 362.072063 250.009412 
L 362.285252 250.009412 
L 362.498442 208.503529 
L 362.924821 291.515294 
L 363.138011 166.997647 
L 363.3512 250.009412 
L 363.56439 208.503529 
L 363.990769 291.515294 
L 364.203958 291.515294 
L 364.417148 250.009412 
L 364.630338 291.515294 
L 364.843527 291.515294 
L 365.056717 374.527059 
L 365.269906 374.527059 
L 365.483096 416.032941 
L 365.696285 374.527059 
L 365.909475 416.032941 
L 366.335854 540.550588 
L 366.549044 540.550588 
L 366.762233 582.056471 
L 367.401802 582.056471 
L 367.614991 540.550588 
L 368.041371 540.550588 
L 368.46775 623.562353 
L 368.680939 582.056471 
L 368.894129 623.562353 
L 369.107318 582.056471 
L 369.320508 623.562353 
L 369.533698 582.056471 
L 369.746887 582.056471 
L 369.960077 623.562353 
L 370.812835 623.562353 
L 371.026025 582.056471 
L 371.239214 623.562353 
L 371.452404 582.056471 
L 371.665593 623.562353 
L 372.731541 623.562353 
L 372.944731 582.056471 
L 373.15792 623.562353 
L 373.797489 623.562353 
L 374.010678 665.068235 
L 374.223868 623.562353 
L 374.437058 665.068235 
L 374.863437 582.056471 
L 375.076626 665.068235 
L 375.289816 623.562353 
L 375.503005 665.068235 
L 375.716195 623.562353 
L 375.929385 665.068235 
L 376.142574 665.068235 
L 376.355764 623.562353 
L 376.568953 665.068235 
L 376.782143 665.068235 
L 376.995332 623.562353 
L 377.208522 706.574118 
L 377.421711 665.068235 
L 377.634901 706.574118 
L 377.848091 706.574118 
L 378.06128 665.068235 
L 378.487659 665.068235 
L 378.700849 706.574118 
L 378.914038 665.068235 
L 379.127228 665.068235 
L 379.340418 706.574118 
L 379.553607 665.068235 
L 379.766797 665.068235 
L 379.979986 706.574118 
L 380.406365 706.574118 
L 380.619555 665.068235 
L 380.832745 665.068235 
L 381.045934 706.574118 
L 381.685503 706.574118 
L 381.898692 665.068235 
L 382.325072 665.068235 
L 382.538261 706.574118 
L 383.604209 706.574118 
L 383.817398 748.08 
L 384.030588 665.068235 
L 384.243778 665.068235 
L 384.456967 706.574118 
L 385.949294 706.574118 
L 386.162484 665.068235 
L 386.375673 706.574118 
L 386.588863 706.574118 
L 387.015242 623.562353 
L 387.228432 706.574118 
L 387.441621 665.068235 
L 387.654811 706.574118 
L 387.868 665.068235 
L 388.08119 706.574118 
L 388.507569 623.562353 
L 388.720758 665.068235 
L 389.147138 582.056471 
L 389.360327 623.562353 
L 389.786706 623.562353 
L 389.999896 582.056471 
L 390.213085 623.562353 
L 390.639465 623.562353 
L 390.852654 582.056471 
L 391.065844 582.056471 
L 391.279033 540.550588 
L 391.492223 540.550588 
L 391.705412 499.044706 
L 391.918602 499.044706 
L 392.131792 540.550588 
L 392.344981 540.550588 
L 392.558171 499.044706 
L 392.77136 582.056471 
L 392.98455 582.056471 
L 393.197739 540.550588 
L 393.410929 540.550588 
L 393.624118 582.056471 
L 393.837308 499.044706 
L 394.050498 540.550588 
L 394.263687 499.044706 
L 394.476877 540.550588 
L 394.903256 540.550588 
L 395.116445 582.056471 
L 395.329635 540.550588 
L 395.756014 540.550588 
L 395.969204 499.044706 
L 396.182393 499.044706 
L 396.395583 457.538824 
L 396.608772 499.044706 
L 396.821962 457.538824 
L 397.248341 457.538824 
L 397.461531 499.044706 
L 397.67472 416.032941 
L 397.88791 457.538824 
L 398.101099 416.032941 
L 398.314289 416.032941 
L 398.527478 457.538824 
L 398.953858 457.538824 
L 399.167047 374.527059 
L 399.380237 416.032941 
L 399.593426 416.032941 
L 399.806616 374.527059 
L 400.019805 416.032941 
L 400.232995 374.527059 
L 400.446185 374.527059 
L 400.659374 333.021176 
L 400.872564 333.021176 
L 401.298943 250.009412 
L 401.512132 374.527059 
L 401.725322 374.527059 
L 401.938512 333.021176 
L 402.151701 250.009412 
L 402.57808 333.021176 
L 403.004459 333.021176 
L 403.217649 374.527059 
L 403.430838 333.021176 
L 403.644028 457.538824 
L 403.857218 416.032941 
L 404.070407 333.021176 
L 404.283597 416.032941 
L 404.496786 250.009412 
L 404.709976 333.021176 
L 404.923165 291.515294 
L 405.136355 291.515294 
L 405.349545 333.021176 
L 405.562734 250.009412 
L 405.989113 333.021176 
L 406.202303 208.503529 
L 406.415492 250.009412 
L 406.628682 250.009412 
L 406.841872 166.997647 
L 407.268251 333.021176 
L 407.48144 250.009412 
L 407.69463 333.021176 
L 407.907819 208.503529 
L 408.121009 291.515294 
L 408.334198 208.503529 
L 408.547388 250.009412 
L 408.760578 333.021176 
L 408.973767 250.009412 
L 409.186957 374.527059 
L 409.613336 374.527059 
L 409.826525 416.032941 
L 410.039715 374.527059 
L 410.252905 416.032941 
L 410.466094 499.044706 
L 410.679284 416.032941 
L 410.892473 416.032941 
L 411.105663 374.527059 
L 411.532042 457.538824 
L 411.745232 416.032941 
L 411.958421 457.538824 
L 412.59799 457.538824 
L 412.811179 499.044706 
L 413.024369 457.538824 
L 413.450748 457.538824 
L 413.663938 416.032941 
L 413.877127 457.538824 
L 414.090317 457.538824 
L 414.303506 499.044706 
L 414.516696 457.538824 
L 414.729885 540.550588 
L 414.943075 374.527059 
L 415.156265 457.538824 
L 415.369454 457.538824 
L 415.582644 499.044706 
L 416.009023 499.044706 
L 416.222212 457.538824 
L 416.435402 374.527059 
L 416.648592 499.044706 
L 416.861781 457.538824 
L 417.074971 457.538824 
L 417.28816 499.044706 
L 417.50135 416.032941 
L 417.714539 499.044706 
L 417.927729 499.044706 
L 418.140919 457.538824 
L 418.354108 540.550588 
L 418.567298 457.538824 
L 418.780487 457.538824 
L 418.993677 540.550588 
L 419.206866 457.538824 
L 419.633245 457.538824 
L 419.846435 333.021176 
L 420.059625 499.044706 
L 420.272814 416.032941 
L 420.699193 499.044706 
L 420.912383 416.032941 
L 421.125572 499.044706 
L 421.338762 416.032941 
L 421.765141 499.044706 
L 421.978331 457.538824 
L 422.19152 457.538824 
L 422.40471 499.044706 
L 422.617899 416.032941 
L 422.831089 499.044706 
L 423.044279 457.538824 
L 423.897037 457.538824 
L 424.110226 333.021176 
L 424.323416 416.032941 
L 424.536605 416.032941 
L 424.749795 333.021176 
L 424.962985 374.527059 
L 425.176174 374.527059 
L 425.389364 333.021176 
L 425.602553 374.527059 
L 425.815743 333.021176 
L 426.028932 333.021176 
L 426.242122 416.032941 
L 426.455312 374.527059 
L 426.881691 499.044706 
L 427.09488 499.044706 
L 427.30807 457.538824 
L 427.521259 540.550588 
L 428.160828 540.550588 
L 428.374018 582.056471 
L 428.587207 582.056471 
L 428.800397 540.550588 
L 429.013586 540.550588 
L 429.439965 623.562353 
L 429.653155 582.056471 
L 429.866345 582.056471 
L 430.079534 623.562353 
L 430.292724 582.056471 
L 430.505913 623.562353 
L 431.571861 623.562353 
L 431.785051 665.068235 
L 431.99824 665.068235 
L 432.21143 623.562353 
L 432.637809 623.562353 
L 432.850999 665.068235 
L 433.277378 665.068235 
L 433.490567 582.056471 
L 433.703757 623.562353 
L 433.916946 582.056471 
L 434.130136 623.562353 
L 434.769705 623.562353 
L 434.982894 582.056471 
L 435.409273 582.056471 
L 435.622463 665.068235 
L 435.835652 623.562353 
L 436.048842 665.068235 
L 436.9016 665.068235 
L 437.11479 623.562353 
L 437.754359 623.562353 
L 437.967548 665.068235 
L 438.607117 665.068235 
L 438.820306 706.574118 
L 439.033496 706.574118 
L 439.246685 665.068235 
L 439.459875 665.068235 
L 439.673065 706.574118 
L 440.739012 706.574118 
L 440.952202 665.068235 
L 441.378581 665.068235 
L 441.591771 706.574118 
L 441.80496 665.068235 
L 442.01815 706.574118 
L 442.231339 706.574118 
L 442.444529 665.068235 
L 442.657719 748.08 
L 442.870908 706.574118 
L 443.936856 706.574118 
L 444.150046 665.068235 
L 444.363235 706.574118 
L 446.70832 706.574118 
L 446.92151 748.08 
L 447.134699 665.068235 
L 447.347889 706.574118 
L 448.200647 706.574118 
L 448.413837 748.08 
L 448.627026 706.574118 
L 450.332543 706.574118 
L 450.758922 623.562353 
L 450.972112 623.562353 
L 451.185301 665.068235 
L 452.038059 665.068235 
L 452.251249 623.562353 
L 452.890818 623.562353 
L 453.104007 665.068235 
L 453.317197 665.068235 
L 453.530386 706.574118 
L 453.743576 623.562353 
L 453.956766 665.068235 
L 454.169955 623.562353 
L 454.383145 665.068235 
L 455.022713 665.068235 
L 455.235903 623.562353 
L 456.51504 623.562353 
L 456.72823 665.068235 
L 456.941419 582.056471 
L 457.154609 582.056471 
L 457.367799 623.562353 
L 457.580988 582.056471 
L 458.007367 582.056471 
L 458.220557 623.562353 
L 458.433746 582.056471 
L 458.646936 582.056471 
L 458.860126 540.550588 
L 459.073315 540.550588 
L 459.286505 582.056471 
L 459.499694 582.056471 
L 459.926073 499.044706 
L 460.139263 582.056471 
L 460.352452 499.044706 
L 460.565642 582.056471 
L 460.992021 499.044706 
L 461.205211 499.044706 
L 461.4184 540.550588 
L 461.63159 499.044706 
L 461.844779 540.550588 
L 462.057969 457.538824 
L 462.271159 457.538824 
L 462.484348 499.044706 
L 462.910727 499.044706 
L 463.123917 457.538824 
L 463.337106 499.044706 
L 463.550296 457.538824 
L 463.763486 499.044706 
L 463.976675 416.032941 
L 464.403054 499.044706 
L 464.616244 457.538824 
L 464.829433 499.044706 
L 465.469002 499.044706 
L 465.682192 457.538824 
L 466.108571 457.538824 
L 466.32176 416.032941 
L 466.53495 540.550588 
L 466.748139 540.550588 
L 467.174519 457.538824 
L 467.387708 457.538824 
L 467.600898 499.044706 
L 467.814087 499.044706 
L 468.027277 416.032941 
L 468.240466 499.044706 
L 468.666846 416.032941 
L 468.880035 416.032941 
L 469.306414 499.044706 
L 469.519604 457.538824 
L 469.732793 540.550588 
L 469.945983 416.032941 
L 470.159172 457.538824 
L 470.372362 416.032941 
L 470.585552 416.032941 
L 471.011931 499.044706 
L 471.43831 499.044706 
L 471.864689 582.056471 
L 472.077879 540.550588 
L 472.504258 540.550588 
L 472.717447 582.056471 
L 473.143826 582.056471 
L 473.357016 623.562353 
L 473.570206 623.562353 
L 473.783395 540.550588 
L 475.062533 540.550588 
L 475.275722 582.056471 
L 475.488912 499.044706 
L 475.702101 540.550588 
L 475.915291 499.044706 
L 476.12848 499.044706 
L 476.34167 540.550588 
L 476.554859 540.550588 
L 476.768049 582.056471 
L 477.194428 499.044706 
L 477.407618 623.562353 
L 477.620807 582.056471 
L 478.047186 582.056471 
L 478.260376 499.044706 
L 478.473566 540.550588 
L 478.686755 499.044706 
L 478.899945 582.056471 
L 479.113134 540.550588 
L 479.326324 540.550588 
L 479.752703 623.562353 
L 479.965893 623.562353 
L 480.179082 582.056471 
L 480.605461 582.056471 
L 480.818651 623.562353 
L 481.03184 582.056471 
L 481.24503 582.056471 
L 481.458219 540.550588 
L 481.671409 582.056471 
L 481.884599 582.056471 
L 482.097788 623.562353 
L 482.310978 623.562353 
L 482.524167 582.056471 
L 482.737357 623.562353 
L 483.376926 623.562353 
L 483.590115 665.068235 
L 484.016494 665.068235 
L 484.229684 623.562353 
L 484.442873 665.068235 
L 484.869253 582.056471 
L 485.082442 623.562353 
L 485.295632 623.562353 
L 485.508821 499.044706 
L 486.574769 499.044706 
L 486.787959 457.538824 
L 487.001148 499.044706 
L 487.214338 457.538824 
L 487.427527 540.550588 
L 487.640717 499.044706 
L 487.853906 540.550588 
L 488.067096 499.044706 
L 488.706665 623.562353 
L 488.919854 623.562353 
L 489.133044 582.056471 
L 489.559423 665.068235 
L 489.772613 623.562353 
L 490.198992 623.562353 
L 490.412181 665.068235 
L 490.625371 582.056471 
L 491.05175 665.068235 
L 491.264939 623.562353 
L 491.691319 623.562353 
L 491.904508 665.068235 
L 492.117698 665.068235 
L 492.330887 623.562353 
L 493.183646 623.562353 
L 493.396835 665.068235 
L 493.823214 665.068235 
L 494.036404 623.562353 
L 494.249593 706.574118 
L 494.462783 665.068235 
L 494.889162 665.068235 
L 495.102352 706.574118 
L 495.315541 665.068235 
L 495.528731 706.574118 
L 495.74192 665.068235 
L 496.381489 665.068235 
L 496.594679 706.574118 
L 496.807868 706.574118 
L 497.021058 665.068235 
L 497.234247 706.574118 
L 497.447437 665.068235 
L 497.660626 706.574118 
L 497.873816 665.068235 
L 498.300195 665.068235 
L 498.513385 706.574118 
L 500.218901 706.574118 
L 500.432091 748.08 
L 500.64528 706.574118 
L 500.85847 706.574118 
L 501.071659 748.08 
L 501.284849 706.574118 
L 501.498039 748.08 
L 501.924418 748.08 
L 502.137607 706.574118 
L 502.350797 748.08 
L 502.777176 748.08 
L 502.990366 706.574118 
L 503.203555 706.574118 
L 503.416745 748.08 
L 503.629934 748.08 
L 503.843124 706.574118 
L 504.056313 748.08 
L 504.269503 748.08 
L 504.482693 706.574118 
L 504.695882 748.08 
L 504.909072 706.574118 
L 505.122261 748.08 
L 505.335451 748.08 
L 505.54864 706.574118 
L 507.467346 706.574118 
L 507.680536 665.068235 
L 508.106915 748.08 
L 508.320105 748.08 
L 508.533294 706.574118 
L 509.812432 706.574118 
L 510.025621 748.08 
L 510.238811 706.574118 
L 510.66519 706.574118 
L 510.87838 665.068235 
L 511.091569 706.574118 
L 511.304759 665.068235 
L 511.517948 706.574118 
L 512.157517 582.056471 
L 512.370706 623.562353 
L 512.583896 623.562353 
L 512.797086 582.056471 
L 513.010275 499.044706 
L 513.223465 540.550588 
L 513.649844 416.032941 
L 513.863033 416.032941 
L 514.289413 333.021176 
L 515.142171 333.021176 
L 515.35536 374.527059 
L 515.56855 333.021176 
L 515.994929 333.021176 
L 516.208119 374.527059 
L 516.421308 333.021176 
L 516.634498 457.538824 
L 516.847687 457.538824 
L 517.060877 499.044706 
L 517.274066 457.538824 
L 517.487256 499.044706 
L 517.700446 457.538824 
L 517.913635 706.574118 
L 518.126825 457.538824 
L 518.340014 416.032941 
L 518.553204 457.538824 
L 518.766393 457.538824 
L 518.979583 416.032941 
L 519.192773 457.538824 
L 519.405962 374.527059 
L 519.619152 416.032941 
L 520.045531 416.032941 
L 520.47191 291.515294 
L 520.6851 291.515294 
L 520.898289 374.527059 
L 521.111479 374.527059 
L 521.324668 457.538824 
L 521.537858 333.021176 
L 521.751047 416.032941 
L 521.964237 291.515294 
L 522.177426 374.527059 
L 522.390616 333.021176 
L 522.603806 333.021176 
L 522.816995 374.527059 
L 523.030185 333.021176 
L 523.243374 374.527059 
L 523.456564 333.021176 
L 523.669753 374.527059 
L 523.882943 333.021176 
L 524.096133 333.021176 
L 524.309322 374.527059 
L 524.522512 291.515294 
L 524.735701 333.021176 
L 524.948891 333.021176 
L 525.16208 291.515294 
L 525.37527 333.021176 
L 525.58846 291.515294 
L 525.801649 333.021176 
L 526.014839 333.021176 
L 526.228028 374.527059 
L 526.441218 333.021176 
L 526.654407 416.032941 
L 527.080786 333.021176 
L 527.293976 333.021176 
L 527.507166 291.515294 
L 527.720355 333.021176 
L 527.933545 291.515294 
L 528.146734 333.021176 
L 528.359924 250.009412 
L 528.573113 333.021176 
L 528.786303 291.515294 
L 529.212682 291.515294 
L 529.425872 333.021176 
L 529.852251 250.009412 
L 530.06544 333.021176 
L 530.27863 333.021176 
L 530.49182 291.515294 
L 530.705009 291.515294 
L 530.918199 250.009412 
L 531.131388 291.515294 
L 531.344578 250.009412 
L 531.557767 291.515294 
L 531.770957 291.515294 
L 531.984146 374.527059 
L 532.197336 291.515294 
L 532.410526 291.515294 
L 532.623715 333.021176 
L 532.836905 333.021176 
L 533.050094 291.515294 
L 533.476473 374.527059 
L 533.689663 250.009412 
L 533.902853 333.021176 
L 534.116042 291.515294 
L 534.329232 333.021176 
L 534.542421 416.032941 
L 534.755611 333.021176 
L 534.9688 374.527059 
L 535.18199 333.021176 
L 535.608369 416.032941 
L 535.821559 374.527059 
L 536.034748 374.527059 
L 536.247938 333.021176 
L 536.461127 333.021176 
L 536.674317 374.527059 
L 537.740265 374.527059 
L 537.953454 333.021176 
L 538.166644 416.032941 
L 538.379833 416.032941 
L 538.593023 374.527059 
L 538.806213 416.032941 
L 539.019402 374.527059 
L 539.232592 416.032941 
L 540.29854 416.032941 
L 540.511729 457.538824 
L 540.724919 374.527059 
L 540.938108 499.044706 
L 541.151298 374.527059 
L 541.364487 457.538824 
L 541.577677 374.527059 
L 541.790867 416.032941 
L 542.004056 499.044706 
L 542.217246 416.032941 
L 542.430435 457.538824 
L 542.643625 457.538824 
L 543.070004 374.527059 
L 543.496383 499.044706 
L 543.709573 457.538824 
L 544.135952 540.550588 
L 544.349141 540.550588 
L 544.562331 499.044706 
L 544.98871 582.056471 
L 545.2019 540.550588 
L 545.415089 582.056471 
L 546.267847 582.056471 
L 546.694227 499.044706 
L 546.907416 374.527059 
L 547.120606 374.527059 
L 547.333795 416.032941 
L 547.546985 374.527059 
L 547.760174 416.032941 
L 548.612933 416.032941 
L 548.826122 499.044706 
L 549.039312 416.032941 
L 549.252501 457.538824 
L 549.465691 457.538824 
L 549.67888 499.044706 
L 549.89207 499.044706 
L 550.318449 582.056471 
L 550.531639 540.550588 
L 550.744828 623.562353 
L 550.958018 582.056471 
L 551.171207 582.056471 
L 551.384397 623.562353 
L 552.237155 623.562353 
L 552.450345 665.068235 
L 552.876724 665.068235 
L 553.089913 623.562353 
L 553.303103 623.562353 
L 553.516293 665.068235 
L 553.729482 623.562353 
L 553.942672 665.068235 
L 554.58224 665.068235 
L 554.79543 706.574118 
L 555.00862 665.068235 
L 555.648188 665.068235 
L 555.861378 706.574118 
L 556.074567 706.574118 
L 556.287757 665.068235 
L 556.500947 706.574118 
L 556.927326 706.574118 
L 557.140515 665.068235 
L 557.353705 665.068235 
L 557.566894 706.574118 
L 558.846032 706.574118 
L 559.059221 748.08 
L 559.272411 665.068235 
L 559.4856 706.574118 
L 560.551548 706.574118 
L 560.764738 748.08 
L 560.977927 706.574118 
L 561.191117 706.574118 
L 561.404307 748.08 
L 561.617496 706.574118 
L 562.043875 706.574118 
L 562.257065 748.08 
L 563.109823 748.08 
L 563.323013 706.574118 
L 563.536202 748.08 
L 563.749392 706.574118 
L 563.962581 748.08 
L 565.028529 748.08 
L 565.241719 706.574118 
L 565.454908 706.574118 
L 565.668098 748.08 
L 565.881287 706.574118 
L 566.094477 748.08 
L 566.520856 748.08 
L 566.734046 706.574118 
L 566.947235 748.08 
L 567.160425 748.08 
L 567.373614 706.574118 
L 567.586804 748.08 
L 567.799993 748.08 
L 568.013183 706.574118 
L 568.226373 748.08 
L 568.439562 748.08 
L 568.652752 706.574118 
L 568.865941 748.08 
L 569.079131 706.574118 
L 569.29232 706.574118 
L 569.50551 748.08 
L 569.931889 748.08 
L 570.145079 706.574118 
L 570.571458 706.574118 
L 570.784647 748.08 
L 570.997837 706.574118 
L 571.211027 706.574118 
L 571.424216 748.08 
L 571.637406 706.574118 
L 572.490164 706.574118 
L 572.703354 665.068235 
L 573.129733 665.068235 
L 573.342922 582.056471 
L 573.556112 582.056471 
L 573.769301 623.562353 
L 573.982491 582.056471 
L 574.19568 582.056471 
L 574.40887 540.550588 
L 574.62206 540.550588 
L 575.261628 333.021176 
L 575.474818 457.538824 
L 575.688007 333.021176 
L 575.901197 374.527059 
L 576.114387 374.527059 
L 576.327576 291.515294 
L 576.540766 291.515294 
L 576.753955 374.527059 
L 576.967145 333.021176 
L 577.180334 333.021176 
L 577.393524 416.032941 
L 577.606714 374.527059 
L 578.033093 499.044706 
L 578.246282 457.538824 
L 578.672661 457.538824 
L 578.885851 416.032941 
L 579.09904 457.538824 
L 579.31223 457.538824 
L 579.52542 374.527059 
L 579.738609 457.538824 
L 579.951799 374.527059 
L 580.378178 457.538824 
L 580.591367 416.032941 
L 581.230936 416.032941 
L 581.444126 291.515294 
L 581.870505 416.032941 
L 582.083694 208.503529 
L 582.296884 416.032941 
L 582.510074 374.527059 
L 582.723263 416.032941 
L 583.149642 333.021176 
L 583.362832 374.527059 
L 583.789211 291.515294 
L 584.0024 333.021176 
L 584.21559 250.009412 
L 585.068348 416.032941 
L 585.494727 291.515294 
L 585.707917 291.515294 
L 586.134296 374.527059 
L 586.347486 291.515294 
L 586.560675 374.527059 
L 586.773865 374.527059 
L 586.987054 291.515294 
L 587.200244 333.021176 
L 587.626623 250.009412 
L 587.839813 333.021176 
L 588.053002 291.515294 
L 588.479381 291.515294 
L 588.90576 374.527059 
L 589.11895 208.503529 
L 589.33214 291.515294 
L 589.758519 291.515294 
L 589.971708 333.021176 
L 590.184898 250.009412 
L 590.611277 333.021176 
L 590.824467 333.021176 
L 591.037656 291.515294 
L 591.250846 291.515294 
L 591.464035 250.009412 
L 591.677225 291.515294 
L 592.316794 291.515294 
L 592.529983 250.009412 
L 592.743173 291.515294 
L 592.956362 125.491765 
L 593.169552 291.515294 
L 593.382741 250.009412 
L 593.595931 291.515294 
L 593.80912 291.515294 
L 594.02231 333.021176 
L 594.2355 291.515294 
L 594.448689 333.021176 
L 594.661879 291.515294 
L 594.875068 333.021176 
L 595.301447 250.009412 
L 595.514637 333.021176 
L 595.727827 250.009412 
L 595.941016 291.515294 
L 596.154206 291.515294 
L 596.367395 250.009412 
L 596.580585 333.021176 
L 596.793774 291.515294 
L 597.006964 416.032941 
L 597.220154 291.515294 
L 597.433343 333.021176 
L 597.646533 416.032941 
L 597.859722 291.515294 
L 598.072912 291.515294 
L 598.286101 374.527059 
L 598.499291 333.021176 
L 598.92567 333.021176 
L 599.13886 291.515294 
L 599.352049 374.527059 
L 599.565239 374.527059 
L 599.778428 291.515294 
L 599.991618 291.515294 
L 600.204807 250.009412 
L 600.417997 291.515294 
L 600.631187 374.527059 
L 600.844376 291.515294 
L 601.057566 374.527059 
L 601.270755 333.021176 
L 601.483945 374.527059 
L 601.697134 374.527059 
L 601.910324 416.032941 
L 602.336703 416.032941 
L 602.549893 499.044706 
L 602.976272 499.044706 
L 603.189461 416.032941 
L 603.402651 416.032941 
L 603.615841 457.538824 
L 603.82903 457.538824 
L 604.04222 416.032941 
L 604.255409 499.044706 
L 604.468599 374.527059 
L 604.681788 499.044706 
L 604.894978 499.044706 
L 605.108167 416.032941 
L 605.321357 540.550588 
L 605.534547 499.044706 
L 605.747736 499.044706 
L 605.960926 457.538824 
L 606.174115 499.044706 
L 606.600494 499.044706 
L 606.813684 540.550588 
L 607.240063 540.550588 
L 607.453253 623.562353 
L 607.666442 499.044706 
L 608.092821 416.032941 
L 608.306011 333.021176 
L 608.519201 374.527059 
L 608.73239 291.515294 
L 609.158769 374.527059 
L 609.371959 291.515294 
L 609.585148 333.021176 
L 610.011527 333.021176 
L 610.224717 374.527059 
L 610.651096 291.515294 
L 611.290665 499.044706 
L 611.503854 457.538824 
L 611.930234 540.550588 
L 612.143423 499.044706 
L 612.356613 540.550588 
L 612.569802 540.550588 
L 612.782992 499.044706 
L 612.996181 582.056471 
L 613.422561 582.056471 
L 613.63575 623.562353 
L 613.84894 582.056471 
L 614.488508 582.056471 
L 614.701698 623.562353 
L 616.194025 623.562353 
L 616.407214 665.068235 
L 616.620404 623.562353 
L 616.833594 623.562353 
L 617.046783 665.068235 
L 617.473162 665.068235 
L 617.686352 623.562353 
L 617.899541 665.068235 
L 618.112731 582.056471 
L 618.325921 665.068235 
L 619.178679 665.068235 
L 619.391868 706.574118 
L 619.605058 706.574118 
L 619.818247 665.068235 
L 620.031437 706.574118 
L 620.244627 706.574118 
L 620.457816 665.068235 
L 620.884195 665.068235 
L 621.097385 706.574118 
L 621.310574 706.574118 
L 621.523764 665.068235 
L 621.736954 706.574118 
L 621.950143 706.574118 
L 622.163333 665.068235 
L 622.589712 748.08 
L 622.802901 706.574118 
L 623.016091 748.08 
L 623.229281 748.08 
L 623.44247 706.574118 
L 623.65566 706.574118 
L 623.868849 748.08 
L 624.082039 706.574118 
L 624.295228 748.08 
L 624.508418 706.574118 
L 624.721607 748.08 
L 626.213934 748.08 
L 626.427124 706.574118 
L 626.640314 706.574118 
L 626.853503 748.08 
L 627.279882 748.08 
L 627.493072 706.574118 
L 627.706261 748.08 
L 627.919451 748.08 
L 628.132641 706.574118 
L 628.34583 706.574118 
L 628.55902 748.08 
L 629.838157 748.08 
L 630.051347 706.574118 
L 631.117294 706.574118 
L 631.330484 748.08 
L 631.756863 665.068235 
L 631.970053 706.574118 
L 632.183242 706.574118 
L 632.396432 748.08 
L 632.822811 748.08 
L 633.036001 706.574118 
L 633.46238 706.574118 
L 633.675569 665.068235 
L 633.888759 706.574118 
L 634.101948 665.068235 
L 634.528328 665.068235 
L 634.954707 540.550588 
L 635.167896 623.562353 
L 635.381086 540.550588 
L 635.594275 582.056471 
L 635.807465 540.550588 
L 636.233844 416.032941 
L 636.447034 457.538824 
L 636.873413 333.021176 
L 637.086602 333.021176 
L 637.299792 250.009412 
L 637.512981 250.009412 
L 637.726171 208.503529 
L 637.939361 83.985882 
L 638.15255 166.997647 
L 638.578929 416.032941 
L 638.792119 291.515294 
L 639.218498 416.032941 
L 639.431688 457.538824 
L 639.858067 374.527059 
L 640.071256 457.538824 
L 640.497635 374.527059 
L 641.137204 374.527059 
L 641.350394 416.032941 
L 641.776773 333.021176 
L 641.989962 374.527059 
L 642.203152 291.515294 
L 642.416341 416.032941 
L 642.842721 333.021176 
L 643.05591 374.527059 
L 643.2691 291.515294 
L 643.482289 416.032941 
L 643.695479 374.527059 
L 643.908668 416.032941 
L 644.121858 374.527059 
L 644.335048 416.032941 
L 644.548237 333.021176 
L 644.761427 374.527059 
L 644.974616 374.527059 
L 645.400995 291.515294 
L 645.614185 333.021176 
L 645.827374 291.515294 
L 646.040564 333.021176 
L 646.253754 291.515294 
L 646.893322 291.515294 
L 647.106512 416.032941 
L 647.319701 333.021176 
L 647.532891 416.032941 
L 647.746081 374.527059 
L 647.95927 125.491765 
L 648.385649 333.021176 
L 648.598839 291.515294 
L 648.812028 374.527059 
L 649.025218 374.527059 
L 649.238408 333.021176 
L 649.451597 374.527059 
L 649.664787 291.515294 
L 650.091166 416.032941 
L 650.304355 374.527059 
L 650.517545 374.527059 
L 650.730734 333.021176 
L 650.943924 374.527059 
L 651.370303 291.515294 
L 651.583493 333.021176 
L 651.796682 291.515294 
L 652.009872 333.021176 
L 652.223061 291.515294 
L 652.436251 291.515294 
L 652.649441 374.527059 
L 652.86263 291.515294 
L 653.07582 457.538824 
L 653.502199 250.009412 
L 653.715388 291.515294 
L 653.928578 291.515294 
L 654.141768 250.009412 
L 654.568147 250.009412 
L 654.781336 166.997647 
L 655.207715 291.515294 
L 655.420905 291.515294 
L 655.847284 374.527059 
L 656.060474 374.527059 
L 656.273663 291.515294 
L 656.486853 374.527059 
L 656.700042 291.515294 
L 656.913232 374.527059 
L 657.126421 374.527059 
L 657.339611 250.009412 
L 657.552801 416.032941 
L 657.76599 416.032941 
L 657.97918 333.021176 
L 658.192369 416.032941 
L 658.618748 333.021176 
L 658.831938 457.538824 
L 659.258317 291.515294 
L 659.471507 333.021176 
L 659.684696 416.032941 
L 659.897886 416.032941 
L 660.111075 333.021176 
L 660.324265 374.527059 
L 660.537454 291.515294 
L 660.750644 333.021176 
L 660.963834 416.032941 
L 661.390213 416.032941 
L 661.603402 291.515294 
L 661.816592 457.538824 
L 662.029781 416.032941 
L 662.456161 416.032941 
L 662.66935 374.527059 
L 662.88254 374.527059 
L 663.095729 333.021176 
L 663.522108 416.032941 
L 663.735298 374.527059 
L 663.948488 416.032941 
L 664.161677 374.527059 
L 664.374867 374.527059 
L 664.588056 499.044706 
L 664.801246 416.032941 
L 665.014435 457.538824 
L 665.654004 457.538824 
L 665.867194 416.032941 
L 666.080383 416.032941 
L 666.293573 457.538824 
L 666.506762 416.032941 
L 666.719952 499.044706 
L 666.933141 499.044706 
L 667.146331 457.538824 
L 667.359521 499.044706 
L 667.57271 499.044706 
L 667.999089 582.056471 
L 668.212279 582.056471 
L 668.425468 540.550588 
L 669.065037 540.550588 
L 669.278227 582.056471 
L 669.491416 540.550588 
L 669.704606 540.550588 
L 669.917795 416.032941 
L 670.130985 499.044706 
L 670.344175 374.527059 
L 670.557364 416.032941 
L 670.770554 416.032941 
L 670.983743 333.021176 
L 671.196933 457.538824 
L 671.623312 374.527059 
L 671.836501 457.538824 
L 672.049691 457.538824 
L 672.262881 499.044706 
L 672.68926 499.044706 
L 672.902449 540.550588 
L 673.115639 540.550588 
L 673.328828 582.056471 
L 673.542018 540.550588 
L 673.755208 582.056471 
L 674.607966 582.056471 
L 674.821155 623.562353 
L 675.034345 623.562353 
L 675.247535 665.068235 
L 675.460724 582.056471 
L 675.673914 665.068235 
L 675.887103 582.056471 
L 676.313482 665.068235 
L 676.526672 623.562353 
L 676.739861 665.068235 
L 676.953051 623.562353 
L 677.166241 623.562353 
L 677.37943 665.068235 
L 677.59262 623.562353 
L 677.805809 706.574118 
L 678.018999 665.068235 
L 678.871757 665.068235 
L 679.084947 623.562353 
L 679.724515 623.562353 
L 679.937705 706.574118 
L 680.150895 665.068235 
L 680.577274 665.068235 
L 680.790463 706.574118 
L 681.003653 665.068235 
L 681.216842 665.068235 
L 681.430032 706.574118 
L 682.069601 706.574118 
L 682.28279 665.068235 
L 682.49598 706.574118 
L 683.775117 706.574118 
L 683.988307 748.08 
L 684.201496 748.08 
L 684.414686 706.574118 
L 685.267444 706.574118 
L 685.480634 748.08 
L 685.693823 706.574118 
L 685.907013 706.574118 
L 686.120202 748.08 
L 686.333392 706.574118 
L 686.546581 706.574118 
L 686.759771 748.08 
L 687.18615 748.08 
L 687.39934 706.574118 
L 687.612529 706.574118 
L 687.825719 748.08 
L 688.252098 748.08 
L 688.465288 706.574118 
L 688.678477 706.574118 
L 688.891667 748.08 
L 689.531235 748.08 
L 689.744425 706.574118 
L 689.957615 706.574118 
L 690.170804 748.08 
L 690.383994 748.08 
L 690.597183 706.574118 
L 690.810373 706.574118 
L 691.023562 665.068235 
L 691.449941 748.08 
L 691.663131 706.574118 
L 691.876321 706.574118 
L 692.08951 748.08 
L 692.3027 706.574118 
L 692.515889 748.08 
L 692.729079 706.574118 
L 692.942268 748.08 
L 693.155458 706.574118 
L 693.368648 706.574118 
L 693.581837 748.08 
L 693.795027 706.574118 
L 695.500543 706.574118 
L 695.713733 665.068235 
L 696.140112 665.068235 
L 696.353302 582.056471 
L 697.20606 582.056471 
L 697.419249 499.044706 
L 697.632439 499.044706 
L 697.845628 374.527059 
L 698.058818 457.538824 
L 698.272008 333.021176 
L 698.485197 374.527059 
L 698.911576 250.009412 
L 699.124766 250.009412 
L 699.551145 333.021176 
L 699.764335 250.009412 
L 699.977524 250.009412 
L 700.190714 291.515294 
L 700.403903 374.527059 
L 700.830282 374.527059 
L 701.043472 291.515294 
L 701.683041 416.032941 
L 701.89623 374.527059 
L 702.10942 374.527059 
L 702.322609 333.021176 
L 702.748988 416.032941 
L 703.175368 416.032941 
L 703.388557 374.527059 
L 703.601747 374.527059 
L 703.814936 416.032941 
L 704.241315 333.021176 
L 704.454505 333.021176 
L 704.667695 374.527059 
L 704.880884 374.527059 
L 705.094074 333.021176 
L 705.307263 416.032941 
L 705.733642 333.021176 
L 705.946832 374.527059 
L 706.160022 291.515294 
L 706.373211 333.021176 
L 706.586401 333.021176 
L 706.79959 291.515294 
L 707.01278 291.515294 
L 707.225969 333.021176 
L 707.439159 250.009412 
L 707.652348 333.021176 
L 707.865538 333.021176 
L 708.078728 291.515294 
L 708.505107 374.527059 
L 708.718296 374.527059 
L 708.931486 291.515294 
L 709.571055 291.515294 
L 709.784244 416.032941 
L 709.997434 291.515294 
L 710.210623 374.527059 
L 710.637002 291.515294 
L 711.063382 374.527059 
L 711.276571 250.009412 
L 711.489761 333.021176 
L 711.70295 291.515294 
L 712.129329 291.515294 
L 712.342519 250.009412 
L 712.555708 333.021176 
L 712.768898 291.515294 
L 712.982088 333.021176 
L 713.408467 250.009412 
L 713.621656 374.527059 
L 713.834846 250.009412 
L 714.048035 333.021176 
L 714.474415 333.021176 
L 714.687604 374.527059 
L 714.900794 250.009412 
L 715.327173 333.021176 
L 715.540362 291.515294 
L 716.179931 291.515294 
L 716.393121 374.527059 
L 716.60631 291.515294 
L 717.245879 291.515294 
L 717.459068 333.021176 
L 717.672258 333.021176 
L 717.885448 291.515294 
L 718.311827 291.515294 
L 718.525016 374.527059 
L 718.738206 333.021176 
L 719.377775 333.021176 
L 719.590964 374.527059 
L 719.804154 333.021176 
L 720.017343 333.021176 
L 720.230533 374.527059 
L 720.443722 333.021176 
L 720.656912 374.527059 
L 720.870102 374.527059 
L 721.083291 250.009412 
L 721.296481 333.021176 
L 721.50967 333.021176 
L 721.72286 374.527059 
L 721.936049 374.527059 
L 722.149239 333.021176 
L 722.362428 374.527059 
L 722.575618 250.009412 
L 722.788808 374.527059 
L 723.428376 374.527059 
L 723.641566 333.021176 
L 724.067945 416.032941 
L 724.281135 291.515294 
L 724.494324 416.032941 
L 725.773462 416.032941 
L 725.986651 457.538824 
L 726.41303 457.538824 
L 726.62622 499.044706 
L 726.839409 457.538824 
L 727.265789 333.021176 
L 727.478978 457.538824 
L 727.692168 374.527059 
L 727.905357 416.032941 
L 728.118547 374.527059 
L 728.331736 250.009412 
L 728.544926 374.527059 
L 728.758115 374.527059 
L 728.971305 333.021176 
L 729.184495 374.527059 
L 729.397684 374.527059 
L 729.610874 333.021176 
L 729.824063 250.009412 
L 730.037253 374.527059 
L 730.250442 374.527059 
L 730.463632 416.032941 
L 730.676822 416.032941 
L 731.103201 333.021176 
L 731.52958 333.021176 
L 731.742769 374.527059 
L 731.955959 333.021176 
L 732.382338 416.032941 
L 732.595528 374.527059 
L 732.808717 457.538824 
L 733.235096 374.527059 
L 733.448286 457.538824 
L 733.661475 457.538824 
L 733.874665 499.044706 
L 734.087855 582.056471 
L 734.727423 582.056471 
L 734.940613 665.068235 
L 735.366992 665.068235 
L 735.580182 623.562353 
L 736.006561 706.574118 
L 736.21975 665.068235 
L 736.859319 665.068235 
L 737.072509 706.574118 
L 737.285698 665.068235 
L 737.498888 706.574118 
L 737.712077 706.574118 
L 737.925267 665.068235 
L 738.138456 706.574118 
L 739.843973 706.574118 
L 740.057162 748.08 
L 740.270352 706.574118 
L 740.483542 748.08 
L 740.696731 706.574118 
L 740.909921 748.08 
L 741.12311 706.574118 
L 741.549489 706.574118 
L 741.762679 748.08 
L 756.472759 748.08 
L 756.685949 706.574118 
L 756.899138 748.08 
L 757.112328 706.574118 
L 757.538707 706.574118 
L 757.965086 623.562353 
L 758.178276 665.068235 
L 758.391465 623.562353 
L 758.604655 623.562353 
L 759.031034 457.538824 
L 759.244223 499.044706 
L 759.457413 457.538824 
L 760.096982 457.538824 
L 760.310171 374.527059 
L 760.73655 374.527059 
L 760.94974 333.021176 
L 761.162929 416.032941 
L 761.589309 416.032941 
L 761.802498 457.538824 
L 762.228877 457.538824 
L 762.655256 374.527059 
L 762.868446 374.527059 
L 763.081636 333.021176 
L 763.294825 416.032941 
L 763.508015 374.527059 
L 763.721204 457.538824 
L 763.934394 457.538824 
L 764.147583 416.032941 
L 764.360773 499.044706 
L 764.573962 457.538824 
L 764.787152 457.538824 
L 765.000342 499.044706 
L 765.213531 416.032941 
L 765.426721 499.044706 
L 765.63991 416.032941 
L 765.8531 416.032941 
L 766.066289 125.491765 
L 766.492669 540.550588 
L 766.705858 457.538824 
L 767.132237 540.550588 
L 767.345427 499.044706 
L 767.558616 499.044706 
L 767.771806 374.527059 
L 767.984996 374.527059 
L 768.198185 416.032941 
L 768.411375 374.527059 
L 768.624564 416.032941 
L 768.837754 333.021176 
L 769.264133 333.021176 
L 769.477322 250.009412 
L 769.690512 374.527059 
L 769.903702 416.032941 
L 770.116891 291.515294 
L 770.330081 333.021176 
L 770.54327 416.032941 
L 770.75646 333.021176 
L 770.969649 333.021176 
L 771.182839 291.515294 
L 771.396029 333.021176 
L 771.609218 291.515294 
L 771.822408 333.021176 
L 772.248787 333.021176 
L 772.461976 374.527059 
L 772.675166 374.527059 
L 772.888356 416.032941 
L 773.101545 374.527059 
L 773.314735 416.032941 
L 773.527924 416.032941 
L 773.741114 333.021176 
L 773.954303 333.021176 
L 774.167493 374.527059 
L 774.380682 374.527059 
L 774.593872 291.515294 
L 774.807062 333.021176 
L 775.020251 250.009412 
L 775.233441 250.009412 
L 775.65982 333.021176 
L 775.873009 333.021176 
L 776.086199 291.515294 
L 776.299389 291.515294 
L 776.512578 333.021176 
L 776.725768 291.515294 
L 776.938957 333.021176 
L 777.578526 208.503529 
L 777.791716 250.009412 
L 778.004905 250.009412 
L 778.218095 374.527059 
L 778.431284 291.515294 
L 778.644474 291.515294 
L 778.857663 374.527059 
L 779.070853 333.021176 
L 779.284042 374.527059 
L 779.497232 250.009412 
L 779.710422 333.021176 
L 779.923611 333.021176 
L 780.136801 374.527059 
L 780.34999 333.021176 
L 780.776369 416.032941 
L 780.989559 333.021176 
L 781.202749 374.527059 
L 782.268696 374.527059 
L 782.481886 333.021176 
L 782.908265 416.032941 
L 783.334644 333.021176 
L 783.547834 333.021176 
L 783.761023 374.527059 
L 784.187402 374.527059 
L 784.613782 457.538824 
L 784.826971 416.032941 
L 785.25335 416.032941 
L 785.46654 374.527059 
L 785.679729 416.032941 
L 785.892919 333.021176 
L 786.106109 457.538824 
L 786.319298 416.032941 
L 786.532488 499.044706 
L 786.745677 499.044706 
L 786.958867 416.032941 
L 787.172056 457.538824 
L 787.598436 374.527059 
L 787.811625 457.538824 
L 788.024815 416.032941 
L 788.451194 499.044706 
L 788.664383 499.044706 
L 788.877573 457.538824 
L 789.303952 457.538824 
L 789.517142 416.032941 
L 789.730331 416.032941 
L 789.943521 457.538824 
L 790.15671 457.538824 
L 790.3699 416.032941 
L 790.583089 457.538824 
L 790.796279 374.527059 
L 791.009469 457.538824 
L 791.222658 416.032941 
L 791.435848 416.032941 
L 791.649037 374.527059 
L 791.862227 291.515294 
L 792.075416 291.515294 
L 792.288606 250.009412 
L 792.714985 333.021176 
L 792.928175 208.503529 
L 793.141364 291.515294 
L 793.354554 250.009412 
L 793.780933 333.021176 
L 794.207312 333.021176 
L 794.420502 374.527059 
L 794.633691 374.527059 
L 794.846881 457.538824 
L 795.06007 457.538824 
L 795.27326 499.044706 
L 795.486449 457.538824 
L 795.699639 499.044706 
L 796.126018 623.562353 
L 796.339208 623.562353 
L 796.552397 665.068235 
L 797.191966 665.068235 
L 797.405156 623.562353 
L 797.831535 623.562353 
L 798.257914 706.574118 
L 798.471103 665.068235 
L 798.684293 706.574118 
L 798.897483 665.068235 
L 799.110672 706.574118 
L 799.323862 665.068235 
L 799.537051 665.068235 
L 799.750241 706.574118 
L 800.602999 706.574118 
L 800.816189 665.068235 
L 801.029378 706.574118 
L 801.242568 665.068235 
L 801.455757 706.574118 
L 802.521705 706.574118 
L 802.734895 665.068235 
L 802.948084 706.574118 
L 803.587653 706.574118 
L 803.800843 748.08 
L 804.014032 706.574118 
L 804.227222 748.08 
L 804.653601 665.068235 
L 804.86679 748.08 
L 805.07998 706.574118 
L 805.293169 748.08 
L 805.506359 706.574118 
L 805.719549 748.08 
L 805.932738 748.08 
L 806.145928 706.574118 
L 806.359117 748.08 
L 806.572307 748.08 
L 806.998686 665.068235 
L 807.638255 665.068235 
L 807.851444 706.574118 
L 808.064634 706.574118 
L 808.277823 665.068235 
L 808.704203 665.068235 
L 808.917392 706.574118 
L 809.77015 706.574118 
L 809.98334 665.068235 
L 810.196529 706.574118 
L 814.8867 706.574118 
L 815.099889 748.08 
L 815.313079 706.574118 
L 815.526269 748.08 
L 815.952648 748.08 
L 816.165837 706.574118 
L 816.379027 706.574118 
L 816.592216 665.068235 
L 816.805406 706.574118 
L 817.231785 706.574118 
L 817.444975 665.068235 
L 817.658164 706.574118 
L 818.297733 706.574118 
L 818.510923 665.068235 
L 818.724112 665.068235 
L 818.937302 623.562353 
L 819.57687 623.562353 
L 819.79006 665.068235 
L 820.00325 623.562353 
L 820.216439 665.068235 
L 820.642818 582.056471 
L 821.069197 582.056471 
L 821.282387 665.068235 
L 821.495576 582.056471 
L 821.708766 582.056471 
L 821.921956 623.562353 
L 822.135145 582.056471 
L 822.348335 582.056471 
L 822.561524 623.562353 
L 822.774714 623.562353 
L 822.987903 582.056471 
L 823.201093 623.562353 
L 823.414283 582.056471 
L 823.840662 582.056471 
L 824.053851 540.550588 
L 824.267041 582.056471 
L 824.48023 499.044706 
L 824.69342 540.550588 
L 824.90661 499.044706 
L 825.119799 499.044706 
L 825.332989 582.056471 
L 825.546178 582.056471 
L 825.759368 499.044706 
L 825.972557 540.550588 
L 826.185747 499.044706 
L 826.398936 540.550588 
L 826.612126 457.538824 
L 826.825316 499.044706 
L 827.038505 499.044706 
L 827.251695 457.538824 
L 827.464884 499.044706 
L 827.678074 457.538824 
L 828.104453 457.538824 
L 828.317643 416.032941 
L 828.530832 499.044706 
L 828.957211 416.032941 
L 829.170401 457.538824 
L 829.38359 457.538824 
L 830.023159 333.021176 
L 830.236349 416.032941 
L 830.662728 333.021176 
L 830.875917 333.021176 
L 831.089107 291.515294 
L 831.302296 333.021176 
L 831.515486 291.515294 
L 831.728676 333.021176 
L 831.941865 291.515294 
L 832.368244 374.527059 
L 832.794623 291.515294 
L 833.007813 374.527059 
L 833.221003 333.021176 
L 833.434192 333.021176 
L 833.647382 250.009412 
L 834.073761 333.021176 
L 834.28695 333.021176 
L 834.50014 291.515294 
L 834.926519 374.527059 
L 835.139709 374.527059 
L 835.352898 333.021176 
L 835.779277 333.021176 
L 835.992467 291.515294 
L 836.845225 291.515294 
L 837.058415 333.021176 
L 837.271604 291.515294 
L 837.484794 291.515294 
L 837.697983 250.009412 
L 837.911173 374.527059 
L 838.124363 250.009412 
L 838.550742 374.527059 
L 838.763931 374.527059 
L 838.977121 416.032941 
L 839.19031 374.527059 
L 839.4035 416.032941 
L 839.61669 416.032941 
L 840.043069 499.044706 
L 840.256258 416.032941 
L 840.469448 457.538824 
L 840.682637 416.032941 
L 840.895827 457.538824 
L 841.109016 416.032941 
L 841.322206 457.538824 
L 841.748585 457.538824 
L 841.961775 416.032941 
L 842.174964 416.032941 
L 842.388154 499.044706 
L 842.601343 457.538824 
L 842.814533 457.538824 
L 843.027723 416.032941 
L 843.454102 416.032941 
L 843.667291 374.527059 
L 843.880481 457.538824 
L 844.09367 457.538824 
L 844.52005 374.527059 
L 844.733239 374.527059 
L 844.946429 457.538824 
L 845.159618 416.032941 
L 845.372808 416.032941 
L 845.585997 374.527059 
L 845.799187 416.032941 
L 846.012376 416.032941 
L 846.225566 374.527059 
L 846.438756 457.538824 
L 846.651945 416.032941 
L 846.865135 416.032941 
L 847.078324 374.527059 
L 847.291514 374.527059 
L 847.504703 416.032941 
L 847.931083 416.032941 
L 848.144272 333.021176 
L 848.357462 416.032941 
L 848.570651 333.021176 
L 848.99703 416.032941 
L 849.21022 374.527059 
L 849.636599 374.527059 
L 849.849789 416.032941 
L 850.062978 374.527059 
L 850.276168 416.032941 
L 850.489357 416.032941 
L 850.702547 374.527059 
L 850.915737 416.032941 
L 851.128926 374.527059 
L 851.555305 374.527059 
L 851.768495 333.021176 
L 851.981684 374.527059 
L 852.194874 333.021176 
L 852.408063 333.021176 
L 852.621253 374.527059 
L 852.834443 457.538824 
L 853.047632 457.538824 
L 853.260822 374.527059 
L 853.474011 416.032941 
L 853.687201 291.515294 
L 853.90039 291.515294 
L 854.11358 374.527059 
L 854.32677 374.527059 
L 854.539959 416.032941 
L 854.753149 333.021176 
L 854.966338 333.021176 
L 855.179528 416.032941 
L 855.392717 374.527059 
L 855.605907 416.032941 
L 855.819097 416.032941 
L 856.032286 374.527059 
L 856.245476 416.032941 
L 856.458665 416.032941 
L 856.671855 499.044706 
L 856.885044 499.044706 
L 857.098234 457.538824 
L 857.524613 540.550588 
L 857.950992 540.550588 
L 858.164182 582.056471 
L 858.590561 582.056471 
L 858.80375 540.550588 
L 859.01694 582.056471 
L 859.23013 540.550588 
L 859.443319 582.056471 
L 859.869698 582.056471 
L 860.082888 623.562353 
L 860.296077 623.562353 
L 860.509267 582.056471 
L 860.722457 582.056471 
L 860.935646 623.562353 
L 861.148836 582.056471 
L 861.362025 582.056471 
L 861.575215 623.562353 
L 862.001594 623.562353 
L 862.214783 582.056471 
L 862.641163 665.068235 
L 862.854352 623.562353 
L 864.773058 623.562353 
L 864.986248 582.056471 
L 865.199437 623.562353 
L 865.412627 582.056471 
L 865.839006 665.068235 
L 866.265385 665.068235 
L 866.478575 623.562353 
L 866.691764 665.068235 
L 866.904954 623.562353 
L 867.118143 665.068235 
L 867.970902 665.068235 
L 868.184091 706.574118 
L 868.397281 665.068235 
L 868.61047 665.068235 
L 868.82366 706.574118 
L 869.03685 665.068235 
L 869.250039 706.574118 
L 873.087451 706.574118 
L 873.300641 665.068235 
L 873.51383 706.574118 
L 874.153399 706.574118 
L 874.366589 665.068235 
L 874.579778 706.574118 
L 876.072105 706.574118 
L 876.285295 665.068235 
L 876.498484 665.068235 
L 876.711674 706.574118 
L 877.138053 706.574118 
L 877.351243 748.08 
L 877.564432 706.574118 
L 877.777622 748.08 
L 877.990811 706.574118 
L 878.204001 748.08 
L 878.41719 706.574118 
L 879.483138 706.574118 
L 879.696328 748.08 
L 880.122707 665.068235 
L 880.975465 665.068235 
L 881.188655 706.574118 
L 881.401844 623.562353 
L 881.615034 665.068235 
L 881.828223 623.562353 
L 882.041413 665.068235 
L 882.467792 582.056471 
L 882.680982 665.068235 
L 883.74693 665.068235 
L 883.960119 623.562353 
L 884.173309 665.068235 
L 884.386498 623.562353 
L 884.599688 665.068235 
L 884.812877 623.562353 
L 885.026067 623.562353 
L 885.239257 665.068235 
L 885.665636 582.056471 
L 885.878825 665.068235 
L 886.092015 582.056471 
L 886.731584 582.056471 
L 886.944773 623.562353 
L 887.371152 540.550588 
L 887.797531 540.550588 
L 888.010721 582.056471 
L 888.22391 582.056471 
L 888.4371 540.550588 
L 888.65029 582.056471 
L 889.076669 582.056471 
L 889.289858 623.562353 
L 889.503048 540.550588 
L 890.142617 540.550588 
L 890.355806 582.056471 
L 890.568996 499.044706 
L 890.782185 582.056471 
L 890.995375 540.550588 
L 891.208564 540.550588 
L 891.634944 457.538824 
L 892.061323 540.550588 
L 892.274512 499.044706 
L 892.487702 499.044706 
L 892.914081 416.032941 
L 893.12727 457.538824 
L 893.34046 374.527059 
L 893.55365 540.550588 
L 893.766839 457.538824 
L 893.980029 540.550588 
L 894.193218 457.538824 
L 894.406408 499.044706 
L 894.619597 457.538824 
L 894.832787 457.538824 
L 895.045977 374.527059 
L 895.259166 457.538824 
L 895.472356 374.527059 
L 895.685545 457.538824 
L 895.898735 457.538824 
L 896.111924 416.032941 
L 896.538304 499.044706 
L 896.751493 499.044706 
L 896.964683 416.032941 
L 897.177872 457.538824 
L 897.817441 457.538824 
L 898.03063 374.527059 
L 898.24382 457.538824 
L 899.096578 457.538824 
L 899.309768 499.044706 
L 899.736147 416.032941 
L 900.162526 540.550588 
L 900.588905 540.550588 
L 900.802095 582.056471 
L 901.015284 540.550588 
L 901.228474 582.056471 
L 901.441664 540.550588 
L 901.654853 582.056471 
L 901.868043 540.550588 
L 902.081232 540.550588 
L 902.294422 582.056471 
L 902.93399 582.056471 
L 903.14718 540.550588 
L 903.36037 623.562353 
L 903.786749 540.550588 
L 904.426317 540.550588 
L 904.639507 582.056471 
L 904.852697 540.550588 
L 905.065886 540.550588 
L 905.279076 582.056471 
L 905.492265 499.044706 
L 905.705455 540.550588 
L 905.918644 499.044706 
L 906.131834 540.550588 
L 906.558213 540.550588 
L 906.771403 499.044706 
L 906.984592 499.044706 
L 907.197782 540.550588 
L 907.624161 540.550588 
L 907.83735 582.056471 
L 908.05054 499.044706 
L 908.26373 499.044706 
L 908.476919 457.538824 
L 908.690109 540.550588 
L 908.903298 457.538824 
L 909.756057 457.538824 
L 909.969246 540.550588 
L 910.182436 540.550588 
L 910.395625 499.044706 
L 910.822004 499.044706 
L 911.035194 540.550588 
L 911.461573 540.550588 
L 911.674763 457.538824 
L 911.887952 540.550588 
L 912.101142 540.550588 
L 912.314331 582.056471 
L 912.527521 499.044706 
L 912.9539 623.562353 
L 913.16709 582.056471 
L 913.380279 665.068235 
L 913.593469 665.068235 
L 913.806658 706.574118 
L 914.019848 623.562353 
L 914.233037 665.068235 
L 914.872606 665.068235 
L 915.085796 623.562353 
L 915.298985 499.044706 
L 915.512175 499.044706 
L 915.725364 457.538824 
L 915.938554 499.044706 
L 916.151744 499.044706 
L 916.364933 540.550588 
L 916.578123 540.550588 
L 917.004502 457.538824 
L 917.217691 499.044706 
L 917.430881 457.538824 
L 917.644071 499.044706 
L 917.85726 582.056471 
L 918.283639 582.056471 
L 918.496829 623.562353 
L 918.710018 623.562353 
L 918.923208 582.056471 
L 919.562777 582.056471 
L 919.775966 623.562353 
L 919.989156 582.056471 
L 920.202345 623.562353 
L 920.415535 582.056471 
L 920.628724 623.562353 
L 920.841914 623.562353 
L 921.055104 665.068235 
L 921.268293 623.562353 
L 921.481483 665.068235 
L 921.694672 623.562353 
L 921.907862 665.068235 
L 922.334241 665.068235 
L 922.547431 623.562353 
L 922.76062 665.068235 
L 922.97381 665.068235 
L 923.186999 623.562353 
L 923.613378 623.562353 
L 923.826568 665.068235 
L 924.466137 665.068235 
L 924.679326 706.574118 
L 924.892516 665.068235 
L 925.745274 665.068235 
L 925.958464 706.574118 
L 926.811222 706.574118 
L 927.024411 665.068235 
L 927.237601 706.574118 
L 928.729928 706.574118 
L 928.943117 748.08 
L 929.156307 706.574118 
L 929.369497 748.08 
L 929.795876 748.08 
L 930.009065 706.574118 
L 930.222255 706.574118 
L 930.435444 748.08 
L 930.648634 706.574118 
L 930.861824 748.08 
L 931.075013 706.574118 
L 931.288203 748.08 
L 934.699236 748.08 
L 934.912425 706.574118 
L 935.125615 748.08 
L 935.765184 748.08 
L 935.978373 706.574118 
L 936.191563 748.08 
L 936.831131 748.08 
L 937.044321 706.574118 
L 937.257511 748.08 
L 937.4707 706.574118 
L 937.68389 748.08 
L 937.897079 706.574118 
L 938.110269 748.08 
L 938.323458 706.574118 
L 938.536648 748.08 
L 938.749837 706.574118 
L 939.815785 706.574118 
L 940.028975 748.08 
L 940.242164 706.574118 
L 940.881733 706.574118 
L 941.094923 665.068235 
L 941.308112 665.068235 
L 941.521302 623.562353 
L 942.160871 623.562353 
L 942.37406 582.056471 
L 942.58725 623.562353 
L 942.800439 499.044706 
L 943.013629 540.550588 
L 943.440008 416.032941 
L 943.866387 333.021176 
L 944.079577 416.032941 
L 944.292766 416.032941 
L 944.505956 333.021176 
L 944.719145 374.527059 
L 944.932335 333.021176 
L 945.358714 416.032941 
L 945.571904 374.527059 
L 945.785093 374.527059 
L 946.211472 457.538824 
L 946.424662 416.032941 
L 947.49061 416.032941 
L 947.49061 416.032941 
" clip-path="url(#p26f393fa64)" style="fill: none; stroke: #1f77b4; stroke-width: 1.5; stroke-linecap: square"/>
   </g>
   <g id="line2d_36">
    <path d="M 947.703799 416.032941 
L 949.409316 416.032941 
L 949.622505 374.527059 
L 951.328022 374.527059 
L 951.541211 333.021176 
L 958.363278 333.021176 
L 958.576467 291.515294 
L 958.789657 333.021176 
L 959.002846 291.515294 
L 963.479827 291.515294 
L 963.693017 333.021176 
L 967.10405 333.021176 
L 967.317239 374.527059 
L 968.809566 374.527059 
L 969.022756 416.032941 
L 970.515083 416.032941 
L 970.728272 457.538824 
L 971.79422 457.538824 
L 972.00741 499.044706 
L 974.139305 499.044706 
L 974.352495 457.538824 
L 979.469045 457.538824 
L 979.682234 499.044706 
L 980.321803 499.044706 
L 980.534992 540.550588 
L 981.174561 540.550588 
L 981.387751 582.056471 
L 982.027319 582.056471 
L 982.240509 623.562353 
L 983.519646 623.562353 
L 983.732836 665.068235 
L 985.651542 665.068235 
L 985.864731 706.574118 
L 990.341712 706.574118 
L 990.554902 748.08 
L 999.935243 748.08 
L 1000.148432 706.574118 
L 1000.788001 706.574118 
L 1001.001191 665.068235 
L 1001.42757 665.068235 
L 1001.640759 623.562353 
L 1002.067138 623.562353 
L 1002.280328 582.056471 
L 1002.706707 582.056471 
L 1002.919897 540.550588 
L 1003.133086 540.550588 
L 1003.346276 499.044706 
L 1003.985845 499.044706 
L 1004.199034 457.538824 
L 1004.838603 457.538824 
L 1005.051792 416.032941 
L 1006.544119 416.032941 
L 1006.757309 374.527059 
L 1008.889205 374.527059 
L 1008.889205 374.527059 
" clip-path="url(#p26f393fa64)" style="fill: none; stroke: #ff0000; stroke-width: 1.5; stroke-linecap: square"/>
   </g>
   <g id="patch_3">
    <path d="M 50.14375 783.36 
L 50.14375 7.2 
" style="fill: none; stroke: #000000; stroke-width: 0.8; stroke-linejoin: miter; stroke-linecap: square"/>
   </g>
   <g id="patch_4">
    <path d="M 1054.54375 783.36 
L 1054.54375 7.2 
" style="fill: none; stroke: #000000; stroke-width: 0.8; stroke-linejoin: miter; stroke-linecap: square"/>
   </g>
   <g id="patch_5">
    <path d="M 50.14375 783.36 
L 1054.54375 783.36 
" style="fill: none; stroke: #000000; stroke-width: 0.8; stroke-linejoin: miter; stroke-linecap: square"/>
   </g>
   <g id="patch_6">
    <path d="M 50.14375 7.2 
L 1054.54375 7.2 
" style="fill: none; stroke: #000000; stroke-width: 0.8; stroke-linejoin: miter; stroke-linecap: square"/>
   </g>
  </g>
 </g>
 <defs>
  <clipPath id="p26f393fa64">
   <rect x="50.14375" y="7.2" width="1004.4" height="776.16"/>
  </clipPath>
 </defs>
</svg>
