<?xml version="1.0" encoding="utf-8" standalone="no"?>
<!DOCTYPE svg PUBLIC "-//W3C//DTD SVG 1.1//EN"
  "http://www.w3.org/Graphics/SVG/1.1/DTD/svg11.dtd">
<svg xmlns:xlink="http://www.w3.org/1999/xlink" width="1069.48625pt" height="828.65875pt" viewBox="0 0 1069.48625 828.65875" xmlns="http://www.w3.org/2000/svg" version="1.1">
 <metadata>
  <rdf:RDF xmlns:dc="http://purl.org/dc/elements/1.1/" xmlns:cc="http://creativecommons.org/ns#" xmlns:rdf="http://www.w3.org/1999/02/22-rdf-syntax-ns#">
   <cc:Work>
    <dc:type rdf:resource="http://purl.org/dc/dcmitype/StillImage"/>
    <dc:date>2022-10-10T15:47:31.207884</dc:date>
    <dc:format>image/svg+xml</dc:format>
    <dc:creator>
     <cc:Agent>
      <dc:title>Matplotlib v3.6.0, https://matplotlib.org/</dc:title>
     </cc:Agent>
    </dc:creator>
   </cc:Work>
  </rdf:RDF>
 </metadata>
 <defs>
  <style type="text/css">*{stroke-linejoin: round; stroke-linecap: butt}</style>
 </defs>
 <g id="figure_1">
  <g id="patch_1">
   <path d="M 0 828.65875 
L 1069.48625 828.65875 
L 1069.48625 0 
L 0 0 
z
" style="fill: #ffffff"/>
  </g>
  <g id="axes_1">
   <g id="patch_2">
    <path d="M 57.88625 783.36 
L 1062.28625 783.36 
L 1062.28625 7.2 
L 57.88625 7.2 
z
" style="fill: #dcdcdc"/>
   </g>
   <g id="matplotlib.axis_1">
    <g id="xtick_1">
     <g id="line2d_1">
      <path d="M 76.113784 783.36 
L 76.113784 7.2 
" clip-path="url(#p957f6cce6b)" style="fill: none; stroke: #ffffff; stroke-width: 0.8; stroke-linecap: square"/>
     </g>
     <g id="line2d_2">
      <defs>
       <path id="med4128dfdd" d="M 0 0 
L 0 3.5 
" style="stroke: #000000; stroke-width: 0.8"/>
      </defs>
      <g>
       <use xlink:href="#med4128dfdd" x="76.113784" y="783.36" style="stroke: #000000; stroke-width: 0.8"/>
      </g>
     </g>
     <g id="text_1">
      <!-- 2022-05-09 -->
      <g transform="translate(47.055972 797.958437) scale(0.1 -0.1)">
       <defs>
        <path id="DejaVuSans-32" d="M 1228 531 
L 3431 531 
L 3431 0 
L 469 0 
L 469 531 
Q 828 903 1448 1529 
Q 2069 2156 2228 2338 
Q 2531 2678 2651 2914 
Q 2772 3150 2772 3378 
Q 2772 3750 2511 3984 
Q 2250 4219 1831 4219 
Q 1534 4219 1204 4116 
Q 875 4013 500 3803 
L 500 4441 
Q 881 4594 1212 4672 
Q 1544 4750 1819 4750 
Q 2544 4750 2975 4387 
Q 3406 4025 3406 3419 
Q 3406 3131 3298 2873 
Q 3191 2616 2906 2266 
Q 2828 2175 2409 1742 
Q 1991 1309 1228 531 
z
" transform="scale(0.015625)"/>
        <path id="DejaVuSans-30" d="M 2034 4250 
Q 1547 4250 1301 3770 
Q 1056 3291 1056 2328 
Q 1056 1369 1301 889 
Q 1547 409 2034 409 
Q 2525 409 2770 889 
Q 3016 1369 3016 2328 
Q 3016 3291 2770 3770 
Q 2525 4250 2034 4250 
z
M 2034 4750 
Q 2819 4750 3233 4129 
Q 3647 3509 3647 2328 
Q 3647 1150 3233 529 
Q 2819 -91 2034 -91 
Q 1250 -91 836 529 
Q 422 1150 422 2328 
Q 422 3509 836 4129 
Q 1250 4750 2034 4750 
z
" transform="scale(0.015625)"/>
        <path id="DejaVuSans-2d" d="M 313 2009 
L 1997 2009 
L 1997 1497 
L 313 1497 
L 313 2009 
z
" transform="scale(0.015625)"/>
        <path id="DejaVuSans-35" d="M 691 4666 
L 3169 4666 
L 3169 4134 
L 1269 4134 
L 1269 2991 
Q 1406 3038 1543 3061 
Q 1681 3084 1819 3084 
Q 2600 3084 3056 2656 
Q 3513 2228 3513 1497 
Q 3513 744 3044 326 
Q 2575 -91 1722 -91 
Q 1428 -91 1123 -41 
Q 819 9 494 109 
L 494 744 
Q 775 591 1075 516 
Q 1375 441 1709 441 
Q 2250 441 2565 725 
Q 2881 1009 2881 1497 
Q 2881 1984 2565 2268 
Q 2250 2553 1709 2553 
Q 1456 2553 1204 2497 
Q 953 2441 691 2322 
L 691 4666 
z
" transform="scale(0.015625)"/>
        <path id="DejaVuSans-39" d="M 703 97 
L 703 672 
Q 941 559 1184 500 
Q 1428 441 1663 441 
Q 2288 441 2617 861 
Q 2947 1281 2994 2138 
Q 2813 1869 2534 1725 
Q 2256 1581 1919 1581 
Q 1219 1581 811 2004 
Q 403 2428 403 3163 
Q 403 3881 828 4315 
Q 1253 4750 1959 4750 
Q 2769 4750 3195 4129 
Q 3622 3509 3622 2328 
Q 3622 1225 3098 567 
Q 2575 -91 1691 -91 
Q 1453 -91 1209 -44 
Q 966 3 703 97 
z
M 1959 2075 
Q 2384 2075 2632 2365 
Q 2881 2656 2881 3163 
Q 2881 3666 2632 3958 
Q 2384 4250 1959 4250 
Q 1534 4250 1286 3958 
Q 1038 3666 1038 3163 
Q 1038 2656 1286 2365 
Q 1534 2075 1959 2075 
z
" transform="scale(0.015625)"/>
       </defs>
       <use xlink:href="#DejaVuSans-32"/>
       <use xlink:href="#DejaVuSans-30" x="63.623047"/>
       <use xlink:href="#DejaVuSans-32" x="127.246094"/>
       <use xlink:href="#DejaVuSans-32" x="190.869141"/>
       <use xlink:href="#DejaVuSans-2d" x="254.492188"/>
       <use xlink:href="#DejaVuSans-30" x="290.576172"/>
       <use xlink:href="#DejaVuSans-35" x="354.199219"/>
       <use xlink:href="#DejaVuSans-2d" x="417.822266"/>
       <use xlink:href="#DejaVuSans-30" x="453.90625"/>
       <use xlink:href="#DejaVuSans-39" x="517.529297"/>
      </g>
     </g>
    </g>
    <g id="xtick_2">
     <g id="line2d_3">
      <path d="M 207.763437 783.36 
L 207.763437 7.2 
" clip-path="url(#p957f6cce6b)" style="fill: none; stroke: #ffffff; stroke-width: 0.8; stroke-linecap: square"/>
     </g>
     <g id="line2d_4">
      <g>
       <use xlink:href="#med4128dfdd" x="207.763437" y="783.36" style="stroke: #000000; stroke-width: 0.8"/>
      </g>
     </g>
     <g id="text_2">
      <!-- 2022-05-11 -->
      <g transform="translate(178.705625 797.958437) scale(0.1 -0.1)">
       <defs>
        <path id="DejaVuSans-31" d="M 794 531 
L 1825 531 
L 1825 4091 
L 703 3866 
L 703 4441 
L 1819 4666 
L 2450 4666 
L 2450 531 
L 3481 531 
L 3481 0 
L 794 0 
L 794 531 
z
" transform="scale(0.015625)"/>
       </defs>
       <use xlink:href="#DejaVuSans-32"/>
       <use xlink:href="#DejaVuSans-30" x="63.623047"/>
       <use xlink:href="#DejaVuSans-32" x="127.246094"/>
       <use xlink:href="#DejaVuSans-32" x="190.869141"/>
       <use xlink:href="#DejaVuSans-2d" x="254.492188"/>
       <use xlink:href="#DejaVuSans-30" x="290.576172"/>
       <use xlink:href="#DejaVuSans-35" x="354.199219"/>
       <use xlink:href="#DejaVuSans-2d" x="417.822266"/>
       <use xlink:href="#DejaVuSans-31" x="453.90625"/>
       <use xlink:href="#DejaVuSans-31" x="517.529297"/>
      </g>
     </g>
    </g>
    <g id="xtick_3">
     <g id="line2d_5">
      <path d="M 339.41309 783.36 
L 339.41309 7.2 
" clip-path="url(#p957f6cce6b)" style="fill: none; stroke: #ffffff; stroke-width: 0.8; stroke-linecap: square"/>
     </g>
     <g id="line2d_6">
      <g>
       <use xlink:href="#med4128dfdd" x="339.41309" y="783.36" style="stroke: #000000; stroke-width: 0.8"/>
      </g>
     </g>
     <g id="text_3">
      <!-- 2022-05-13 -->
      <g transform="translate(310.355278 797.958437) scale(0.1 -0.1)">
       <defs>
        <path id="DejaVuSans-33" d="M 2597 2516 
Q 3050 2419 3304 2112 
Q 3559 1806 3559 1356 
Q 3559 666 3084 287 
Q 2609 -91 1734 -91 
Q 1441 -91 1130 -33 
Q 819 25 488 141 
L 488 750 
Q 750 597 1062 519 
Q 1375 441 1716 441 
Q 2309 441 2620 675 
Q 2931 909 2931 1356 
Q 2931 1769 2642 2001 
Q 2353 2234 1838 2234 
L 1294 2234 
L 1294 2753 
L 1863 2753 
Q 2328 2753 2575 2939 
Q 2822 3125 2822 3475 
Q 2822 3834 2567 4026 
Q 2313 4219 1838 4219 
Q 1578 4219 1281 4162 
Q 984 4106 628 3988 
L 628 4550 
Q 988 4650 1302 4700 
Q 1616 4750 1894 4750 
Q 2613 4750 3031 4423 
Q 3450 4097 3450 3541 
Q 3450 3153 3228 2886 
Q 3006 2619 2597 2516 
z
" transform="scale(0.015625)"/>
       </defs>
       <use xlink:href="#DejaVuSans-32"/>
       <use xlink:href="#DejaVuSans-30" x="63.623047"/>
       <use xlink:href="#DejaVuSans-32" x="127.246094"/>
       <use xlink:href="#DejaVuSans-32" x="190.869141"/>
       <use xlink:href="#DejaVuSans-2d" x="254.492188"/>
       <use xlink:href="#DejaVuSans-30" x="290.576172"/>
       <use xlink:href="#DejaVuSans-35" x="354.199219"/>
       <use xlink:href="#DejaVuSans-2d" x="417.822266"/>
       <use xlink:href="#DejaVuSans-31" x="453.90625"/>
       <use xlink:href="#DejaVuSans-33" x="517.529297"/>
      </g>
     </g>
    </g>
    <g id="xtick_4">
     <g id="line2d_7">
      <path d="M 471.062743 783.36 
L 471.062743 7.2 
" clip-path="url(#p957f6cce6b)" style="fill: none; stroke: #ffffff; stroke-width: 0.8; stroke-linecap: square"/>
     </g>
     <g id="line2d_8">
      <g>
       <use xlink:href="#med4128dfdd" x="471.062743" y="783.36" style="stroke: #000000; stroke-width: 0.8"/>
      </g>
     </g>
     <g id="text_4">
      <!-- 2022-05-15 -->
      <g transform="translate(442.004931 797.958437) scale(0.1 -0.1)">
       <use xlink:href="#DejaVuSans-32"/>
       <use xlink:href="#DejaVuSans-30" x="63.623047"/>
       <use xlink:href="#DejaVuSans-32" x="127.246094"/>
       <use xlink:href="#DejaVuSans-32" x="190.869141"/>
       <use xlink:href="#DejaVuSans-2d" x="254.492188"/>
       <use xlink:href="#DejaVuSans-30" x="290.576172"/>
       <use xlink:href="#DejaVuSans-35" x="354.199219"/>
       <use xlink:href="#DejaVuSans-2d" x="417.822266"/>
       <use xlink:href="#DejaVuSans-31" x="453.90625"/>
       <use xlink:href="#DejaVuSans-35" x="517.529297"/>
      </g>
     </g>
    </g>
    <g id="xtick_5">
     <g id="line2d_9">
      <path d="M 602.712396 783.36 
L 602.712396 7.2 
" clip-path="url(#p957f6cce6b)" style="fill: none; stroke: #ffffff; stroke-width: 0.8; stroke-linecap: square"/>
     </g>
     <g id="line2d_10">
      <g>
       <use xlink:href="#med4128dfdd" x="602.712396" y="783.36" style="stroke: #000000; stroke-width: 0.8"/>
      </g>
     </g>
     <g id="text_5">
      <!-- 2022-05-17 -->
      <g transform="translate(573.654584 797.958437) scale(0.1 -0.1)">
       <defs>
        <path id="DejaVuSans-37" d="M 525 4666 
L 3525 4666 
L 3525 4397 
L 1831 0 
L 1172 0 
L 2766 4134 
L 525 4134 
L 525 4666 
z
" transform="scale(0.015625)"/>
       </defs>
       <use xlink:href="#DejaVuSans-32"/>
       <use xlink:href="#DejaVuSans-30" x="63.623047"/>
       <use xlink:href="#DejaVuSans-32" x="127.246094"/>
       <use xlink:href="#DejaVuSans-32" x="190.869141"/>
       <use xlink:href="#DejaVuSans-2d" x="254.492188"/>
       <use xlink:href="#DejaVuSans-30" x="290.576172"/>
       <use xlink:href="#DejaVuSans-35" x="354.199219"/>
       <use xlink:href="#DejaVuSans-2d" x="417.822266"/>
       <use xlink:href="#DejaVuSans-31" x="453.90625"/>
       <use xlink:href="#DejaVuSans-37" x="517.529297"/>
      </g>
     </g>
    </g>
    <g id="xtick_6">
     <g id="line2d_11">
      <path d="M 734.362049 783.36 
L 734.362049 7.2 
" clip-path="url(#p957f6cce6b)" style="fill: none; stroke: #ffffff; stroke-width: 0.8; stroke-linecap: square"/>
     </g>
     <g id="line2d_12">
      <g>
       <use xlink:href="#med4128dfdd" x="734.362049" y="783.36" style="stroke: #000000; stroke-width: 0.8"/>
      </g>
     </g>
     <g id="text_6">
      <!-- 2022-05-19 -->
      <g transform="translate(705.304237 797.958437) scale(0.1 -0.1)">
       <use xlink:href="#DejaVuSans-32"/>
       <use xlink:href="#DejaVuSans-30" x="63.623047"/>
       <use xlink:href="#DejaVuSans-32" x="127.246094"/>
       <use xlink:href="#DejaVuSans-32" x="190.869141"/>
       <use xlink:href="#DejaVuSans-2d" x="254.492188"/>
       <use xlink:href="#DejaVuSans-30" x="290.576172"/>
       <use xlink:href="#DejaVuSans-35" x="354.199219"/>
       <use xlink:href="#DejaVuSans-2d" x="417.822266"/>
       <use xlink:href="#DejaVuSans-31" x="453.90625"/>
       <use xlink:href="#DejaVuSans-39" x="517.529297"/>
      </g>
     </g>
    </g>
    <g id="xtick_7">
     <g id="line2d_13">
      <path d="M 866.011702 783.36 
L 866.011702 7.2 
" clip-path="url(#p957f6cce6b)" style="fill: none; stroke: #ffffff; stroke-width: 0.8; stroke-linecap: square"/>
     </g>
     <g id="line2d_14">
      <g>
       <use xlink:href="#med4128dfdd" x="866.011702" y="783.36" style="stroke: #000000; stroke-width: 0.8"/>
      </g>
     </g>
     <g id="text_7">
      <!-- 2022-05-21 -->
      <g transform="translate(836.95389 797.958437) scale(0.1 -0.1)">
       <use xlink:href="#DejaVuSans-32"/>
       <use xlink:href="#DejaVuSans-30" x="63.623047"/>
       <use xlink:href="#DejaVuSans-32" x="127.246094"/>
       <use xlink:href="#DejaVuSans-32" x="190.869141"/>
       <use xlink:href="#DejaVuSans-2d" x="254.492188"/>
       <use xlink:href="#DejaVuSans-30" x="290.576172"/>
       <use xlink:href="#DejaVuSans-35" x="354.199219"/>
       <use xlink:href="#DejaVuSans-2d" x="417.822266"/>
       <use xlink:href="#DejaVuSans-32" x="453.90625"/>
       <use xlink:href="#DejaVuSans-31" x="517.529297"/>
      </g>
     </g>
    </g>
    <g id="xtick_8">
     <g id="line2d_15">
      <path d="M 997.661355 783.36 
L 997.661355 7.2 
" clip-path="url(#p957f6cce6b)" style="fill: none; stroke: #ffffff; stroke-width: 0.8; stroke-linecap: square"/>
     </g>
     <g id="line2d_16">
      <g>
       <use xlink:href="#med4128dfdd" x="997.661355" y="783.36" style="stroke: #000000; stroke-width: 0.8"/>
      </g>
     </g>
     <g id="text_8">
      <!-- 2022-05-23 -->
      <g transform="translate(968.603543 797.958437) scale(0.1 -0.1)">
       <use xlink:href="#DejaVuSans-32"/>
       <use xlink:href="#DejaVuSans-30" x="63.623047"/>
       <use xlink:href="#DejaVuSans-32" x="127.246094"/>
       <use xlink:href="#DejaVuSans-32" x="190.869141"/>
       <use xlink:href="#DejaVuSans-2d" x="254.492188"/>
       <use xlink:href="#DejaVuSans-30" x="290.576172"/>
       <use xlink:href="#DejaVuSans-35" x="354.199219"/>
       <use xlink:href="#DejaVuSans-2d" x="417.822266"/>
       <use xlink:href="#DejaVuSans-32" x="453.90625"/>
       <use xlink:href="#DejaVuSans-33" x="517.529297"/>
      </g>
     </g>
    </g>
    <g id="text_9">
     <!-- Date -->
     <g transform="translate(538.574844 817.715312) scale(0.18 -0.18)">
      <defs>
       <path id="DejaVuSans-44" d="M 1259 4147 
L 1259 519 
L 2022 519 
Q 2988 519 3436 956 
Q 3884 1394 3884 2338 
Q 3884 3275 3436 3711 
Q 2988 4147 2022 4147 
L 1259 4147 
z
M 628 4666 
L 1925 4666 
Q 3281 4666 3915 4102 
Q 4550 3538 4550 2338 
Q 4550 1131 3912 565 
Q 3275 0 1925 0 
L 628 0 
L 628 4666 
z
" transform="scale(0.015625)"/>
       <path id="DejaVuSans-61" d="M 2194 1759 
Q 1497 1759 1228 1600 
Q 959 1441 959 1056 
Q 959 750 1161 570 
Q 1363 391 1709 391 
Q 2188 391 2477 730 
Q 2766 1069 2766 1631 
L 2766 1759 
L 2194 1759 
z
M 3341 1997 
L 3341 0 
L 2766 0 
L 2766 531 
Q 2569 213 2275 61 
Q 1981 -91 1556 -91 
Q 1019 -91 701 211 
Q 384 513 384 1019 
Q 384 1609 779 1909 
Q 1175 2209 1959 2209 
L 2766 2209 
L 2766 2266 
Q 2766 2663 2505 2880 
Q 2244 3097 1772 3097 
Q 1472 3097 1187 3025 
Q 903 2953 641 2809 
L 641 3341 
Q 956 3463 1253 3523 
Q 1550 3584 1831 3584 
Q 2591 3584 2966 3190 
Q 3341 2797 3341 1997 
z
" transform="scale(0.015625)"/>
       <path id="DejaVuSans-74" d="M 1172 4494 
L 1172 3500 
L 2356 3500 
L 2356 3053 
L 1172 3053 
L 1172 1153 
Q 1172 725 1289 603 
Q 1406 481 1766 481 
L 2356 481 
L 2356 0 
L 1766 0 
Q 1100 0 847 248 
Q 594 497 594 1153 
L 594 3053 
L 172 3053 
L 172 3500 
L 594 3500 
L 594 4494 
L 1172 4494 
z
" transform="scale(0.015625)"/>
       <path id="DejaVuSans-65" d="M 3597 1894 
L 3597 1613 
L 953 1613 
Q 991 1019 1311 708 
Q 1631 397 2203 397 
Q 2534 397 2845 478 
Q 3156 559 3463 722 
L 3463 178 
Q 3153 47 2828 -22 
Q 2503 -91 2169 -91 
Q 1331 -91 842 396 
Q 353 884 353 1716 
Q 353 2575 817 3079 
Q 1281 3584 2069 3584 
Q 2775 3584 3186 3129 
Q 3597 2675 3597 1894 
z
M 3022 2063 
Q 3016 2534 2758 2815 
Q 2500 3097 2075 3097 
Q 1594 3097 1305 2825 
Q 1016 2553 972 2059 
L 3022 2063 
z
" transform="scale(0.015625)"/>
      </defs>
      <use xlink:href="#DejaVuSans-44"/>
      <use xlink:href="#DejaVuSans-61" x="77.001953"/>
      <use xlink:href="#DejaVuSans-74" x="138.28125"/>
      <use xlink:href="#DejaVuSans-65" x="177.490234"/>
     </g>
    </g>
   </g>
   <g id="matplotlib.axis_2">
    <g id="ytick_1">
     <g id="line2d_17">
      <path d="M 57.88625 748.08 
L 1062.28625 748.08 
" clip-path="url(#p957f6cce6b)" style="fill: none; stroke: #ffffff; stroke-width: 0.8; stroke-linecap: square"/>
     </g>
     <g id="line2d_18">
      <defs>
       <path id="mdc5c0a5351" d="M 0 0 
L -3.5 0 
" style="stroke: #000000; stroke-width: 0.8"/>
      </defs>
      <g>
       <use xlink:href="#mdc5c0a5351" x="57.88625" y="748.08" style="stroke: #000000; stroke-width: 0.8"/>
      </g>
     </g>
     <g id="text_10">
      <!-- 0.0 -->
      <g transform="translate(34.983125 751.879219) scale(0.1 -0.1)">
       <defs>
        <path id="DejaVuSans-2e" d="M 684 794 
L 1344 794 
L 1344 0 
L 684 0 
L 684 794 
z
" transform="scale(0.015625)"/>
       </defs>
       <use xlink:href="#DejaVuSans-30"/>
       <use xlink:href="#DejaVuSans-2e" x="63.623047"/>
       <use xlink:href="#DejaVuSans-30" x="95.410156"/>
      </g>
     </g>
    </g>
    <g id="ytick_2">
     <g id="line2d_19">
      <path d="M 57.88625 644.315294 
L 1062.28625 644.315294 
" clip-path="url(#p957f6cce6b)" style="fill: none; stroke: #ffffff; stroke-width: 0.8; stroke-linecap: square"/>
     </g>
     <g id="line2d_20">
      <g>
       <use xlink:href="#mdc5c0a5351" x="57.88625" y="644.315294" style="stroke: #000000; stroke-width: 0.8"/>
      </g>
     </g>
     <g id="text_11">
      <!-- 2.5 -->
      <g transform="translate(34.983125 648.114513) scale(0.1 -0.1)">
       <use xlink:href="#DejaVuSans-32"/>
       <use xlink:href="#DejaVuSans-2e" x="63.623047"/>
       <use xlink:href="#DejaVuSans-35" x="95.410156"/>
      </g>
     </g>
    </g>
    <g id="ytick_3">
     <g id="line2d_21">
      <path d="M 57.88625 540.550588 
L 1062.28625 540.550588 
" clip-path="url(#p957f6cce6b)" style="fill: none; stroke: #ffffff; stroke-width: 0.8; stroke-linecap: square"/>
     </g>
     <g id="line2d_22">
      <g>
       <use xlink:href="#mdc5c0a5351" x="57.88625" y="540.550588" style="stroke: #000000; stroke-width: 0.8"/>
      </g>
     </g>
     <g id="text_12">
      <!-- 5.0 -->
      <g transform="translate(34.983125 544.349807) scale(0.1 -0.1)">
       <use xlink:href="#DejaVuSans-35"/>
       <use xlink:href="#DejaVuSans-2e" x="63.623047"/>
       <use xlink:href="#DejaVuSans-30" x="95.410156"/>
      </g>
     </g>
    </g>
    <g id="ytick_4">
     <g id="line2d_23">
      <path d="M 57.88625 436.785882 
L 1062.28625 436.785882 
" clip-path="url(#p957f6cce6b)" style="fill: none; stroke: #ffffff; stroke-width: 0.8; stroke-linecap: square"/>
     </g>
     <g id="line2d_24">
      <g>
       <use xlink:href="#mdc5c0a5351" x="57.88625" y="436.785882" style="stroke: #000000; stroke-width: 0.8"/>
      </g>
     </g>
     <g id="text_13">
      <!-- 7.5 -->
      <g transform="translate(34.983125 440.585101) scale(0.1 -0.1)">
       <use xlink:href="#DejaVuSans-37"/>
       <use xlink:href="#DejaVuSans-2e" x="63.623047"/>
       <use xlink:href="#DejaVuSans-35" x="95.410156"/>
      </g>
     </g>
    </g>
    <g id="ytick_5">
     <g id="line2d_25">
      <path d="M 57.88625 333.021176 
L 1062.28625 333.021176 
" clip-path="url(#p957f6cce6b)" style="fill: none; stroke: #ffffff; stroke-width: 0.8; stroke-linecap: square"/>
     </g>
     <g id="line2d_26">
      <g>
       <use xlink:href="#mdc5c0a5351" x="57.88625" y="333.021176" style="stroke: #000000; stroke-width: 0.8"/>
      </g>
     </g>
     <g id="text_14">
      <!-- 10.0 -->
      <g transform="translate(28.620625 336.820395) scale(0.1 -0.1)">
       <use xlink:href="#DejaVuSans-31"/>
       <use xlink:href="#DejaVuSans-30" x="63.623047"/>
       <use xlink:href="#DejaVuSans-2e" x="127.246094"/>
       <use xlink:href="#DejaVuSans-30" x="159.033203"/>
      </g>
     </g>
    </g>
    <g id="ytick_6">
     <g id="line2d_27">
      <path d="M 57.88625 229.256471 
L 1062.28625 229.256471 
" clip-path="url(#p957f6cce6b)" style="fill: none; stroke: #ffffff; stroke-width: 0.8; stroke-linecap: square"/>
     </g>
     <g id="line2d_28">
      <g>
       <use xlink:href="#mdc5c0a5351" x="57.88625" y="229.256471" style="stroke: #000000; stroke-width: 0.8"/>
      </g>
     </g>
     <g id="text_15">
      <!-- 12.5 -->
      <g transform="translate(28.620625 233.055689) scale(0.1 -0.1)">
       <use xlink:href="#DejaVuSans-31"/>
       <use xlink:href="#DejaVuSans-32" x="63.623047"/>
       <use xlink:href="#DejaVuSans-2e" x="127.246094"/>
       <use xlink:href="#DejaVuSans-35" x="159.033203"/>
      </g>
     </g>
    </g>
    <g id="ytick_7">
     <g id="line2d_29">
      <path d="M 57.88625 125.491765 
L 1062.28625 125.491765 
" clip-path="url(#p957f6cce6b)" style="fill: none; stroke: #ffffff; stroke-width: 0.8; stroke-linecap: square"/>
     </g>
     <g id="line2d_30">
      <g>
       <use xlink:href="#mdc5c0a5351" x="57.88625" y="125.491765" style="stroke: #000000; stroke-width: 0.8"/>
      </g>
     </g>
     <g id="text_16">
      <!-- 15.0 -->
      <g transform="translate(28.620625 129.290983) scale(0.1 -0.1)">
       <use xlink:href="#DejaVuSans-31"/>
       <use xlink:href="#DejaVuSans-35" x="63.623047"/>
       <use xlink:href="#DejaVuSans-2e" x="127.246094"/>
       <use xlink:href="#DejaVuSans-30" x="159.033203"/>
      </g>
     </g>
    </g>
    <g id="ytick_8">
     <g id="line2d_31">
      <path d="M 57.88625 21.727059 
L 1062.28625 21.727059 
" clip-path="url(#p957f6cce6b)" style="fill: none; stroke: #ffffff; stroke-width: 0.8; stroke-linecap: square"/>
     </g>
     <g id="line2d_32">
      <g>
       <use xlink:href="#mdc5c0a5351" x="57.88625" y="21.727059" style="stroke: #000000; stroke-width: 0.8"/>
      </g>
     </g>
     <g id="text_17">
      <!-- 17.5 -->
      <g transform="translate(28.620625 25.526278) scale(0.1 -0.1)">
       <use xlink:href="#DejaVuSans-31"/>
       <use xlink:href="#DejaVuSans-37" x="63.623047"/>
       <use xlink:href="#DejaVuSans-2e" x="127.246094"/>
       <use xlink:href="#DejaVuSans-35" x="159.033203"/>
      </g>
     </g>
    </g>
    <g id="text_18">
     <!-- Vehicles -->
     <g transform="translate(20.877188 432.156094) rotate(-90) scale(0.18 -0.18)">
      <defs>
       <path id="DejaVuSans-56" d="M 1831 0 
L 50 4666 
L 709 4666 
L 2188 738 
L 3669 4666 
L 4325 4666 
L 2547 0 
L 1831 0 
z
" transform="scale(0.015625)"/>
       <path id="DejaVuSans-68" d="M 3513 2113 
L 3513 0 
L 2938 0 
L 2938 2094 
Q 2938 2591 2744 2837 
Q 2550 3084 2163 3084 
Q 1697 3084 1428 2787 
Q 1159 2491 1159 1978 
L 1159 0 
L 581 0 
L 581 4863 
L 1159 4863 
L 1159 2956 
Q 1366 3272 1645 3428 
Q 1925 3584 2291 3584 
Q 2894 3584 3203 3211 
Q 3513 2838 3513 2113 
z
" transform="scale(0.015625)"/>
       <path id="DejaVuSans-69" d="M 603 3500 
L 1178 3500 
L 1178 0 
L 603 0 
L 603 3500 
z
M 603 4863 
L 1178 4863 
L 1178 4134 
L 603 4134 
L 603 4863 
z
" transform="scale(0.015625)"/>
       <path id="DejaVuSans-63" d="M 3122 3366 
L 3122 2828 
Q 2878 2963 2633 3030 
Q 2388 3097 2138 3097 
Q 1578 3097 1268 2742 
Q 959 2388 959 1747 
Q 959 1106 1268 751 
Q 1578 397 2138 397 
Q 2388 397 2633 464 
Q 2878 531 3122 666 
L 3122 134 
Q 2881 22 2623 -34 
Q 2366 -91 2075 -91 
Q 1284 -91 818 406 
Q 353 903 353 1747 
Q 353 2603 823 3093 
Q 1294 3584 2113 3584 
Q 2378 3584 2631 3529 
Q 2884 3475 3122 3366 
z
" transform="scale(0.015625)"/>
       <path id="DejaVuSans-6c" d="M 603 4863 
L 1178 4863 
L 1178 0 
L 603 0 
L 603 4863 
z
" transform="scale(0.015625)"/>
       <path id="DejaVuSans-73" d="M 2834 3397 
L 2834 2853 
Q 2591 2978 2328 3040 
Q 2066 3103 1784 3103 
Q 1356 3103 1142 2972 
Q 928 2841 928 2578 
Q 928 2378 1081 2264 
Q 1234 2150 1697 2047 
L 1894 2003 
Q 2506 1872 2764 1633 
Q 3022 1394 3022 966 
Q 3022 478 2636 193 
Q 2250 -91 1575 -91 
Q 1294 -91 989 -36 
Q 684 19 347 128 
L 347 722 
Q 666 556 975 473 
Q 1284 391 1588 391 
Q 1994 391 2212 530 
Q 2431 669 2431 922 
Q 2431 1156 2273 1281 
Q 2116 1406 1581 1522 
L 1381 1569 
Q 847 1681 609 1914 
Q 372 2147 372 2553 
Q 372 3047 722 3315 
Q 1072 3584 1716 3584 
Q 2034 3584 2315 3537 
Q 2597 3491 2834 3397 
z
" transform="scale(0.015625)"/>
      </defs>
      <use xlink:href="#DejaVuSans-56"/>
      <use xlink:href="#DejaVuSans-65" x="60.658203"/>
      <use xlink:href="#DejaVuSans-68" x="122.181641"/>
      <use xlink:href="#DejaVuSans-69" x="185.560547"/>
      <use xlink:href="#DejaVuSans-63" x="213.34375"/>
      <use xlink:href="#DejaVuSans-6c" x="268.324219"/>
      <use xlink:href="#DejaVuSans-65" x="296.107422"/>
      <use xlink:href="#DejaVuSans-73" x="357.630859"/>
     </g>
    </g>
   </g>
   <g id="line2d_33">
    <path d="M 103.540795 291.515294 
L 103.769354 374.527059 
L 104.226471 374.527059 
L 104.455029 416.032941 
L 104.683588 374.527059 
L 104.912146 416.032941 
L 105.140704 374.527059 
L 105.369263 457.538824 
L 105.597821 333.021176 
L 106.054938 333.021176 
L 106.283497 374.527059 
L 106.512055 374.527059 
L 106.740613 333.021176 
L 107.19773 333.021176 
L 107.654847 250.009412 
L 108.111964 416.032941 
L 108.340522 374.527059 
L 108.569081 291.515294 
L 108.797639 416.032941 
L 109.026198 333.021176 
L 109.254756 374.527059 
L 109.940431 374.527059 
L 110.16899 333.021176 
L 110.397548 374.527059 
L 110.626107 374.527059 
L 110.854665 333.021176 
L 111.083223 333.021176 
L 111.311782 457.538824 
L 111.768899 457.538824 
L 111.997457 374.527059 
L 112.454574 374.527059 
L 112.683132 416.032941 
L 113.368808 416.032941 
L 113.597366 374.527059 
L 114.054483 208.503529 
L 114.5116 208.503529 
L 114.740158 333.021176 
L 115.425834 208.503529 
L 115.654392 291.515294 
L 115.88295 291.515294 
L 116.111509 250.009412 
L 116.340067 166.997647 
L 116.568626 333.021176 
L 116.797184 416.032941 
L 117.254301 416.032941 
L 117.482859 457.538824 
L 117.939976 374.527059 
L 118.168535 374.527059 
L 118.397093 416.032941 
L 118.625652 416.032941 
L 118.85421 457.538824 
L 119.082768 416.032941 
L 119.311327 457.538824 
L 119.539885 374.527059 
L 119.768444 457.538824 
L 119.997002 457.538824 
L 120.225561 416.032941 
L 120.454119 250.009412 
L 120.911236 416.032941 
L 121.139794 457.538824 
L 121.596911 457.538824 
L 121.825469 499.044706 
L 122.054028 457.538824 
L 122.282586 540.550588 
L 122.511145 540.550588 
L 122.739703 582.056471 
L 122.968262 499.044706 
L 123.19682 499.044706 
L 123.425378 540.550588 
L 123.653937 499.044706 
L 123.882495 582.056471 
L 124.111054 499.044706 
L 124.339612 582.056471 
L 124.568171 582.056471 
L 124.796729 540.550588 
L 125.025287 623.562353 
L 125.482404 623.562353 
L 125.939521 540.550588 
L 126.16808 540.550588 
L 126.396638 582.056471 
L 126.625196 540.550588 
L 126.853755 457.538824 
L 127.082313 457.538824 
L 127.310872 416.032941 
L 127.53943 457.538824 
L 127.767989 457.538824 
L 127.996547 416.032941 
L 128.225105 416.032941 
L 128.453664 457.538824 
L 128.682222 457.538824 
L 128.910781 416.032941 
L 129.139339 457.538824 
L 129.367898 540.550588 
L 129.596456 540.550588 
L 129.825014 582.056471 
L 130.282131 582.056471 
L 130.51069 623.562353 
L 130.739248 623.562353 
L 130.967806 582.056471 
L 131.196365 623.562353 
L 131.424923 623.562353 
L 131.653482 665.068235 
L 131.88204 665.068235 
L 132.110599 623.562353 
L 132.339157 665.068235 
L 132.567715 623.562353 
L 132.796274 665.068235 
L 133.710508 665.068235 
L 133.939066 706.574118 
L 134.624741 706.574118 
L 134.8533 665.068235 
L 135.081858 706.574118 
L 135.310417 706.574118 
L 135.538975 665.068235 
L 135.767533 665.068235 
L 135.996092 706.574118 
L 137.824559 706.574118 
L 138.053118 748.08 
L 138.281676 706.574118 
L 139.19591 706.574118 
L 139.424468 748.08 
L 139.653027 706.574118 
L 139.881585 748.08 
L 140.110144 706.574118 
L 140.338702 748.08 
L 142.395728 748.08 
L 142.624286 706.574118 
L 142.852845 748.08 
L 146.738338 748.08 
L 146.966896 706.574118 
L 147.195455 748.08 
L 147.88113 748.08 
L 148.109688 706.574118 
L 148.338247 748.08 
L 148.566805 748.08 
L 148.795364 706.574118 
L 149.023922 706.574118 
L 149.252481 748.08 
L 150.623831 748.08 
L 150.852389 706.574118 
L 151.995182 706.574118 
L 152.22374 665.068235 
L 152.909415 665.068235 
L 153.137974 706.574118 
L 154.509324 706.574118 
L 154.966441 623.562353 
L 155.652116 623.562353 
L 155.880675 582.056471 
L 156.109233 582.056471 
L 156.337792 499.044706 
L 156.794909 416.032941 
L 157.023467 457.538824 
L 157.252025 374.527059 
L 157.480584 416.032941 
L 157.937701 333.021176 
L 158.166259 374.527059 
L 158.394818 333.021176 
L 158.623376 416.032941 
L 158.851934 416.032941 
L 159.080493 333.021176 
L 159.309051 374.527059 
L 159.766168 540.550588 
L 160.223285 457.538824 
L 160.680402 457.538824 
L 160.90896 499.044706 
L 161.137519 499.044706 
L 161.366077 416.032941 
L 161.823194 416.032941 
L 162.051752 208.503529 
L 162.280311 166.997647 
L 162.508869 166.997647 
L 162.737428 333.021176 
L 162.965986 416.032941 
L 163.423103 416.032941 
L 163.651661 333.021176 
L 164.108778 416.032941 
L 164.565895 333.021176 
L 164.794453 374.527059 
L 165.023012 374.527059 
L 165.25157 416.032941 
L 165.480129 291.515294 
L 165.708687 374.527059 
L 165.937246 333.021176 
L 166.165804 333.021176 
L 166.394362 374.527059 
L 166.622921 333.021176 
L 166.851479 374.527059 
L 167.080038 333.021176 
L 167.308596 374.527059 
L 167.537155 333.021176 
L 167.765713 333.021176 
L 167.994271 374.527059 
L 168.22283 291.515294 
L 168.451388 333.021176 
L 168.679947 333.021176 
L 168.908505 291.515294 
L 169.137064 333.021176 
L 169.365622 333.021176 
L 169.59418 416.032941 
L 169.822739 374.527059 
L 170.051297 250.009412 
L 170.279856 291.515294 
L 170.508414 291.515294 
L 170.736972 333.021176 
L 170.965531 250.009412 
L 171.194089 291.515294 
L 171.651206 291.515294 
L 171.879765 374.527059 
L 172.108323 291.515294 
L 172.336881 374.527059 
L 172.56544 374.527059 
L 172.793998 333.021176 
L 173.022557 374.527059 
L 173.251115 374.527059 
L 173.479674 250.009412 
L 173.708232 416.032941 
L 173.93679 250.009412 
L 174.393907 333.021176 
L 174.622466 125.491765 
L 174.851024 42.48 
L 175.079583 83.985882 
L 175.308141 291.515294 
L 175.536699 250.009412 
L 175.765258 291.515294 
L 175.993816 208.503529 
L 176.222375 333.021176 
L 176.450933 333.021176 
L 177.136608 208.503529 
L 177.365167 333.021176 
L 177.593725 333.021176 
L 177.822284 250.009412 
L 178.507959 374.527059 
L 178.965076 374.527059 
L 179.193634 333.021176 
L 179.422193 333.021176 
L 179.650751 291.515294 
L 179.87931 208.503529 
L 180.107868 333.021176 
L 180.336426 374.527059 
L 180.564985 333.021176 
L 180.793543 333.021176 
L 181.022102 250.009412 
L 181.25066 333.021176 
L 181.479218 291.515294 
L 181.707777 333.021176 
L 181.936335 291.515294 
L 182.164894 291.515294 
L 182.393452 208.503529 
L 182.622011 291.515294 
L 182.850569 250.009412 
L 183.307686 333.021176 
L 183.536244 333.021176 
L 183.764803 291.515294 
L 183.993361 333.021176 
L 184.22192 291.515294 
L 184.450478 333.021176 
L 185.136153 333.021176 
L 185.364712 416.032941 
L 185.821829 333.021176 
L 186.050387 333.021176 
L 186.278945 374.527059 
L 186.507504 457.538824 
L 186.736062 374.527059 
L 187.193179 374.527059 
L 187.421738 416.032941 
L 187.878854 333.021176 
L 188.107413 333.021176 
L 188.335971 416.032941 
L 188.56453 374.527059 
L 189.021647 457.538824 
L 189.250205 416.032941 
L 189.478763 499.044706 
L 189.707322 499.044706 
L 189.93588 540.550588 
L 190.164439 499.044706 
L 190.392997 623.562353 
L 190.621555 665.068235 
L 190.850114 665.068235 
L 191.078672 457.538824 
L 191.307231 540.550588 
L 191.535789 499.044706 
L 191.764348 499.044706 
L 191.992906 540.550588 
L 192.221464 499.044706 
L 192.450023 499.044706 
L 192.678581 333.021176 
L 192.90714 250.009412 
L 193.135698 333.021176 
L 193.364257 291.515294 
L 194.049932 416.032941 
L 194.507049 416.032941 
L 194.735607 457.538824 
L 194.964166 457.538824 
L 195.192724 499.044706 
L 195.421282 582.056471 
L 195.649841 540.550588 
L 195.878399 623.562353 
L 196.106958 582.056471 
L 196.335516 582.056471 
L 196.564075 623.562353 
L 196.792633 623.562353 
L 197.021191 582.056471 
L 197.24975 582.056471 
L 197.478308 623.562353 
L 197.706867 582.056471 
L 197.935425 623.562353 
L 198.163984 582.056471 
L 198.392542 623.562353 
L 199.078217 623.562353 
L 199.306776 665.068235 
L 199.535334 665.068235 
L 199.763893 623.562353 
L 200.449568 623.562353 
L 200.678126 665.068235 
L 200.906685 623.562353 
L 201.135243 623.562353 
L 201.363801 665.068235 
L 201.59236 623.562353 
L 201.820918 706.574118 
L 202.049477 665.068235 
L 202.278035 706.574118 
L 202.506594 706.574118 
L 202.735152 665.068235 
L 202.96371 706.574118 
L 203.192269 706.574118 
L 203.420827 665.068235 
L 203.649386 665.068235 
L 203.877944 706.574118 
L 204.106503 665.068235 
L 204.335061 706.574118 
L 204.563619 706.574118 
L 204.792178 748.08 
L 205.020736 665.068235 
L 205.477853 748.08 
L 205.706412 665.068235 
L 205.93497 706.574118 
L 206.849204 706.574118 
L 207.077762 748.08 
L 207.534879 748.08 
L 207.763437 706.574118 
L 207.991996 748.08 
L 208.220554 748.08 
L 208.449113 706.574118 
L 208.677671 706.574118 
L 208.90623 748.08 
L 209.134788 706.574118 
L 209.363346 748.08 
L 209.591905 706.574118 
L 209.820463 748.08 
L 211.420372 748.08 
L 211.648931 706.574118 
L 211.877489 706.574118 
L 212.106047 748.08 
L 212.563164 748.08 
L 212.791723 706.574118 
L 213.020281 748.08 
L 213.24884 748.08 
L 213.477398 706.574118 
L 213.705956 706.574118 
L 213.934515 748.08 
L 215.305865 748.08 
L 215.534424 706.574118 
L 216.677216 706.574118 
L 216.905774 748.08 
L 217.362891 665.068235 
L 217.59145 706.574118 
L 217.820008 706.574118 
L 218.048567 748.08 
L 218.505683 748.08 
L 218.734242 706.574118 
L 219.191359 706.574118 
L 219.419917 665.068235 
L 219.648476 706.574118 
L 219.877034 665.068235 
L 220.334151 665.068235 
L 220.562709 582.056471 
L 220.791268 540.550588 
L 221.019826 623.562353 
L 221.248384 540.550588 
L 221.476943 582.056471 
L 221.705501 540.550588 
L 221.93406 457.538824 
L 222.162618 416.032941 
L 222.391177 457.538824 
L 222.619735 374.527059 
L 222.848293 333.021176 
L 223.076852 333.021176 
L 223.30541 250.009412 
L 223.533969 250.009412 
L 223.762527 208.503529 
L 223.991086 83.985882 
L 224.219644 166.997647 
L 224.448202 333.021176 
L 224.676761 416.032941 
L 224.905319 291.515294 
L 225.133878 374.527059 
L 225.590995 457.538824 
L 226.048111 374.527059 
L 226.27667 457.538824 
L 226.733787 374.527059 
L 227.419462 374.527059 
L 227.64802 416.032941 
L 228.105137 333.021176 
L 228.333696 374.527059 
L 228.562254 291.515294 
L 228.790813 416.032941 
L 229.247929 333.021176 
L 229.476488 374.527059 
L 229.705046 291.515294 
L 229.933605 416.032941 
L 230.162163 374.527059 
L 230.390721 416.032941 
L 230.61928 374.527059 
L 230.847838 416.032941 
L 231.076397 333.021176 
L 231.304955 374.527059 
L 231.533514 374.527059 
L 231.99063 291.515294 
L 232.219189 333.021176 
L 232.447747 291.515294 
L 232.676306 333.021176 
L 232.904864 291.515294 
L 233.590539 291.515294 
L 233.819098 416.032941 
L 234.047656 333.021176 
L 234.276215 416.032941 
L 234.504773 374.527059 
L 234.733332 125.491765 
L 234.96189 208.503529 
L 235.190448 333.021176 
L 235.419007 291.515294 
L 235.647565 374.527059 
L 235.876124 374.527059 
L 236.104682 333.021176 
L 236.333241 374.527059 
L 236.561799 291.515294 
L 236.790357 374.527059 
L 237.018916 416.032941 
L 237.247474 374.527059 
L 237.476033 374.527059 
L 237.704591 333.021176 
L 237.93315 374.527059 
L 238.390266 291.515294 
L 238.618825 333.021176 
L 238.847383 291.515294 
L 239.075942 333.021176 
L 239.3045 291.515294 
L 239.533059 291.515294 
L 239.761617 374.527059 
L 239.990175 291.515294 
L 240.218734 457.538824 
L 240.675851 250.009412 
L 240.904409 291.515294 
L 241.132967 291.515294 
L 241.361526 250.009412 
L 241.818643 250.009412 
L 242.047201 166.997647 
L 242.27576 250.009412 
L 242.504318 291.515294 
L 242.732876 291.515294 
L 243.189993 374.527059 
L 243.418552 374.527059 
L 243.64711 291.515294 
L 243.875669 374.527059 
L 244.104227 291.515294 
L 244.332785 374.527059 
L 244.561344 374.527059 
L 244.789902 250.009412 
L 245.018461 416.032941 
L 245.247019 416.032941 
L 245.475578 333.021176 
L 245.704136 416.032941 
L 246.161253 333.021176 
L 246.389811 457.538824 
L 246.846928 291.515294 
L 247.075487 333.021176 
L 247.304045 416.032941 
L 247.532603 416.032941 
L 247.761162 333.021176 
L 247.98972 374.527059 
L 248.218279 291.515294 
L 248.446837 333.021176 
L 248.675396 416.032941 
L 249.132512 416.032941 
L 249.361071 291.515294 
L 249.589629 457.538824 
L 249.818188 416.032941 
L 250.275304 416.032941 
L 250.503863 374.527059 
L 250.732421 374.527059 
L 250.96098 333.021176 
L 251.418097 416.032941 
L 251.646655 374.527059 
L 251.875213 416.032941 
L 252.103772 374.527059 
L 252.33233 374.527059 
L 252.560889 499.044706 
L 252.789447 416.032941 
L 253.018006 457.538824 
L 253.703681 457.538824 
L 253.932239 416.032941 
L 254.160798 416.032941 
L 254.389356 457.538824 
L 254.617915 416.032941 
L 254.846473 499.044706 
L 255.075031 499.044706 
L 255.30359 457.538824 
L 255.532148 499.044706 
L 255.760707 499.044706 
L 256.217824 582.056471 
L 256.446382 582.056471 
L 256.67494 540.550588 
L 257.360616 540.550588 
L 257.589174 582.056471 
L 257.817733 540.550588 
L 258.046291 540.550588 
L 258.274849 416.032941 
L 258.503408 499.044706 
L 258.731966 374.527059 
L 258.960525 416.032941 
L 259.189083 416.032941 
L 259.417642 333.021176 
L 259.6462 457.538824 
L 260.103317 374.527059 
L 260.331875 457.538824 
L 260.560434 457.538824 
L 260.788992 499.044706 
L 261.246109 499.044706 
L 261.474667 540.550588 
L 261.703226 540.550588 
L 261.931784 582.056471 
L 262.160343 540.550588 
L 262.388901 582.056471 
L 263.303135 582.056471 
L 263.531693 623.562353 
L 263.760252 623.562353 
L 263.98881 665.068235 
L 264.217368 582.056471 
L 264.445927 665.068235 
L 264.674485 582.056471 
L 265.131602 665.068235 
L 265.360161 623.562353 
L 265.588719 665.068235 
L 265.817277 623.562353 
L 266.045836 623.562353 
L 266.274394 665.068235 
L 266.502953 623.562353 
L 266.731511 706.574118 
L 266.96007 665.068235 
L 267.874303 665.068235 
L 268.102862 623.562353 
L 268.788537 623.562353 
L 269.017095 706.574118 
L 269.245654 665.068235 
L 269.702771 665.068235 
L 269.931329 706.574118 
L 270.159888 665.068235 
L 270.388446 665.068235 
L 270.617004 706.574118 
L 271.30268 706.574118 
L 271.531238 665.068235 
L 271.759796 706.574118 
L 273.131147 706.574118 
L 273.359705 748.08 
L 273.588264 748.08 
L 273.816822 706.574118 
L 274.731056 706.574118 
L 274.959614 748.08 
L 275.188173 706.574118 
L 275.416731 706.574118 
L 275.64529 748.08 
L 275.873848 706.574118 
L 276.102407 706.574118 
L 276.330965 748.08 
L 276.788082 748.08 
L 277.01664 706.574118 
L 277.245199 706.574118 
L 277.473757 748.08 
L 277.930874 748.08 
L 278.159432 706.574118 
L 278.387991 706.574118 
L 278.616549 748.08 
L 279.302225 748.08 
L 279.530783 706.574118 
L 279.759341 706.574118 
L 279.9879 748.08 
L 280.216458 748.08 
L 280.445017 706.574118 
L 280.673575 706.574118 
L 280.902133 665.068235 
L 281.35925 748.08 
L 281.587809 706.574118 
L 281.816367 706.574118 
L 282.044926 748.08 
L 282.273484 706.574118 
L 282.502042 748.08 
L 282.730601 706.574118 
L 282.959159 748.08 
L 283.187718 706.574118 
L 283.416276 706.574118 
L 283.644835 748.08 
L 283.873393 706.574118 
L 285.70186 706.574118 
L 285.930419 665.068235 
L 286.387536 665.068235 
L 286.616094 582.056471 
L 287.530328 582.056471 
L 287.758886 499.044706 
L 287.987445 499.044706 
L 288.216003 374.527059 
L 288.444562 457.538824 
L 288.67312 333.021176 
L 288.901678 374.527059 
L 289.130237 291.515294 
L 289.358795 250.009412 
L 289.587354 250.009412 
L 290.044471 333.021176 
L 290.273029 250.009412 
L 290.501587 250.009412 
L 290.730146 291.515294 
L 290.958704 374.527059 
L 291.415821 374.527059 
L 291.644379 291.515294 
L 292.330055 416.032941 
L 292.558613 374.527059 
L 292.787172 374.527059 
L 293.01573 333.021176 
L 293.472847 416.032941 
L 293.929964 416.032941 
L 294.158522 374.527059 
L 294.387081 374.527059 
L 294.615639 416.032941 
L 295.072756 333.021176 
L 295.301314 333.021176 
L 295.529873 374.527059 
L 295.758431 374.527059 
L 295.98699 333.021176 
L 296.215548 416.032941 
L 296.672665 333.021176 
L 296.901223 374.527059 
L 297.129782 291.515294 
L 297.35834 333.021176 
L 297.586899 333.021176 
L 297.815457 291.515294 
L 298.044015 291.515294 
L 298.272574 333.021176 
L 298.501132 250.009412 
L 298.729691 333.021176 
L 298.958249 333.021176 
L 299.186808 291.515294 
L 299.643924 374.527059 
L 299.872483 374.527059 
L 300.101041 291.515294 
L 300.786716 291.515294 
L 301.015275 416.032941 
L 301.243833 291.515294 
L 301.472392 374.527059 
L 301.929509 291.515294 
L 302.386625 374.527059 
L 302.615184 250.009412 
L 302.843742 333.021176 
L 303.072301 291.515294 
L 303.529418 291.515294 
L 303.757976 250.009412 
L 303.986534 333.021176 
L 304.215093 291.515294 
L 304.443651 333.021176 
L 304.900768 250.009412 
L 305.129327 374.527059 
L 305.357885 250.009412 
L 305.586443 333.021176 
L 306.04356 333.021176 
L 306.272119 374.527059 
L 306.500677 250.009412 
L 306.957794 333.021176 
L 307.186352 291.515294 
L 307.872028 291.515294 
L 308.100586 374.527059 
L 308.329145 291.515294 
L 309.01482 291.515294 
L 309.243378 333.021176 
L 309.471937 333.021176 
L 309.700495 291.515294 
L 310.157612 291.515294 
L 310.38617 374.527059 
L 310.614729 333.021176 
L 311.300404 333.021176 
L 311.528962 374.527059 
L 311.757521 333.021176 
L 311.986079 333.021176 
L 312.214638 374.527059 
L 312.443196 333.021176 
L 312.671755 374.527059 
L 312.900313 374.527059 
L 313.128871 250.009412 
L 313.35743 333.021176 
L 313.585988 333.021176 
L 313.814547 374.527059 
L 314.043105 374.527059 
L 314.271664 333.021176 
L 314.500222 374.527059 
L 314.72878 250.009412 
L 314.957339 374.527059 
L 315.643014 374.527059 
L 315.871573 333.021176 
L 316.328689 416.032941 
L 316.557248 291.515294 
L 316.785806 416.032941 
L 318.157157 416.032941 
L 318.385715 457.538824 
L 318.842832 457.538824 
L 319.071391 499.044706 
L 319.299949 457.538824 
L 319.528507 374.527059 
L 319.757066 333.021176 
L 319.985624 457.538824 
L 320.214183 374.527059 
L 320.442741 416.032941 
L 320.671299 374.527059 
L 320.899858 250.009412 
L 321.128416 374.527059 
L 321.356975 374.527059 
L 321.585533 333.021176 
L 321.814092 374.527059 
L 322.04265 374.527059 
L 322.271208 333.021176 
L 322.499767 250.009412 
L 322.728325 374.527059 
L 322.956884 374.527059 
L 323.185442 416.032941 
L 323.414001 416.032941 
L 323.871117 333.021176 
L 324.328234 333.021176 
L 324.556793 374.527059 
L 324.785351 333.021176 
L 325.242468 416.032941 
L 325.471026 374.527059 
L 325.699585 457.538824 
L 326.156702 374.527059 
L 326.38526 457.538824 
L 326.613819 457.538824 
L 326.842377 499.044706 
L 327.070935 582.056471 
L 327.756611 582.056471 
L 327.985169 623.562353 
L 328.442286 623.562353 
L 328.670844 582.056471 
L 329.127961 665.068235 
L 329.35652 623.562353 
L 330.042195 623.562353 
L 330.270753 665.068235 
L 330.499312 623.562353 
L 330.72787 665.068235 
L 330.956429 665.068235 
L 331.184987 623.562353 
L 331.413545 665.068235 
L 333.242013 665.068235 
L 333.470571 706.574118 
L 333.69913 665.068235 
L 333.927688 706.574118 
L 334.156247 665.068235 
L 334.384805 706.574118 
L 334.613363 665.068235 
L 335.07048 665.068235 
L 335.299039 706.574118 
L 337.584623 706.574118 
L 337.813181 748.08 
L 338.04174 706.574118 
L 338.727415 706.574118 
L 338.955974 748.08 
L 339.184532 706.574118 
L 339.641649 706.574118 
L 339.870207 748.08 
L 340.555882 748.08 
L 340.784441 706.574118 
L 341.470116 706.574118 
L 341.698675 748.08 
L 343.070025 748.08 
L 343.298584 706.574118 
L 343.527142 748.08 
L 343.7557 748.08 
L 343.984259 706.574118 
L 344.441376 706.574118 
L 344.669934 748.08 
L 345.812726 748.08 
L 346.041285 706.574118 
L 346.269843 748.08 
L 346.498402 748.08 
L 346.72696 706.574118 
L 346.955518 706.574118 
L 347.184077 748.08 
L 347.412635 706.574118 
L 347.641194 748.08 
L 348.098311 748.08 
L 348.326869 706.574118 
L 348.555427 748.08 
L 348.783986 748.08 
L 349.012544 706.574118 
L 349.241103 706.574118 
L 349.469661 748.08 
L 349.69822 706.574118 
L 350.383895 706.574118 
L 350.612453 748.08 
L 350.841012 706.574118 
L 351.06957 706.574118 
L 351.298128 665.068235 
L 351.526687 706.574118 
L 351.755245 665.068235 
L 352.212362 665.068235 
L 352.669479 582.056471 
L 352.898037 623.562353 
L 353.126596 582.056471 
L 353.355154 582.056471 
L 353.812271 416.032941 
L 354.04083 457.538824 
L 354.269388 416.032941 
L 354.955063 416.032941 
L 355.183622 333.021176 
L 355.640739 333.021176 
L 355.869297 291.515294 
L 356.097855 374.527059 
L 356.554972 374.527059 
L 356.783531 416.032941 
L 357.240648 416.032941 
L 357.697764 333.021176 
L 357.926323 333.021176 
L 358.154881 291.515294 
L 358.38344 374.527059 
L 358.611998 333.021176 
L 358.840557 416.032941 
L 359.069115 416.032941 
L 359.297673 374.527059 
L 359.526232 457.538824 
L 359.75479 416.032941 
L 359.983349 416.032941 
L 360.211907 457.538824 
L 360.440465 374.527059 
L 360.669024 457.538824 
L 360.897582 374.527059 
L 361.126141 374.527059 
L 361.354699 83.985882 
L 361.811816 499.044706 
L 362.040374 416.032941 
L 362.497491 499.044706 
L 362.72605 457.538824 
L 362.954608 457.538824 
L 363.183167 333.021176 
L 363.411725 333.021176 
L 363.640283 374.527059 
L 363.868842 333.021176 
L 364.0974 374.527059 
L 364.325959 291.515294 
L 364.783076 291.515294 
L 365.011634 208.503529 
L 365.240192 333.021176 
L 365.468751 374.527059 
L 365.697309 250.009412 
L 365.925868 291.515294 
L 366.154426 374.527059 
L 366.382985 291.515294 
L 366.611543 291.515294 
L 366.840101 250.009412 
L 367.06866 291.515294 
L 367.297218 250.009412 
L 367.525777 291.515294 
L 367.982894 291.515294 
L 368.211452 333.021176 
L 368.44001 333.021176 
L 368.668569 374.527059 
L 368.897127 333.021176 
L 369.125686 374.527059 
L 369.354244 374.527059 
L 369.582803 291.515294 
L 369.811361 291.515294 
L 370.039919 333.021176 
L 370.268478 333.021176 
L 370.497036 250.009412 
L 370.725595 291.515294 
L 370.954153 208.503529 
L 371.182711 208.503529 
L 371.639828 291.515294 
L 371.868387 291.515294 
L 372.096945 250.009412 
L 372.325504 250.009412 
L 372.554062 291.515294 
L 372.78262 250.009412 
L 373.011179 291.515294 
L 373.696854 166.997647 
L 373.925413 208.503529 
L 374.153971 208.503529 
L 374.382529 333.021176 
L 374.611088 250.009412 
L 374.839646 250.009412 
L 375.068205 333.021176 
L 375.296763 291.515294 
L 375.525322 333.021176 
L 375.75388 208.503529 
L 375.982438 291.515294 
L 376.210997 291.515294 
L 376.439555 333.021176 
L 376.668114 291.515294 
L 377.125231 374.527059 
L 377.353789 291.515294 
L 377.582347 333.021176 
L 378.72514 333.021176 
L 378.953698 291.515294 
L 379.410815 374.527059 
L 379.867932 291.515294 
L 380.09649 291.515294 
L 380.325048 333.021176 
L 380.782165 333.021176 
L 381.239282 416.032941 
L 381.467841 374.527059 
L 381.924957 374.527059 
L 382.153516 333.021176 
L 382.382074 374.527059 
L 382.610633 291.515294 
L 382.839191 416.032941 
L 383.06775 374.527059 
L 383.296308 457.538824 
L 383.524866 457.538824 
L 383.753425 374.527059 
L 383.981983 416.032941 
L 384.4391 333.021176 
L 384.667659 416.032941 
L 384.896217 374.527059 
L 385.353334 457.538824 
L 385.581892 457.538824 
L 385.810451 416.032941 
L 386.267568 416.032941 
L 386.496126 374.527059 
L 386.724684 374.527059 
L 386.953243 416.032941 
L 387.181801 416.032941 
L 387.41036 374.527059 
L 387.638918 416.032941 
L 387.867477 333.021176 
L 388.096035 416.032941 
L 388.324593 374.527059 
L 388.553152 374.527059 
L 388.78171 333.021176 
L 389.010269 250.009412 
L 389.238827 250.009412 
L 389.467386 208.503529 
L 389.924502 291.515294 
L 390.153061 166.997647 
L 390.381619 250.009412 
L 390.610178 208.503529 
L 391.067294 291.515294 
L 391.295853 291.515294 
L 391.524411 250.009412 
L 391.75297 291.515294 
L 391.981528 291.515294 
L 392.210087 374.527059 
L 392.438645 374.527059 
L 392.667203 416.032941 
L 392.895762 374.527059 
L 393.12432 416.032941 
L 393.352879 499.044706 
L 393.581437 540.550588 
L 393.809996 540.550588 
L 394.038554 582.056471 
L 394.724229 582.056471 
L 394.952788 540.550588 
L 395.409905 540.550588 
L 395.867021 623.562353 
L 396.09558 582.056471 
L 396.324138 623.562353 
L 396.552697 582.056471 
L 396.781255 623.562353 
L 397.009814 582.056471 
L 397.238372 582.056471 
L 397.46693 623.562353 
L 398.381164 623.562353 
L 398.609723 582.056471 
L 398.838281 623.562353 
L 399.066839 582.056471 
L 399.295398 623.562353 
L 400.43819 623.562353 
L 400.666748 582.056471 
L 400.895307 623.562353 
L 401.580982 623.562353 
L 401.80954 665.068235 
L 402.038099 623.562353 
L 402.266657 665.068235 
L 402.723774 582.056471 
L 402.952333 665.068235 
L 403.180891 623.562353 
L 403.409449 665.068235 
L 403.638008 623.562353 
L 403.866566 665.068235 
L 404.095125 665.068235 
L 404.323683 623.562353 
L 404.552242 665.068235 
L 404.7808 665.068235 
L 405.009358 623.562353 
L 405.237917 706.574118 
L 405.466475 665.068235 
L 405.695034 706.574118 
L 405.923592 706.574118 
L 406.152151 665.068235 
L 406.609267 665.068235 
L 406.837826 706.574118 
L 407.066384 665.068235 
L 407.294943 665.068235 
L 407.523501 706.574118 
L 407.75206 665.068235 
L 407.980618 665.068235 
L 408.209176 706.574118 
L 408.666293 706.574118 
L 408.894852 665.068235 
L 409.12341 665.068235 
L 409.351969 706.574118 
L 410.037644 706.574118 
L 410.266202 665.068235 
L 410.723319 665.068235 
L 410.951877 706.574118 
L 412.09467 706.574118 
L 412.323228 748.08 
L 412.551786 665.068235 
L 412.780345 665.068235 
L 413.008903 706.574118 
L 414.608812 706.574118 
L 414.837371 665.068235 
L 415.065929 706.574118 
L 415.294488 706.574118 
L 415.751604 623.562353 
L 415.980163 706.574118 
L 416.208721 665.068235 
L 416.43728 706.574118 
L 416.665838 665.068235 
L 416.894397 706.574118 
L 417.351513 623.562353 
L 417.580072 665.068235 
L 418.037189 582.056471 
L 418.265747 623.562353 
L 418.722864 623.562353 
L 418.951422 582.056471 
L 419.179981 623.562353 
L 419.637098 623.562353 
L 419.865656 582.056471 
L 420.094215 582.056471 
L 420.322773 540.550588 
L 420.551331 540.550588 
L 420.77989 499.044706 
L 421.008448 499.044706 
L 421.237007 540.550588 
L 421.465565 540.550588 
L 421.694123 499.044706 
L 421.922682 582.056471 
L 422.15124 582.056471 
L 422.379799 540.550588 
L 422.608357 540.550588 
L 422.836916 582.056471 
L 423.065474 499.044706 
L 423.294032 540.550588 
L 423.522591 499.044706 
L 423.751149 540.550588 
L 424.208266 540.550588 
L 424.436825 582.056471 
L 424.665383 540.550588 
L 425.1225 540.550588 
L 425.351058 499.044706 
L 425.579617 499.044706 
L 425.808175 457.538824 
L 426.036734 499.044706 
L 426.265292 457.538824 
L 426.722409 457.538824 
L 426.950967 499.044706 
L 427.179526 416.032941 
L 427.408084 457.538824 
L 427.636643 416.032941 
L 427.865201 416.032941 
L 428.093759 457.538824 
L 428.550876 457.538824 
L 428.779435 374.527059 
L 429.007993 416.032941 
L 429.236552 416.032941 
L 429.46511 374.527059 
L 429.693668 416.032941 
L 429.922227 374.527059 
L 430.150785 374.527059 
L 430.379344 333.021176 
L 430.607902 333.021176 
L 431.065019 250.009412 
L 431.293577 374.527059 
L 431.522136 374.527059 
L 431.750694 333.021176 
L 431.979253 250.009412 
L 432.436369 333.021176 
L 432.893486 333.021176 
L 433.122045 374.527059 
L 433.350603 333.021176 
L 433.579162 457.538824 
L 433.80772 416.032941 
L 434.036278 333.021176 
L 434.264837 416.032941 
L 434.493395 250.009412 
L 434.721954 333.021176 
L 434.950512 291.515294 
L 435.179071 291.515294 
L 435.407629 333.021176 
L 435.636187 250.009412 
L 436.093304 333.021176 
L 436.321863 208.503529 
L 436.550421 250.009412 
L 436.77898 250.009412 
L 437.007538 166.997647 
L 437.464655 333.021176 
L 437.693213 250.009412 
L 437.921772 333.021176 
L 438.15033 208.503529 
L 438.378889 291.515294 
L 438.607447 208.503529 
L 438.836005 250.009412 
L 439.064564 333.021176 
L 439.293122 250.009412 
L 439.521681 374.527059 
L 439.978798 374.527059 
L 440.207356 416.032941 
L 440.435914 374.527059 
L 440.664473 416.032941 
L 440.893031 499.044706 
L 441.12159 416.032941 
L 441.350148 416.032941 
L 441.578706 374.527059 
L 442.035823 457.538824 
L 442.264382 416.032941 
L 442.49294 457.538824 
L 443.178615 457.538824 
L 443.407174 499.044706 
L 443.635732 457.538824 
L 444.092849 457.538824 
L 444.321408 416.032941 
L 444.549966 457.538824 
L 444.778524 457.538824 
L 445.007083 499.044706 
L 445.235641 457.538824 
L 445.4642 540.550588 
L 445.692758 374.527059 
L 445.921317 457.538824 
L 446.149875 457.538824 
L 446.378433 499.044706 
L 446.83555 499.044706 
L 447.064109 457.538824 
L 447.292667 374.527059 
L 447.521226 499.044706 
L 447.749784 457.538824 
L 447.978342 457.538824 
L 448.206901 499.044706 
L 448.435459 416.032941 
L 448.664018 499.044706 
L 448.892576 499.044706 
L 449.121135 457.538824 
L 449.349693 540.550588 
L 449.578251 457.538824 
L 449.80681 457.538824 
L 450.035368 540.550588 
L 450.263927 457.538824 
L 450.721043 457.538824 
L 450.949602 333.021176 
L 451.17816 499.044706 
L 451.406719 416.032941 
L 451.863836 499.044706 
L 452.092394 416.032941 
L 452.320952 499.044706 
L 452.549511 416.032941 
L 453.006628 499.044706 
L 453.235186 457.538824 
L 453.463745 457.538824 
L 453.692303 499.044706 
L 453.920861 416.032941 
L 454.14942 499.044706 
L 454.377978 457.538824 
L 455.292212 457.538824 
L 455.52077 333.021176 
L 455.749329 416.032941 
L 455.977887 416.032941 
L 456.206446 333.021176 
L 456.435004 374.527059 
L 456.663563 374.527059 
L 456.892121 333.021176 
L 457.120679 374.527059 
L 457.349238 333.021176 
L 457.577796 333.021176 
L 457.806355 416.032941 
L 458.034913 374.527059 
L 458.263472 457.538824 
L 458.49203 499.044706 
L 458.720588 499.044706 
L 458.949147 457.538824 
L 459.177705 540.550588 
L 459.863381 540.550588 
L 460.091939 582.056471 
L 460.320497 582.056471 
L 460.549056 540.550588 
L 460.777614 540.550588 
L 461.234731 623.562353 
L 461.463289 582.056471 
L 461.691848 582.056471 
L 461.920406 623.562353 
L 462.148965 582.056471 
L 462.377523 623.562353 
L 463.520315 623.562353 
L 463.748874 665.068235 
L 463.977432 665.068235 
L 464.205991 623.562353 
L 464.663107 623.562353 
L 464.891666 665.068235 
L 465.348783 665.068235 
L 465.577341 582.056471 
L 465.8059 623.562353 
L 466.034458 582.056471 
L 466.263016 623.562353 
L 466.948692 623.562353 
L 467.17725 582.056471 
L 467.634367 582.056471 
L 467.862925 665.068235 
L 468.091484 623.562353 
L 468.320042 665.068235 
L 469.234276 665.068235 
L 469.462834 623.562353 
L 470.14851 623.562353 
L 470.377068 665.068235 
L 471.062743 665.068235 
L 471.291302 706.574118 
L 471.51986 706.574118 
L 471.748419 665.068235 
L 471.976977 665.068235 
L 472.205535 706.574118 
L 473.348328 706.574118 
L 473.576886 665.068235 
L 474.034003 665.068235 
L 474.262561 706.574118 
L 474.49112 665.068235 
L 474.719678 706.574118 
L 474.948237 706.574118 
L 475.176795 665.068235 
L 475.405353 748.08 
L 475.633912 706.574118 
L 476.776704 706.574118 
L 477.005262 665.068235 
L 477.233821 706.574118 
L 479.747964 706.574118 
L 479.976522 748.08 
L 480.20508 665.068235 
L 480.433639 706.574118 
L 481.347872 706.574118 
L 481.576431 748.08 
L 481.804989 706.574118 
L 483.633457 706.574118 
L 484.090574 623.562353 
L 484.319132 623.562353 
L 484.54769 665.068235 
L 485.461924 665.068235 
L 485.690483 623.562353 
L 486.376158 623.562353 
L 486.604716 665.068235 
L 486.833275 665.068235 
L 487.061833 706.574118 
L 487.290392 623.562353 
L 487.51895 665.068235 
L 487.747508 623.562353 
L 487.976067 665.068235 
L 488.661742 665.068235 
L 488.890301 623.562353 
L 490.261651 623.562353 
L 490.490209 665.068235 
L 490.718768 582.056471 
L 490.947326 582.056471 
L 491.175885 623.562353 
L 491.404443 582.056471 
L 491.86156 582.056471 
L 492.090118 623.562353 
L 492.318677 582.056471 
L 492.547235 582.056471 
L 492.775794 540.550588 
L 493.004352 540.550588 
L 493.232911 582.056471 
L 493.461469 582.056471 
L 493.918586 499.044706 
L 494.147144 582.056471 
L 494.375703 499.044706 
L 494.604261 582.056471 
L 495.061378 499.044706 
L 495.289936 499.044706 
L 495.518495 540.550588 
L 495.747053 499.044706 
L 495.975612 540.550588 
L 496.20417 457.538824 
L 496.432729 457.538824 
L 496.661287 499.044706 
L 497.118404 499.044706 
L 497.346962 457.538824 
L 497.575521 499.044706 
L 497.804079 457.538824 
L 498.032638 499.044706 
L 498.261196 416.032941 
L 498.718313 499.044706 
L 498.946871 457.538824 
L 499.17543 499.044706 
L 499.861105 499.044706 
L 500.089663 457.538824 
L 500.54678 457.538824 
L 500.775339 416.032941 
L 501.003897 540.550588 
L 501.232455 540.550588 
L 501.689572 457.538824 
L 501.918131 457.538824 
L 502.146689 499.044706 
L 502.375248 499.044706 
L 502.603806 416.032941 
L 502.832364 499.044706 
L 503.289481 416.032941 
L 503.51804 416.032941 
L 503.975157 499.044706 
L 504.203715 457.538824 
L 504.432273 540.550588 
L 504.660832 416.032941 
L 504.88939 457.538824 
L 505.117949 416.032941 
L 505.346507 416.032941 
L 505.803624 499.044706 
L 506.260741 499.044706 
L 506.717858 582.056471 
L 506.946416 540.550588 
L 507.403533 540.550588 
L 507.632091 582.056471 
L 508.089208 582.056471 
L 508.317767 623.562353 
L 508.546325 623.562353 
L 508.774884 540.550588 
L 510.146234 540.550588 
L 510.374792 582.056471 
L 510.603351 499.044706 
L 510.831909 540.550588 
L 511.060468 499.044706 
L 511.289026 499.044706 
L 511.517585 540.550588 
L 511.746143 540.550588 
L 511.974701 582.056471 
L 512.431818 499.044706 
L 512.660377 623.562353 
L 512.888935 582.056471 
L 513.346052 582.056471 
L 513.57461 499.044706 
L 513.803169 540.550588 
L 514.031727 499.044706 
L 514.260286 582.056471 
L 514.488844 540.550588 
L 514.717403 540.550588 
L 515.174519 623.562353 
L 515.403078 623.562353 
L 515.631636 582.056471 
L 516.088753 582.056471 
L 516.317312 623.562353 
L 516.54587 582.056471 
L 516.774428 582.056471 
L 517.002987 540.550588 
L 517.231545 582.056471 
L 517.460104 582.056471 
L 517.688662 623.562353 
L 517.917221 623.562353 
L 518.145779 582.056471 
L 518.374337 623.562353 
L 519.060013 623.562353 
L 519.288571 665.068235 
L 519.745688 665.068235 
L 519.974246 623.562353 
L 520.202805 665.068235 
L 520.659922 582.056471 
L 520.88848 623.562353 
L 521.117038 623.562353 
L 521.345597 499.044706 
L 522.488389 499.044706 
L 522.716947 457.538824 
L 522.945506 499.044706 
L 523.174064 457.538824 
L 523.402623 540.550588 
L 523.631181 499.044706 
L 523.85974 540.550588 
L 524.088298 499.044706 
L 524.773973 623.562353 
L 525.002532 623.562353 
L 525.23109 582.056471 
L 525.688207 665.068235 
L 525.916765 623.562353 
L 526.373882 623.562353 
L 526.602441 665.068235 
L 526.830999 582.056471 
L 527.288116 665.068235 
L 527.516674 623.562353 
L 527.973791 623.562353 
L 528.20235 665.068235 
L 528.430908 665.068235 
L 528.659467 623.562353 
L 529.5737 623.562353 
L 529.802259 665.068235 
L 530.259375 665.068235 
L 530.487934 623.562353 
L 530.716492 706.574118 
L 530.945051 665.068235 
L 531.402168 665.068235 
L 531.630726 706.574118 
L 531.859284 665.068235 
L 532.087843 706.574118 
L 532.316401 665.068235 
L 533.002077 665.068235 
L 533.230635 706.574118 
L 533.459193 706.574118 
L 533.687752 665.068235 
L 533.91631 706.574118 
L 534.144869 665.068235 
L 534.373427 706.574118 
L 534.601986 665.068235 
L 535.059102 665.068235 
L 535.287661 706.574118 
L 537.116128 706.574118 
L 537.344687 748.08 
L 537.573245 706.574118 
L 537.801804 706.574118 
L 538.030362 748.08 
L 538.25892 706.574118 
L 538.487479 748.08 
L 538.944596 748.08 
L 539.173154 706.574118 
L 539.401713 748.08 
L 539.858829 748.08 
L 540.087388 706.574118 
L 540.315946 706.574118 
L 540.544505 748.08 
L 540.773063 748.08 
L 541.001621 706.574118 
L 541.23018 748.08 
L 541.458738 748.08 
L 541.687297 706.574118 
L 541.915855 748.08 
L 542.144414 706.574118 
L 542.372972 748.08 
L 542.60153 748.08 
L 542.830089 706.574118 
L 544.887115 706.574118 
L 545.115673 665.068235 
L 545.57279 748.08 
L 545.801348 748.08 
L 546.029907 706.574118 
L 547.401257 706.574118 
L 547.629816 748.08 
L 547.858374 706.574118 
L 548.315491 706.574118 
L 548.54405 665.068235 
L 548.772608 706.574118 
L 549.001166 665.068235 
L 549.229725 706.574118 
L 549.9154 582.056471 
L 550.143958 623.562353 
L 550.372517 623.562353 
L 550.601075 582.056471 
L 550.829634 499.044706 
L 551.058192 540.550588 
L 551.286751 457.538824 
L 551.515309 416.032941 
L 551.743867 416.032941 
L 552.200984 333.021176 
L 553.115218 333.021176 
L 553.343776 374.527059 
L 553.572335 333.021176 
L 554.029452 333.021176 
L 554.25801 374.527059 
L 554.486569 333.021176 
L 554.715127 457.538824 
L 554.943685 457.538824 
L 555.172244 499.044706 
L 555.400802 457.538824 
L 555.629361 499.044706 
L 555.857919 457.538824 
L 556.086478 706.574118 
L 556.315036 457.538824 
L 556.543594 416.032941 
L 556.772153 457.538824 
L 557.000711 457.538824 
L 557.22927 416.032941 
L 557.457828 457.538824 
L 557.686387 374.527059 
L 557.914945 416.032941 
L 558.372062 416.032941 
L 558.60062 333.021176 
L 558.829179 291.515294 
L 559.057737 291.515294 
L 559.286296 374.527059 
L 559.514854 374.527059 
L 559.743412 457.538824 
L 559.971971 333.021176 
L 560.200529 416.032941 
L 560.429088 291.515294 
L 560.657646 374.527059 
L 560.886204 333.021176 
L 561.114763 333.021176 
L 561.343321 374.527059 
L 561.57188 333.021176 
L 561.800438 374.527059 
L 562.028997 333.021176 
L 562.257555 374.527059 
L 562.486113 333.021176 
L 562.714672 333.021176 
L 562.94323 374.527059 
L 563.171789 291.515294 
L 563.400347 333.021176 
L 563.628906 333.021176 
L 563.857464 291.515294 
L 564.086022 333.021176 
L 564.314581 291.515294 
L 564.543139 333.021176 
L 564.771698 333.021176 
L 565.000256 374.527059 
L 565.228815 333.021176 
L 565.457373 416.032941 
L 565.91449 333.021176 
L 566.143048 333.021176 
L 566.371607 291.515294 
L 566.600165 333.021176 
L 566.828724 291.515294 
L 567.057282 333.021176 
L 567.28584 250.009412 
L 567.514399 333.021176 
L 567.742957 291.515294 
L 568.200074 291.515294 
L 568.428633 333.021176 
L 568.885749 250.009412 
L 569.114308 333.021176 
L 569.342866 333.021176 
L 569.571425 291.515294 
L 569.799983 291.515294 
L 570.028542 250.009412 
L 570.2571 291.515294 
L 570.485658 250.009412 
L 570.714217 291.515294 
L 570.942775 291.515294 
L 571.171334 374.527059 
L 571.399892 291.515294 
L 571.62845 291.515294 
L 571.857009 333.021176 
L 572.085567 333.021176 
L 572.314126 291.515294 
L 572.771243 374.527059 
L 572.999801 250.009412 
L 573.228359 333.021176 
L 573.456918 291.515294 
L 573.685476 333.021176 
L 573.914035 416.032941 
L 574.142593 333.021176 
L 574.371152 374.527059 
L 574.59971 333.021176 
L 575.056827 416.032941 
L 575.285385 374.527059 
L 575.513944 374.527059 
L 575.742502 333.021176 
L 575.971061 333.021176 
L 576.199619 374.527059 
L 577.342411 374.527059 
L 577.57097 333.021176 
L 577.799528 416.032941 
L 578.028086 416.032941 
L 578.256645 374.527059 
L 578.485203 416.032941 
L 578.713762 374.527059 
L 578.94232 416.032941 
L 580.085112 416.032941 
L 580.313671 457.538824 
L 580.542229 374.527059 
L 580.770787 499.044706 
L 580.999346 374.527059 
L 581.227904 457.538824 
L 581.456463 374.527059 
L 581.685021 416.032941 
L 581.91358 499.044706 
L 582.142138 416.032941 
L 582.370696 457.538824 
L 582.599255 457.538824 
L 583.056372 374.527059 
L 583.28493 457.538824 
L 583.513489 499.044706 
L 583.742047 457.538824 
L 584.199164 540.550588 
L 584.427722 540.550588 
L 584.656281 499.044706 
L 585.113398 582.056471 
L 585.341956 540.550588 
L 585.570514 582.056471 
L 586.484748 582.056471 
L 586.941865 499.044706 
L 587.170423 374.527059 
L 587.398982 374.527059 
L 587.62754 416.032941 
L 587.856099 374.527059 
L 588.084657 416.032941 
L 588.998891 416.032941 
L 589.227449 499.044706 
L 589.456008 416.032941 
L 589.684566 457.538824 
L 589.913125 457.538824 
L 590.141683 499.044706 
L 590.370241 499.044706 
L 590.827358 582.056471 
L 591.055917 540.550588 
L 591.284475 623.562353 
L 591.513033 582.056471 
L 591.741592 582.056471 
L 591.97015 623.562353 
L 592.884384 623.562353 
L 593.112942 665.068235 
L 593.570059 665.068235 
L 593.798618 623.562353 
L 594.027176 623.562353 
L 594.255735 665.068235 
L 594.484293 623.562353 
L 594.712851 665.068235 
L 595.398527 665.068235 
L 595.627085 706.574118 
L 595.855644 665.068235 
L 596.541319 665.068235 
L 596.769877 706.574118 
L 596.998436 706.574118 
L 597.226994 665.068235 
L 597.455553 706.574118 
L 597.912669 706.574118 
L 598.141228 665.068235 
L 598.369786 665.068235 
L 598.598345 706.574118 
L 599.969695 706.574118 
L 600.198254 748.08 
L 600.426812 665.068235 
L 600.65537 706.574118 
L 601.798163 706.574118 
L 602.026721 748.08 
L 602.255279 706.574118 
L 602.483838 706.574118 
L 602.712396 748.08 
L 602.940955 706.574118 
L 603.398072 706.574118 
L 603.62663 748.08 
L 604.540864 748.08 
L 604.769422 706.574118 
L 604.997981 748.08 
L 605.226539 706.574118 
L 605.455097 748.08 
L 606.59789 748.08 
L 606.826448 706.574118 
L 607.055006 706.574118 
L 607.283565 748.08 
L 607.512123 706.574118 
L 607.740682 748.08 
L 608.197799 748.08 
L 608.426357 706.574118 
L 608.654915 748.08 
L 608.883474 748.08 
L 609.112032 706.574118 
L 609.340591 748.08 
L 609.569149 748.08 
L 609.797708 706.574118 
L 610.026266 748.08 
L 610.254824 748.08 
L 610.483383 706.574118 
L 610.711941 748.08 
L 610.9405 706.574118 
L 611.169058 706.574118 
L 611.397616 748.08 
L 611.854733 748.08 
L 612.083292 706.574118 
L 612.540409 706.574118 
L 612.768967 748.08 
L 612.997525 706.574118 
L 613.226084 706.574118 
L 613.454642 748.08 
L 613.683201 706.574118 
L 614.597434 706.574118 
L 614.825993 665.068235 
L 615.28311 665.068235 
L 615.511668 582.056471 
L 615.740227 582.056471 
L 615.968785 623.562353 
L 616.197343 582.056471 
L 616.425902 582.056471 
L 616.65446 540.550588 
L 616.883019 540.550588 
L 617.111577 457.538824 
L 617.340136 416.032941 
L 617.568694 333.021176 
L 617.797252 457.538824 
L 618.025811 333.021176 
L 618.254369 374.527059 
L 618.482928 374.527059 
L 618.711486 291.515294 
L 618.940045 291.515294 
L 619.168603 374.527059 
L 619.397161 333.021176 
L 619.62572 333.021176 
L 619.854278 416.032941 
L 620.082837 374.527059 
L 620.311395 457.538824 
L 620.539953 499.044706 
L 620.768512 457.538824 
L 621.225629 457.538824 
L 621.454187 416.032941 
L 621.682746 457.538824 
L 621.911304 457.538824 
L 622.139862 374.527059 
L 622.368421 457.538824 
L 622.596979 374.527059 
L 623.054096 457.538824 
L 623.282655 416.032941 
L 623.96833 416.032941 
L 624.196888 291.515294 
L 624.425447 374.527059 
L 624.654005 416.032941 
L 624.882564 208.503529 
L 625.111122 416.032941 
L 625.33968 374.527059 
L 625.568239 416.032941 
L 626.025356 333.021176 
L 626.253914 374.527059 
L 626.711031 291.515294 
L 626.939589 333.021176 
L 627.168148 250.009412 
L 628.082382 416.032941 
L 628.31094 333.021176 
L 628.539498 291.515294 
L 628.768057 291.515294 
L 629.225174 374.527059 
L 629.453732 291.515294 
L 629.682291 374.527059 
L 629.910849 374.527059 
L 630.139407 291.515294 
L 630.367966 333.021176 
L 630.825083 250.009412 
L 631.053641 333.021176 
L 631.282199 291.515294 
L 631.739316 291.515294 
L 632.196433 374.527059 
L 632.424992 208.503529 
L 632.65355 291.515294 
L 633.110667 291.515294 
L 633.339225 333.021176 
L 633.567784 250.009412 
L 634.024901 333.021176 
L 634.253459 333.021176 
L 634.482017 291.515294 
L 634.710576 291.515294 
L 634.939134 250.009412 
L 635.167693 291.515294 
L 635.853368 291.515294 
L 636.081926 250.009412 
L 636.310485 291.515294 
L 636.539043 125.491765 
L 636.767602 291.515294 
L 636.99616 250.009412 
L 637.224719 291.515294 
L 637.453277 291.515294 
L 637.681835 333.021176 
L 637.910394 291.515294 
L 638.138952 333.021176 
L 638.367511 291.515294 
L 638.596069 333.021176 
L 639.053186 250.009412 
L 639.281744 333.021176 
L 639.510303 250.009412 
L 639.738861 291.515294 
L 639.96742 291.515294 
L 640.195978 250.009412 
L 640.424536 333.021176 
L 640.653095 291.515294 
L 640.881653 416.032941 
L 641.110212 291.515294 
L 641.33877 333.021176 
L 641.567329 416.032941 
L 641.795887 291.515294 
L 642.024445 291.515294 
L 642.253004 374.527059 
L 642.481562 333.021176 
L 642.938679 333.021176 
L 643.167238 291.515294 
L 643.395796 374.527059 
L 643.624354 374.527059 
L 643.852913 291.515294 
L 644.081471 291.515294 
L 644.31003 250.009412 
L 644.538588 291.515294 
L 644.767147 374.527059 
L 644.995705 291.515294 
L 645.224263 374.527059 
L 645.452822 333.021176 
L 645.68138 374.527059 
L 645.909939 374.527059 
L 646.138497 416.032941 
L 646.595614 416.032941 
L 646.824172 499.044706 
L 647.281289 499.044706 
L 647.509848 416.032941 
L 647.738406 416.032941 
L 647.966965 457.538824 
L 648.195523 457.538824 
L 648.424081 416.032941 
L 648.65264 499.044706 
L 648.881198 374.527059 
L 649.109757 499.044706 
L 649.338315 499.044706 
L 649.566874 416.032941 
L 649.795432 540.550588 
L 650.02399 499.044706 
L 650.252549 499.044706 
L 650.481107 457.538824 
L 650.709666 499.044706 
L 651.166782 499.044706 
L 651.395341 540.550588 
L 651.852458 540.550588 
L 652.081016 623.562353 
L 652.309575 499.044706 
L 652.766691 416.032941 
L 652.99525 333.021176 
L 653.223808 374.527059 
L 653.452367 291.515294 
L 653.909484 374.527059 
L 654.138042 291.515294 
L 654.3666 333.021176 
L 654.823717 333.021176 
L 655.052276 374.527059 
L 655.509393 291.515294 
L 655.737951 374.527059 
L 655.966509 416.032941 
L 656.195068 499.044706 
L 656.423626 457.538824 
L 656.880743 540.550588 
L 657.109302 499.044706 
L 657.33786 540.550588 
L 657.566418 540.550588 
L 657.794977 499.044706 
L 658.023535 582.056471 
L 658.480652 582.056471 
L 658.709211 623.562353 
L 658.937769 582.056471 
L 659.623444 582.056471 
L 659.852003 623.562353 
L 661.451912 623.562353 
L 661.68047 665.068235 
L 661.909028 623.562353 
L 662.137587 623.562353 
L 662.366145 665.068235 
L 662.823262 665.068235 
L 663.051821 623.562353 
L 663.280379 665.068235 
L 663.508937 582.056471 
L 663.737496 665.068235 
L 664.65173 665.068235 
L 664.880288 706.574118 
L 665.108846 706.574118 
L 665.337405 665.068235 
L 665.565963 706.574118 
L 665.794522 706.574118 
L 666.02308 665.068235 
L 666.480197 665.068235 
L 666.708755 706.574118 
L 666.937314 706.574118 
L 667.165872 665.068235 
L 667.394431 706.574118 
L 667.622989 706.574118 
L 667.851548 665.068235 
L 668.308664 748.08 
L 668.537223 706.574118 
L 668.765781 748.08 
L 668.99434 748.08 
L 669.222898 706.574118 
L 669.451457 706.574118 
L 669.680015 748.08 
L 669.908573 706.574118 
L 670.137132 748.08 
L 670.36569 706.574118 
L 670.594249 748.08 
L 672.194158 748.08 
L 672.422716 706.574118 
L 672.651274 706.574118 
L 672.879833 748.08 
L 673.33695 748.08 
L 673.565508 706.574118 
L 673.794067 748.08 
L 674.022625 748.08 
L 674.251183 706.574118 
L 674.479742 706.574118 
L 674.7083 748.08 
L 676.079651 748.08 
L 676.308209 706.574118 
L 677.451001 706.574118 
L 677.67956 748.08 
L 678.136677 665.068235 
L 678.365235 706.574118 
L 678.593794 706.574118 
L 678.822352 748.08 
L 679.279469 748.08 
L 679.508027 706.574118 
L 679.965144 706.574118 
L 680.193702 665.068235 
L 680.422261 706.574118 
L 680.650819 665.068235 
L 681.107936 665.068235 
L 681.336495 582.056471 
L 681.565053 540.550588 
L 681.793611 623.562353 
L 682.02217 540.550588 
L 682.250728 582.056471 
L 682.479287 540.550588 
L 682.707845 457.538824 
L 682.936404 416.032941 
L 683.164962 457.538824 
L 683.39352 374.527059 
L 683.622079 333.021176 
L 683.850637 333.021176 
L 684.079196 250.009412 
L 684.307754 250.009412 
L 684.536313 208.503529 
L 684.764871 83.985882 
L 684.993429 166.997647 
L 685.221988 333.021176 
L 685.450546 416.032941 
L 685.679105 291.515294 
L 685.907663 374.527059 
L 686.36478 457.538824 
L 686.821897 374.527059 
L 687.050455 457.538824 
L 687.507572 374.527059 
L 688.193247 374.527059 
L 688.421806 416.032941 
L 688.878923 333.021176 
L 689.107481 374.527059 
L 689.33604 291.515294 
L 689.564598 416.032941 
L 690.021715 333.021176 
L 690.250273 374.527059 
L 690.478832 291.515294 
L 690.70739 416.032941 
L 690.935948 374.527059 
L 691.164507 416.032941 
L 691.393065 374.527059 
L 691.621624 416.032941 
L 691.850182 333.021176 
L 692.078741 374.527059 
L 692.307299 374.527059 
L 692.764416 291.515294 
L 692.992974 333.021176 
L 693.221533 291.515294 
L 693.450091 333.021176 
L 693.67865 291.515294 
L 694.364325 291.515294 
L 694.592883 416.032941 
L 694.821442 333.021176 
L 695.05 416.032941 
L 695.278559 374.527059 
L 695.507117 125.491765 
L 695.735675 208.503529 
L 695.964234 333.021176 
L 696.192792 291.515294 
L 696.421351 374.527059 
L 696.649909 374.527059 
L 696.878468 333.021176 
L 697.107026 374.527059 
L 697.335584 291.515294 
L 697.564143 374.527059 
L 697.792701 416.032941 
L 698.02126 374.527059 
L 698.249818 374.527059 
L 698.478377 333.021176 
L 698.706935 374.527059 
L 699.164052 291.515294 
L 699.39261 333.021176 
L 699.621169 291.515294 
L 699.849727 333.021176 
L 700.078285 291.515294 
L 700.306844 291.515294 
L 700.535402 374.527059 
L 700.763961 291.515294 
L 700.992519 457.538824 
L 701.449636 250.009412 
L 701.678194 291.515294 
L 701.906753 291.515294 
L 702.135311 250.009412 
L 702.592428 250.009412 
L 702.820987 166.997647 
L 703.049545 250.009412 
L 703.278103 291.515294 
L 703.506662 291.515294 
L 703.963779 374.527059 
L 704.192337 374.527059 
L 704.420896 291.515294 
L 704.649454 374.527059 
L 704.878012 291.515294 
L 705.106571 374.527059 
L 705.335129 374.527059 
L 705.563688 250.009412 
L 705.792246 416.032941 
L 706.020805 416.032941 
L 706.249363 333.021176 
L 706.477921 416.032941 
L 706.935038 333.021176 
L 707.163597 457.538824 
L 707.620714 291.515294 
L 707.849272 333.021176 
L 708.07783 416.032941 
L 708.306389 416.032941 
L 708.534947 333.021176 
L 708.763506 374.527059 
L 708.992064 291.515294 
L 709.220623 333.021176 
L 709.449181 416.032941 
L 709.906298 416.032941 
L 710.134856 291.515294 
L 710.363415 457.538824 
L 710.591973 416.032941 
L 711.04909 416.032941 
L 711.277648 374.527059 
L 711.506207 374.527059 
L 711.734765 333.021176 
L 712.191882 416.032941 
L 712.42044 374.527059 
L 712.648999 416.032941 
L 712.877557 374.527059 
L 713.106116 374.527059 
L 713.334674 499.044706 
L 713.563233 416.032941 
L 713.791791 457.538824 
L 714.477466 457.538824 
L 714.706025 416.032941 
L 714.934583 416.032941 
L 715.163142 457.538824 
L 715.3917 416.032941 
L 715.620258 499.044706 
L 715.848817 499.044706 
L 716.077375 457.538824 
L 716.305934 499.044706 
L 716.534492 499.044706 
L 716.991609 582.056471 
L 717.220167 582.056471 
L 717.448726 540.550588 
L 718.134401 540.550588 
L 718.36296 582.056471 
L 718.591518 540.550588 
L 718.820076 540.550588 
L 719.048635 416.032941 
L 719.277193 499.044706 
L 719.505752 374.527059 
L 719.73431 416.032941 
L 719.962869 416.032941 
L 720.191427 333.021176 
L 720.419985 457.538824 
L 720.877102 374.527059 
L 721.105661 457.538824 
L 721.334219 457.538824 
L 721.562777 499.044706 
L 722.019894 499.044706 
L 722.248453 540.550588 
L 722.477011 540.550588 
L 722.70557 582.056471 
L 722.934128 540.550588 
L 723.162686 582.056471 
L 724.07692 582.056471 
L 724.305479 623.562353 
L 724.534037 623.562353 
L 724.762595 665.068235 
L 724.991154 582.056471 
L 725.219712 665.068235 
L 725.448271 582.056471 
L 725.905388 665.068235 
L 726.133946 623.562353 
L 726.362504 665.068235 
L 726.591063 623.562353 
L 726.819621 623.562353 
L 727.04818 665.068235 
L 727.276738 623.562353 
L 727.505297 706.574118 
L 727.733855 665.068235 
L 728.648089 665.068235 
L 728.876647 623.562353 
L 729.562322 623.562353 
L 729.790881 706.574118 
L 730.019439 665.068235 
L 730.476556 665.068235 
L 730.705114 706.574118 
L 730.933673 665.068235 
L 731.162231 665.068235 
L 731.39079 706.574118 
L 732.076465 706.574118 
L 732.305023 665.068235 
L 732.533582 706.574118 
L 733.904932 706.574118 
L 734.133491 748.08 
L 734.362049 748.08 
L 734.590608 706.574118 
L 735.504841 706.574118 
L 735.7334 748.08 
L 735.961958 706.574118 
L 736.190517 706.574118 
L 736.419075 748.08 
L 736.647634 706.574118 
L 736.876192 706.574118 
L 737.10475 748.08 
L 737.561867 748.08 
L 737.790426 706.574118 
L 738.018984 706.574118 
L 738.247543 748.08 
L 738.704659 748.08 
L 738.933218 706.574118 
L 739.161776 706.574118 
L 739.390335 748.08 
L 740.07601 748.08 
L 740.304568 706.574118 
L 740.533127 706.574118 
L 740.761685 748.08 
L 740.990244 748.08 
L 741.218802 706.574118 
L 741.44736 706.574118 
L 741.675919 665.068235 
L 742.133036 748.08 
L 742.361594 706.574118 
L 742.590153 706.574118 
L 742.818711 748.08 
L 743.047269 706.574118 
L 743.275828 748.08 
L 743.504386 706.574118 
L 743.732945 748.08 
L 743.961503 706.574118 
L 744.190062 706.574118 
L 744.41862 748.08 
L 744.647178 706.574118 
L 746.475646 706.574118 
L 746.704204 665.068235 
L 747.161321 665.068235 
L 747.38988 582.056471 
L 748.304113 582.056471 
L 748.532672 499.044706 
L 748.76123 499.044706 
L 748.989789 374.527059 
L 749.218347 457.538824 
L 749.446905 333.021176 
L 749.675464 374.527059 
L 749.904022 291.515294 
L 750.132581 250.009412 
L 750.361139 250.009412 
L 750.818256 333.021176 
L 751.046814 250.009412 
L 751.275373 250.009412 
L 751.503931 291.515294 
L 751.73249 374.527059 
L 752.189606 374.527059 
L 752.418165 291.515294 
L 753.10384 416.032941 
L 753.332399 374.527059 
L 753.560957 374.527059 
L 753.789515 333.021176 
L 754.246632 416.032941 
L 754.703749 416.032941 
L 754.932308 374.527059 
L 755.160866 374.527059 
L 755.389424 416.032941 
L 755.846541 333.021176 
L 756.0751 333.021176 
L 756.303658 374.527059 
L 756.532217 374.527059 
L 756.760775 333.021176 
L 756.989333 416.032941 
L 757.44645 333.021176 
L 757.675009 374.527059 
L 757.903567 291.515294 
L 758.132126 333.021176 
L 758.360684 333.021176 
L 758.589242 291.515294 
L 758.817801 291.515294 
L 759.046359 333.021176 
L 759.274918 250.009412 
L 759.503476 333.021176 
L 759.732035 333.021176 
L 759.960593 291.515294 
L 760.41771 374.527059 
L 760.646268 374.527059 
L 760.874827 291.515294 
L 761.560502 291.515294 
L 761.78906 416.032941 
L 762.017619 291.515294 
L 762.246177 374.527059 
L 762.703294 291.515294 
L 763.160411 374.527059 
L 763.388969 250.009412 
L 763.617528 333.021176 
L 763.846086 291.515294 
L 764.303203 291.515294 
L 764.531761 250.009412 
L 764.76032 333.021176 
L 764.988878 291.515294 
L 765.217437 333.021176 
L 765.674554 250.009412 
L 765.903112 374.527059 
L 766.13167 250.009412 
L 766.360229 333.021176 
L 766.817346 333.021176 
L 767.045904 374.527059 
L 767.274463 250.009412 
L 767.731579 333.021176 
L 767.960138 291.515294 
L 768.645813 291.515294 
L 768.874372 374.527059 
L 769.10293 291.515294 
L 769.788605 291.515294 
L 770.017164 333.021176 
L 770.245722 333.021176 
L 770.47428 291.515294 
L 770.931397 291.515294 
L 771.159956 374.527059 
L 771.388514 333.021176 
L 772.074189 333.021176 
L 772.302748 374.527059 
L 772.531306 333.021176 
L 772.759865 333.021176 
L 772.988423 374.527059 
L 773.216982 333.021176 
L 773.44554 374.527059 
L 773.674098 374.527059 
L 773.902657 250.009412 
L 774.131215 333.021176 
L 774.359774 333.021176 
L 774.588332 374.527059 
L 774.816891 374.527059 
L 775.045449 333.021176 
L 775.274007 374.527059 
L 775.502566 250.009412 
L 775.731124 374.527059 
L 776.4168 374.527059 
L 776.645358 333.021176 
L 777.102475 416.032941 
L 777.331033 291.515294 
L 777.559592 416.032941 
L 778.930942 416.032941 
L 779.159501 457.538824 
L 779.616618 457.538824 
L 779.845176 499.044706 
L 780.073734 457.538824 
L 780.302293 374.527059 
L 780.530851 333.021176 
L 780.75941 457.538824 
L 780.987968 374.527059 
L 781.216526 416.032941 
L 781.445085 374.527059 
L 781.673643 250.009412 
L 781.902202 374.527059 
L 782.13076 374.527059 
L 782.359319 333.021176 
L 782.587877 374.527059 
L 782.816435 374.527059 
L 783.044994 333.021176 
L 783.273552 250.009412 
L 783.502111 374.527059 
L 783.730669 374.527059 
L 783.959228 416.032941 
L 784.187786 416.032941 
L 784.644903 333.021176 
L 785.10202 333.021176 
L 785.330578 374.527059 
L 785.559137 333.021176 
L 786.016253 416.032941 
L 786.244812 374.527059 
L 786.47337 457.538824 
L 786.930487 374.527059 
L 787.159046 457.538824 
L 787.387604 457.538824 
L 787.616162 499.044706 
L 787.844721 582.056471 
L 788.530396 582.056471 
L 788.758955 665.068235 
L 789.216071 665.068235 
L 789.44463 623.562353 
L 789.901747 706.574118 
L 790.130305 665.068235 
L 790.81598 665.068235 
L 791.044539 706.574118 
L 791.273097 665.068235 
L 791.501656 706.574118 
L 791.730214 706.574118 
L 791.958772 665.068235 
L 792.187331 706.574118 
L 794.015798 706.574118 
L 794.244357 748.08 
L 794.472915 706.574118 
L 794.701474 748.08 
L 794.930032 706.574118 
L 795.15859 748.08 
L 795.387149 706.574118 
L 795.844266 706.574118 
L 796.072824 748.08 
L 811.843355 748.08 
L 812.071914 706.574118 
L 812.300472 748.08 
L 812.529031 706.574118 
L 812.986148 706.574118 
L 813.443264 623.562353 
L 813.671823 665.068235 
L 813.900381 623.562353 
L 814.12894 623.562353 
L 814.586057 457.538824 
L 814.814615 499.044706 
L 815.043173 457.538824 
L 815.728849 457.538824 
L 815.957407 374.527059 
L 816.414524 374.527059 
L 816.643082 333.021176 
L 816.871641 416.032941 
L 817.328758 416.032941 
L 817.557316 457.538824 
L 818.014433 457.538824 
L 818.47155 374.527059 
L 818.700108 374.527059 
L 818.928667 333.021176 
L 819.157225 416.032941 
L 819.385784 374.527059 
L 819.614342 457.538824 
L 819.8429 457.538824 
L 820.071459 416.032941 
L 820.300017 499.044706 
L 820.528576 457.538824 
L 820.757134 457.538824 
L 820.985692 499.044706 
L 821.214251 416.032941 
L 821.442809 499.044706 
L 821.671368 416.032941 
L 821.899926 416.032941 
L 822.128485 125.491765 
L 822.585601 540.550588 
L 822.81416 457.538824 
L 823.271277 540.550588 
L 823.499835 499.044706 
L 823.728394 499.044706 
L 823.956952 374.527059 
L 824.18551 374.527059 
L 824.414069 416.032941 
L 824.642627 374.527059 
L 824.871186 416.032941 
L 825.099744 333.021176 
L 825.556861 333.021176 
L 825.785419 250.009412 
L 826.013978 374.527059 
L 826.242536 416.032941 
L 826.471095 291.515294 
L 826.699653 333.021176 
L 826.928212 416.032941 
L 827.15677 333.021176 
L 827.385328 333.021176 
L 827.613887 291.515294 
L 827.842445 333.021176 
L 828.071004 291.515294 
L 828.299562 333.021176 
L 828.756679 333.021176 
L 828.985237 374.527059 
L 829.213796 374.527059 
L 829.442354 416.032941 
L 829.670913 374.527059 
L 829.899471 416.032941 
L 830.128029 416.032941 
L 830.356588 333.021176 
L 830.585146 333.021176 
L 830.813705 374.527059 
L 831.042263 374.527059 
L 831.270822 291.515294 
L 831.49938 333.021176 
L 831.727938 250.009412 
L 831.956497 250.009412 
L 832.413614 333.021176 
L 832.642172 333.021176 
L 832.870731 291.515294 
L 833.099289 291.515294 
L 833.327847 333.021176 
L 833.556406 291.515294 
L 833.784964 333.021176 
L 834.47064 208.503529 
L 834.699198 250.009412 
L 834.927756 250.009412 
L 835.156315 374.527059 
L 835.384873 291.515294 
L 835.613432 291.515294 
L 835.84199 374.527059 
L 836.070549 333.021176 
L 836.299107 374.527059 
L 836.527665 250.009412 
L 836.756224 333.021176 
L 836.984782 333.021176 
L 837.213341 374.527059 
L 837.441899 333.021176 
L 837.899016 416.032941 
L 838.127574 333.021176 
L 838.356133 374.527059 
L 839.498925 374.527059 
L 839.727483 333.021176 
L 840.1846 416.032941 
L 840.641717 333.021176 
L 840.870275 333.021176 
L 841.098834 374.527059 
L 841.555951 374.527059 
L 842.013068 457.538824 
L 842.241626 416.032941 
L 842.698743 416.032941 
L 842.927301 374.527059 
L 843.15586 416.032941 
L 843.384418 333.021176 
L 843.612977 457.538824 
L 843.841535 416.032941 
L 844.070093 499.044706 
L 844.298652 499.044706 
L 844.52721 416.032941 
L 844.755769 457.538824 
L 845.212886 374.527059 
L 845.441444 457.538824 
L 845.670002 416.032941 
L 846.127119 499.044706 
L 846.355678 499.044706 
L 846.584236 457.538824 
L 847.041353 457.538824 
L 847.269911 416.032941 
L 847.49847 416.032941 
L 847.727028 457.538824 
L 847.955587 457.538824 
L 848.184145 416.032941 
L 848.412704 457.538824 
L 848.641262 374.527059 
L 848.86982 457.538824 
L 849.098379 416.032941 
L 849.326937 416.032941 
L 849.555496 374.527059 
L 849.784054 291.515294 
L 850.012612 291.515294 
L 850.241171 250.009412 
L 850.698288 333.021176 
L 850.926846 208.503529 
L 851.155405 291.515294 
L 851.383963 250.009412 
L 851.84108 333.021176 
L 852.298197 333.021176 
L 852.526755 374.527059 
L 852.755314 374.527059 
L 852.983872 457.538824 
L 853.21243 457.538824 
L 853.440989 499.044706 
L 853.669547 457.538824 
L 853.898106 499.044706 
L 854.126664 582.056471 
L 854.355223 623.562353 
L 854.583781 623.562353 
L 854.812339 665.068235 
L 855.498015 665.068235 
L 855.726573 623.562353 
L 856.18369 623.562353 
L 856.640807 706.574118 
L 856.869365 665.068235 
L 857.097924 706.574118 
L 857.326482 665.068235 
L 857.555041 706.574118 
L 857.783599 665.068235 
L 858.012157 665.068235 
L 858.240716 706.574118 
L 859.15495 706.574118 
L 859.383508 665.068235 
L 859.612066 706.574118 
L 859.840625 665.068235 
L 860.069183 706.574118 
L 861.211975 706.574118 
L 861.440534 665.068235 
L 861.669092 706.574118 
L 862.354767 706.574118 
L 862.583326 748.08 
L 862.811884 706.574118 
L 863.040443 748.08 
L 863.49756 665.068235 
L 863.726118 748.08 
L 863.954676 706.574118 
L 864.183235 748.08 
L 864.411793 706.574118 
L 864.640352 748.08 
L 864.86891 748.08 
L 865.097469 706.574118 
L 865.326027 748.08 
L 865.554585 748.08 
L 866.011702 665.068235 
L 866.697378 665.068235 
L 866.925936 706.574118 
L 867.154494 706.574118 
L 867.383053 665.068235 
L 867.84017 665.068235 
L 868.068728 706.574118 
L 868.982962 706.574118 
L 869.21152 665.068235 
L 869.440079 706.574118 
L 874.468364 706.574118 
L 874.696922 748.08 
L 874.925481 706.574118 
L 875.154039 748.08 
L 875.611156 748.08 
L 875.839715 706.574118 
L 876.068273 706.574118 
L 876.296831 665.068235 
L 876.52539 706.574118 
L 876.982507 706.574118 
L 877.211065 665.068235 
L 877.439624 706.574118 
L 878.125299 706.574118 
L 878.353857 665.068235 
L 878.582416 665.068235 
L 878.810974 623.562353 
L 879.496649 623.562353 
L 879.725208 665.068235 
L 879.953766 623.562353 
L 880.182325 665.068235 
L 880.639441 582.056471 
L 881.096558 582.056471 
L 881.325117 665.068235 
L 881.553675 582.056471 
L 881.782234 582.056471 
L 882.010792 623.562353 
L 882.23935 582.056471 
L 882.467909 582.056471 
L 882.696467 623.562353 
L 882.925026 623.562353 
L 883.153584 582.056471 
L 883.382143 623.562353 
L 883.610701 582.056471 
L 884.067818 582.056471 
L 884.296376 540.550588 
L 884.524935 582.056471 
L 884.753493 499.044706 
L 884.982052 540.550588 
L 885.21061 499.044706 
L 885.439168 499.044706 
L 885.667727 582.056471 
L 885.896285 582.056471 
L 886.124844 499.044706 
L 886.353402 540.550588 
L 886.581961 499.044706 
L 886.810519 540.550588 
L 887.039077 457.538824 
L 887.267636 499.044706 
L 887.496194 499.044706 
L 887.724753 457.538824 
L 887.953311 499.044706 
L 888.18187 457.538824 
L 888.638986 457.538824 
L 888.867545 416.032941 
L 889.096103 499.044706 
L 889.55322 416.032941 
L 889.781779 457.538824 
L 890.010337 457.538824 
L 890.696012 333.021176 
L 890.924571 416.032941 
L 891.381687 333.021176 
L 891.610246 333.021176 
L 891.838804 291.515294 
L 892.067363 333.021176 
L 892.295921 291.515294 
L 892.52448 333.021176 
L 892.753038 291.515294 
L 893.210155 374.527059 
L 893.667272 291.515294 
L 893.89583 374.527059 
L 894.124389 333.021176 
L 894.352947 333.021176 
L 894.581505 250.009412 
L 895.038622 333.021176 
L 895.267181 333.021176 
L 895.495739 291.515294 
L 895.952856 374.527059 
L 896.181414 374.527059 
L 896.409973 333.021176 
L 896.86709 333.021176 
L 897.095648 291.515294 
L 898.009882 291.515294 
L 898.23844 333.021176 
L 898.466999 291.515294 
L 898.695557 291.515294 
L 898.924116 250.009412 
L 899.152674 374.527059 
L 899.381232 250.009412 
L 899.609791 333.021176 
L 899.838349 374.527059 
L 900.066908 374.527059 
L 900.295466 416.032941 
L 900.524024 374.527059 
L 900.752583 416.032941 
L 900.981141 416.032941 
L 901.438258 499.044706 
L 901.666817 416.032941 
L 901.895375 457.538824 
L 902.123933 416.032941 
L 902.352492 457.538824 
L 902.58105 416.032941 
L 902.809609 457.538824 
L 903.266726 457.538824 
L 903.495284 416.032941 
L 903.723842 416.032941 
L 903.952401 499.044706 
L 904.180959 457.538824 
L 904.409518 457.538824 
L 904.638076 416.032941 
L 905.095193 416.032941 
L 905.323751 374.527059 
L 905.55231 457.538824 
L 905.780868 457.538824 
L 906.237985 374.527059 
L 906.466544 374.527059 
L 906.695102 457.538824 
L 906.92366 416.032941 
L 907.152219 416.032941 
L 907.380777 374.527059 
L 907.609336 416.032941 
L 907.837894 416.032941 
L 908.066453 374.527059 
L 908.295011 457.538824 
L 908.523569 416.032941 
L 908.752128 416.032941 
L 908.980686 374.527059 
L 909.209245 374.527059 
L 909.437803 416.032941 
L 909.89492 416.032941 
L 910.123478 333.021176 
L 910.352037 416.032941 
L 910.580595 333.021176 
L 911.037712 416.032941 
L 911.26627 374.527059 
L 911.723387 374.527059 
L 911.951946 416.032941 
L 912.180504 374.527059 
L 912.409063 416.032941 
L 912.637621 416.032941 
L 912.866179 374.527059 
L 913.094738 416.032941 
L 913.323296 374.527059 
L 913.780413 374.527059 
L 914.008972 333.021176 
L 914.23753 374.527059 
L 914.466088 333.021176 
L 914.694647 333.021176 
L 914.923205 374.527059 
L 915.151764 457.538824 
L 915.380322 457.538824 
L 915.608881 374.527059 
L 915.837439 416.032941 
L 916.065997 291.515294 
L 916.294556 291.515294 
L 916.523114 374.527059 
L 916.751673 374.527059 
L 916.980231 416.032941 
L 917.20879 333.021176 
L 917.437348 333.021176 
L 917.665906 416.032941 
L 917.894465 374.527059 
L 918.123023 416.032941 
L 918.351582 416.032941 
L 918.58014 374.527059 
L 918.808699 416.032941 
L 919.037257 416.032941 
L 919.265815 499.044706 
L 919.494374 499.044706 
L 919.722932 457.538824 
L 920.180049 540.550588 
L 920.637166 540.550588 
L 920.865724 582.056471 
L 921.322841 582.056471 
L 921.5514 540.550588 
L 921.779958 582.056471 
L 922.008516 540.550588 
L 922.237075 582.056471 
L 922.694192 582.056471 
L 922.92275 623.562353 
L 923.151309 623.562353 
L 923.379867 582.056471 
L 923.608425 582.056471 
L 923.836984 623.562353 
L 924.065542 582.056471 
L 924.294101 582.056471 
L 924.522659 623.562353 
L 924.979776 623.562353 
L 925.208334 582.056471 
L 925.665451 665.068235 
L 925.89401 623.562353 
L 927.951036 623.562353 
L 928.179594 582.056471 
L 928.408152 623.562353 
L 928.636711 582.056471 
L 929.093828 665.068235 
L 929.550945 665.068235 
L 929.779503 623.562353 
L 930.008061 665.068235 
L 930.23662 623.562353 
L 930.465178 665.068235 
L 931.379412 665.068235 
L 931.60797 706.574118 
L 931.836529 665.068235 
L 932.065087 665.068235 
L 932.293646 706.574118 
L 932.522204 665.068235 
L 932.750762 706.574118 
L 936.864814 706.574118 
L 937.093373 665.068235 
L 937.321931 706.574118 
L 938.007606 706.574118 
L 938.236165 665.068235 
L 938.464723 706.574118 
L 940.064632 706.574118 
L 940.29319 665.068235 
L 940.521749 665.068235 
L 940.750307 706.574118 
L 941.207424 706.574118 
L 941.435983 748.08 
L 941.664541 706.574118 
L 941.893099 748.08 
L 942.121658 706.574118 
L 942.350216 748.08 
L 942.578775 706.574118 
L 943.721567 706.574118 
L 943.950125 748.08 
L 944.407242 665.068235 
L 945.321476 665.068235 
L 945.550034 706.574118 
L 945.778593 623.562353 
L 946.007151 665.068235 
L 946.23571 623.562353 
L 946.464268 665.068235 
L 946.921385 582.056471 
L 947.149943 665.068235 
L 948.292735 665.068235 
L 948.521294 623.562353 
L 948.749852 665.068235 
L 948.978411 623.562353 
L 949.206969 665.068235 
L 949.435528 623.562353 
L 949.664086 623.562353 
L 949.892644 665.068235 
L 950.349761 582.056471 
L 950.57832 665.068235 
L 950.806878 582.056471 
L 951.492553 582.056471 
L 951.721112 623.562353 
L 952.178229 540.550588 
L 952.635345 540.550588 
L 952.863904 582.056471 
L 953.092462 582.056471 
L 953.321021 540.550588 
L 953.549579 582.056471 
L 954.006696 582.056471 
L 954.235254 623.562353 
L 954.463813 540.550588 
L 955.149488 540.550588 
L 955.378047 582.056471 
L 955.606605 499.044706 
L 955.835163 582.056471 
L 956.063722 540.550588 
L 956.29228 540.550588 
L 956.749397 457.538824 
L 957.206514 540.550588 
L 957.435072 499.044706 
L 957.663631 499.044706 
L 958.120748 416.032941 
L 958.349306 457.538824 
L 958.577865 374.527059 
L 958.806423 540.550588 
L 959.034981 457.538824 
L 959.26354 540.550588 
L 959.492098 457.538824 
L 959.720657 499.044706 
L 959.949215 457.538824 
L 960.177773 457.538824 
L 960.406332 374.527059 
L 960.63489 457.538824 
L 960.863449 374.527059 
L 961.092007 457.538824 
L 961.320566 457.538824 
L 961.549124 416.032941 
L 962.006241 499.044706 
L 962.234799 499.044706 
L 962.463358 416.032941 
L 962.691916 457.538824 
L 963.377591 457.538824 
L 963.60615 374.527059 
L 963.834708 457.538824 
L 964.748942 457.538824 
L 964.9775 499.044706 
L 965.434617 416.032941 
L 965.663176 499.044706 
L 965.891734 540.550588 
L 966.348851 540.550588 
L 966.577409 582.056471 
L 966.805968 540.550588 
L 967.034526 582.056471 
L 967.263085 540.550588 
L 967.491643 582.056471 
L 967.720202 540.550588 
L 967.94876 540.550588 
L 968.177318 582.056471 
L 968.862994 582.056471 
L 969.091552 540.550588 
L 969.320111 623.562353 
L 969.777227 540.550588 
L 970.462903 540.550588 
L 970.691461 582.056471 
L 970.920019 540.550588 
L 971.148578 540.550588 
L 971.377136 582.056471 
L 971.605695 499.044706 
L 971.834253 540.550588 
L 972.062812 499.044706 
L 972.29137 540.550588 
L 972.748487 540.550588 
L 972.977045 499.044706 
L 973.205604 499.044706 
L 973.434162 540.550588 
L 973.891279 540.550588 
L 974.119837 582.056471 
L 974.348396 499.044706 
L 974.576954 499.044706 
L 974.805513 457.538824 
L 975.034071 540.550588 
L 975.26263 457.538824 
L 976.176863 457.538824 
L 976.405422 540.550588 
L 976.63398 540.550588 
L 976.862539 499.044706 
L 977.319655 499.044706 
L 977.548214 540.550588 
L 978.005331 540.550588 
L 978.233889 457.538824 
L 978.462448 540.550588 
L 978.691006 540.550588 
L 978.919564 582.056471 
L 979.148123 499.044706 
L 979.376681 582.056471 
L 979.60524 623.562353 
L 979.833798 582.056471 
L 980.062356 665.068235 
L 980.290915 665.068235 
L 980.519473 706.574118 
L 980.748032 623.562353 
L 980.97659 665.068235 
L 981.662265 665.068235 
L 981.890824 623.562353 
L 982.119382 499.044706 
L 982.347941 499.044706 
L 982.576499 457.538824 
L 982.805058 499.044706 
L 983.033616 499.044706 
L 983.262174 540.550588 
L 983.490733 540.550588 
L 983.94785 457.538824 
L 984.176408 499.044706 
L 984.404967 457.538824 
L 984.633525 499.044706 
L 984.862083 582.056471 
L 985.3192 582.056471 
L 985.547759 623.562353 
L 985.776317 623.562353 
L 986.004876 582.056471 
L 986.690551 582.056471 
L 986.919109 623.562353 
L 987.147668 582.056471 
L 987.376226 623.562353 
L 987.604785 582.056471 
L 987.833343 623.562353 
L 988.061901 623.562353 
L 988.29046 665.068235 
L 988.519018 623.562353 
L 988.747577 665.068235 
L 988.976135 623.562353 
L 989.204694 665.068235 
L 989.66181 665.068235 
L 989.890369 623.562353 
L 990.118927 665.068235 
L 990.347486 665.068235 
L 990.576044 623.562353 
L 991.033161 623.562353 
L 991.261719 665.068235 
L 991.947395 665.068235 
L 992.175953 706.574118 
L 992.404511 665.068235 
L 993.318745 665.068235 
L 993.547304 706.574118 
L 994.461537 706.574118 
L 994.690096 665.068235 
L 994.918654 706.574118 
L 996.518563 706.574118 
L 996.747122 748.08 
L 996.97568 706.574118 
L 997.204238 748.08 
L 997.661355 748.08 
L 997.889914 706.574118 
L 998.118472 706.574118 
L 998.347031 748.08 
L 998.575589 706.574118 
L 998.804147 748.08 
L 999.032706 706.574118 
L 999.261264 748.08 
L 1002.918199 748.08 
L 1003.146757 706.574118 
L 1003.375316 748.08 
L 1004.060991 748.08 
L 1004.28955 706.574118 
L 1004.518108 748.08 
L 1005.203783 748.08 
L 1005.432342 706.574118 
L 1005.6609 748.08 
L 1005.889459 706.574118 
L 1006.118017 748.08 
L 1006.346575 706.574118 
L 1006.575134 748.08 
L 1006.803692 706.574118 
L 1007.032251 748.08 
L 1007.260809 706.574118 
L 1008.403601 706.574118 
L 1008.63216 748.08 
L 1008.860718 706.574118 
L 1009.546393 706.574118 
L 1009.774952 665.068235 
L 1010.00351 665.068235 
L 1010.232069 623.562353 
L 1010.917744 623.562353 
L 1011.146302 582.056471 
L 1011.374861 623.562353 
L 1011.603419 499.044706 
L 1011.831978 540.550588 
L 1012.060536 457.538824 
L 1012.746211 333.021176 
L 1012.97477 416.032941 
L 1013.203328 416.032941 
L 1013.431887 333.021176 
L 1013.660445 374.527059 
L 1013.889003 333.021176 
L 1014.34612 416.032941 
L 1014.574679 374.527059 
L 1014.803237 374.527059 
L 1015.260354 457.538824 
L 1015.488912 416.032941 
L 1016.631705 416.032941 
L 1016.631705 416.032941 
" clip-path="url(#p957f6cce6b)" style="fill: none; stroke: #1f77b4; stroke-width: 1.5; stroke-linecap: square"/>
   </g>
   <g id="patch_3">
    <path d="M 57.88625 783.36 
L 57.88625 7.2 
" style="fill: none; stroke: #000000; stroke-width: 0.8; stroke-linejoin: miter; stroke-linecap: square"/>
   </g>
   <g id="patch_4">
    <path d="M 1062.28625 783.36 
L 1062.28625 7.2 
" style="fill: none; stroke: #000000; stroke-width: 0.8; stroke-linejoin: miter; stroke-linecap: square"/>
   </g>
   <g id="patch_5">
    <path d="M 57.88625 783.36 
L 1062.28625 783.36 
" style="fill: none; stroke: #000000; stroke-width: 0.8; stroke-linejoin: miter; stroke-linecap: square"/>
   </g>
   <g id="patch_6">
    <path d="M 57.88625 7.2 
L 1062.28625 7.2 
" style="fill: none; stroke: #000000; stroke-width: 0.8; stroke-linejoin: miter; stroke-linecap: square"/>
   </g>
  </g>
 </g>
 <defs>
  <clipPath id="p957f6cce6b">
   <rect x="57.88625" y="7.2" width="1004.4" height="776.16"/>
  </clipPath>
 </defs>
</svg>
